<?xml version="1.0" encoding="UTF-8"?>
<svg id="Layer_2" data-name="Layer 2" xmlns="http://www.w3.org/2000/svg" xmlns:xlink="http://www.w3.org/1999/xlink" viewBox="0 0 333.26 126.81">
  <defs>
    <style>
      .cls-1 {
        fill: #787878;
      }

      .cls-1, .cls-2, .cls-3, .cls-4, .cls-5, .cls-6, .cls-7, .cls-8, .cls-9, .cls-10, .cls-11, .cls-12, .cls-13, .cls-14, .cls-15, .cls-16, .cls-17, .cls-18, .cls-19, .cls-20, .cls-21, .cls-22, .cls-23 {
        stroke-width: 0px;
      }

      .cls-24, .cls-25, .cls-26, .cls-27, .cls-28, .cls-29, .cls-30, .cls-31, .cls-32, .cls-33, .cls-34, .cls-35, .cls-36, .cls-37, .cls-38, .cls-39, .cls-40 {
        stroke-miterlimit: 10;
      }

      .cls-24, .cls-25, .cls-26, .cls-27, .cls-29, .cls-30, .cls-33, .cls-34, .cls-35, .cls-36, .cls-37, .cls-38 {
        stroke-width: .75px;
      }

      .cls-24, .cls-25, .cls-27, .cls-28, .cls-30, .cls-34, .cls-35 {
        stroke: #0a3351;
      }

      .cls-24, .cls-29 {
        fill: #1172ba;
      }

      .cls-25 {
        fill: #ffde17;
      }

      .cls-26, .cls-29, .cls-33, .cls-36, .cls-37, .cls-38 {
        stroke: #231f20;
      }

      .cls-26, .cls-30 {
        fill: #fbb03c;
      }

      .cls-27 {
        fill: #24b574;
      }

      .cls-2, .cls-31, .cls-41, .cls-40 {
        fill: #010101;
      }

      .cls-3 {
        fill: #787978;
      }

      .cls-28 {
        fill: #939598;
        stroke-width: .76px;
      }

      .cls-4 {
        fill: #f89921;
      }

      .cls-31, .cls-40 {
        stroke: #333;
        stroke-width: .2px;
      }

      .cls-5 {
        fill: url(#radial-gradient);
      }

      .cls-6 {
        fill: #787979;
      }

      .cls-7 {
        fill: #767676;
      }

      .cls-8 {
        fill: #767776;
      }

      .cls-41 {
        font-size: 10px;
      }

      .cls-41, .cls-40 {
        font-family: PatrickHandSC-Regular, 'Patrick Hand SC';
      }

      .cls-9 {
        fill: #767878;
      }

      .cls-32 {
        stroke: #010101;
        stroke-width: .45px;
      }

      .cls-32, .cls-39 {
        fill: none;
      }

      .cls-10 {
        fill: #757777;
      }

      .cls-11 {
        fill: #797a7a;
      }

      .cls-12 {
        fill: #7a7a7a;
      }

      .cls-33, .cls-34 {
        fill: #804580;
      }

      .cls-13 {
        fill: #231f20;
      }

      .cls-14 {
        fill: #757675;
      }

      .cls-35 {
        fill: #ef4136;
      }

      .cls-36 {
        fill: #eff0a3;
      }

      .cls-15, .cls-38 {
        fill: #00a79d;
      }

      .cls-16 {
        fill: #545555;
      }

      .cls-17 {
        fill: #7a7b7a;
      }

      .cls-18 {
        fill: #797a79;
      }

      .cls-19 {
        fill: #535455;
      }

      .cls-37 {
        fill: #dc1961;
      }

      .cls-20 {
        fill: #797979;
      }

      .cls-39 {
        stroke: #00a79d;
        stroke-dasharray: 0 0 6.82 6.82;
        stroke-width: 1.75px;
      }

      .cls-21 {
        fill: #797978;
      }

      .cls-22 {
        fill: #777;
      }

      .cls-23 {
        fill: #747474;
      }

      .cls-40 {
        font-size: 14.16px;
      }
    </style>
    <radialGradient id="radial-gradient" cx="282.16" cy="51.01" fx="282.16" fy="51.01" r="32.56" gradientUnits="userSpaceOnUse">
      <stop offset="0" stop-color="#00a79d"/>
      <stop offset=".09" stop-color="rgba(0, 167, 157, .87)" stop-opacity=".87"/>
      <stop offset=".27" stop-color="rgba(0, 167, 157, .66)" stop-opacity=".66"/>
      <stop offset=".44" stop-color="rgba(0, 167, 157, .5)" stop-opacity=".5"/>
      <stop offset=".62" stop-color="rgba(0, 167, 157, .39)" stop-opacity=".39"/>
      <stop offset=".8" stop-color="rgba(0, 167, 157, .32)" stop-opacity=".32"/>
      <stop offset="1" stop-color="#00a79d" stop-opacity=".3"/>
    </radialGradient>
  </defs>
  <g id="Layer_1-2" data-name="Layer 1">
    <line class="cls-32" x1="121.3" y1="29.03" x2="129.52" y2="26.4"/>
    <line class="cls-32" x1="120.81" y1="16.14" x2="133.77" y2="16.14"/>
    <circle class="cls-37" cx="136.07" cy="16.52" r="7.37"/>
    <g>
      <path class="cls-19" d="M138.78,114.09c0,.06-.02.12,0,.18.15.9,1.32,1.96-.05,2.65-1.51.76-1.86-.75-2.45-1.64-5.19-7.86-10.59-15.6-14.75-24.1-3.18-6.51-5.42-13.3-5.3-20.63.12-7.52,1.69-14.8,4.19-21.89,2.72-7.74,6.46-15.01,10.06-22.35.39-.79.87-1.58,1.89-1.21.82.3,1.19.98.71,1.88.27.55-.1.95-.33,1.38-.55.88-1.03,1.79-1.49,2.72-.17.36-.31.74-.48,1.1-.52.94-.94,1.93-1.41,2.89-.13.3-.25.59-.39.88-.5.89-.99,1.78-1.46,2.69-.35.62-.58,1.28-.82,1.94-.29.74-.57,1.49-.95,2.19-.35.62-.59,1.29-.83,1.95-.29.74-.58,1.48-.92,2.19-.24.5-.35,1.05-.53,1.57-.32.83-.65,1.65-.94,2.49-.26.6-.42,1.23-.54,1.88-.3,1.32-.68,2.61-1.01,3.92-.1.41-.16.83-.23,1.25-.32,1.07-.47,2.18-.77,3.26-.19.49-.15,1.02-.21,1.53-.13.97-.29,1.94-.47,2.91-.23.72-.03,1.46-.1,2.18-.19,1.12.04,2.24-.06,3.36.33.18-.93.56.1.7.45.06.43.47.25.82-.63,1.18-.12,2.41-.11,3.61.06.53.19,1.05.37,1.55.42,1.11.68,2.26,1.02,3.39.2.59.24,1.23.54,1.79.47,1.14.84,2.31,1.35,3.42.19.47.29.98.55,1.43.49.97.82,2.02,1.36,2.97.17.37.35.75.56,1.1.61.97,1.05,2.03,1.67,3,.25.42.51.83.75,1.26.38.89.9,1.69,1.41,2.51.24.41.49.82.76,1.21.45.75.92,1.48,1.38,2.22.24.41.49.81.76,1.2.45.75.92,1.48,1.38,2.22.36.61.71,1.21,1.17,1.75.53.68.99,1.41,1.56,2.06.24.32.44.66.65.99.56.94,1.13,1.87,1.84,2.71.19.26.33.55.34.88Z"/>
      <path class="cls-16" d="M129.42,61.44c.23,1.88,1.59,3.23,2.32,4.88-.32,5.43.1,10.72,2.45,15.75.99,2.12,2.21,4.08,3.5,6.02,4.3,6.45,8.6,12.9,12.4,19.67.48.86,1.43,1.83.11,2.59-1.38.8-1.86-.38-2.27-1.43-.46-.35-.87-.75-1.1-1.3-.41-.78-.91-1.51-1.37-2.27-.24-.41-.49-.81-.76-1.21-.45-.75-.92-1.48-1.38-2.22-.24-.41-.49-.81-.76-1.2-.45-.75-.92-1.48-1.38-2.22-.24-.41-.49-.81-.76-1.2-.53-.87-1.04-1.76-1.67-2.57-.29-.37-.57-.76-.83-1.15-.48-.81-.99-1.6-1.6-2.31-.24-.32-.44-.66-.65-.99-.49-.81-.99-1.62-1.51-2.41-.18-.27-.34-.54-.52-.81-.44-.78-.99-1.5-1.34-2.33-.17-.47-.35-.93-.6-1.36-.4-.76-.77-1.54-.97-2.39-.1-.43-.28-.83-.42-1.24-.31-.95-.69-1.88-.99-2.83-.1-.37-.17-.75-.19-1.14-.15-1.09-.25-2.18-.32-3.28-.08-.39-.09-.78-.1-1.18-.1-.96.11-1.92.09-2.88-.02-.38-.05-.76-.01-1.14.13-1.01.21-2.03.31-3.05-.02-.48-.08-.95-.09-1.43-.02-.51-.02-1.01.41-1.38Z"/>
      <path class="cls-19" d="M134.31,55.52c-1.26.05-1.96,1.36-3.21,1.43-.34-.47-.13-.94-.03-1.41.14-.37.35-.71.51-1.08.32-.72.57-1.46.95-2.15.34-.61.59-1.26.75-1.95.21-.78.64-1.45,1-2.16.28-.48.45-1,.68-1.5.51-.88.88-1.83,1.35-2.73.16-.35.3-.72.47-1.07.5-.88.88-1.82,1.34-2.72.16-.35.3-.72.47-1.07.47-.89,1.02-1.74,1.36-2.69.14-.36.28-.73.44-1.08.42-.75.82-1.51,1.22-2.27.14-.39.62-.47.77-.85.24-.34.52-.66.71-1.02.44-.82,1.07-1.14,1.91-.69.93.49.75,1.22.31,1.97-3.16,5.48-5.67,11.29-8.48,16.96-.97,1.97-1.7,4.06-2.54,6.09Z"/>
      <path class="cls-1" d="M147.14,107.48c.26.48.52.97.79,1.45-2.17.79-3.95,2.26-5.93,3.39-1.07.61-2.01,1.45-3.22,1.78-.42-.14-.51-.47-.54-.86-.05-.48.22-.81.57-1.04,2.44-1.61,4.88-3.22,7.46-4.6.27-.14.58-.13.88-.12Z"/>
      <path class="cls-10" d="M142.39,32.21c.02.45-.14.78-.58.95-.36.38-.78.25-1.15.06-2.63-1.38-5.31-2.69-7.81-4.32-.26-.17-.44-.39-.52-.7.24-.41.48-.81.72-1.22,3.11,1.74,6.22,3.49,9.33,5.23Z"/>
      <path class="cls-22" d="M143.64,101.72c-2.84,1.58-5.69,3.13-8.51,4.75-.43.25-1.25.31-1.07,1.18-.39-.59-.78-1.18-1.17-1.77,2.84-1.5,5.68-3,8.53-4.5.47-.25.94-.48,1.41-.72.45.21.58.67.8,1.06Z"/>
      <path class="cls-18" d="M129.76,76.95c-3.47.33-6.94.66-10.4.99-.51-.41-.34-1-.4-1.52,3.53-.22,7.07-.45,10.6-.67.07.4.14.81.2,1.21Z"/>
      <path class="cls-17" d="M128.66,99.01c3.08-2,6.27-3.81,9.54-5.49.27.34.54.67.81,1.01-3.21,1.87-6.43,3.75-9.64,5.62-.39-.28-.59-.69-.71-1.14Z"/>
      <path class="cls-7" d="M134.67,48.29c-1.56-1.17-3.47-1.51-5.25-2.13-1.62-.56-3.14-1.43-4.88-1.59.27-.64.55-1.28.82-1.92.03.94.87.84,1.41,1.05,2.81,1.08,5.63,2.1,8.45,3.15-.04.53-.2,1.02-.55,1.44Z"/>
      <path class="cls-23" d="M141.5,98.33c-3.47,1.43-6.65,3.41-9.93,5.21-.47-.21-.6-.67-.81-1.07,3.27-1.81,6.43-3.84,9.92-5.23.48.21.6.68.82,1.09Z"/>
      <path class="cls-14" d="M123.62,46.8c3.3,1.4,6.59,2.83,10.09,3.67-.21.68-.35,1.4-.83,1.96.03-.42-.15-.6-.56-.75-3.06-1.16-6.07-2.44-9.23-3.35.18-.51.35-1.02.53-1.53Z"/>
      <path class="cls-12" d="M136.52,91.11c-2.93,1.98-5.93,3.81-9.15,5.27-.55-.14-.67-.65-.9-1.07,3.32-1.5,6.32-3.59,9.53-5.28.17.36.35.72.52,1.08Z"/>
      <path class="cls-7" d="M127.17,38.51c.57.99,1.68.99,2.56,1.4,2.39,1.11,4.98,1.74,7.28,3.09-.1.39-.2.79-.3,1.18-2.91-1.17-5.81-2.36-8.72-3.49-.51-.2-1.04-.66-1.67-.24.29-.65.57-1.29.86-1.94Z"/>
      <path class="cls-22" d="M129.15,35.03c3.42.95,6.52,2.64,9.67,4.21-.12.41-.23.81-.35,1.22-3.21-1.59-6.62-2.77-9.73-4.57-.03-.37.01-.7.4-.86Z"/>
      <path class="cls-11" d="M130.89,30.82c3.22,1.58,6.67,2.65,9.74,4.56-.1.4-.19.8-.29,1.21-3.26-1.51-6.52-3.03-9.78-4.54.11-.41.23-.82.34-1.23Z"/>
      <path class="cls-8" d="M135.72,109.45c2.97-1.96,6.06-3.73,9.2-5.39.45.22.66.64.85,1.06-3.19,1.86-6.38,3.71-9.56,5.57-.28-.37-.53-.75-.49-1.24Z"/>
      <path class="cls-3" d="M120.43,81.49c3.39-.83,6.85-1.19,10.28-1.78.15.4.3.79.44,1.19-2.95.49-5.9.97-8.84,1.5-.54.1-1.45-.28-1.45.83-.54-.48-.31-1.16-.44-1.74Z"/>
      <path class="cls-9" d="M122.14,50.92c.02.91.82.73,1.32.9,2.82.97,5.66,1.88,8.49,2.82-.09.39-.24.74-.68.86-3.29-.63-6.38-1.92-9.61-2.77-.05-.66.08-1.27.48-1.81Z"/>
      <path class="cls-20" d="M132.67,84.61c-3.28,1.17-6.55,2.33-9.83,3.5-.5-.33-.4-.87-.47-1.36,2.94-1.02,5.89-2.05,8.84-3.05.35-.12.66-.23.88-.53.29.44.57.89.58,1.45Z"/>
      <path class="cls-8" d="M124.25,91.2c3.19-1.41,6.18-3.3,9.6-4.19.37.11.48.4.53.74-3.08,1.77-6.39,3.07-9.57,4.62-.19-.39-.37-.78-.56-1.17Z"/>
      <path class="cls-8" d="M129.25,68.43c-3.49-.18-6.98-.37-10.46-.55,0-.73-.37-1.48.11-2.18-.03.74.27.98,1.05,1.01,3.08.12,6.16.35,9.24.54.02.4.04.79.06,1.19Z"/>
      <path class="cls-6" d="M119.56,61.29c1.27.95,2.82.74,4.25.93,1.87.25,3.72.71,5.63.58.05.55.09,1.09.14,1.64-2.63-.39-5.26-.77-7.89-1.17-.76-.12-1.51-.29-2.26-.44-.07-.52-.25-1.05.14-1.53Z"/>
      <path class="cls-21" d="M118.78,71.47c3.48-.09,6.95-.18,10.43-.27.02.41.03.83.05,1.24-3.34.19-6.68.42-10.03.09.12-.47-1.07-.39-.44-1.07Z"/>
      <path class="cls-22" d="M129.57,60.01c-3.08-.69-6.15-1.39-9.23-2.08-.01-.42-.09-.86.38-1.12,3.13.37,6.15,1.2,9.16,2.08-.1.37-.21.75-.31,1.12Z"/>
      <ellipse class="cls-26" cx="138.07" cy="49.61" rx="6.85" ry="6.14" transform="translate(-4.07 13.27) rotate(-5.42)"/>
      <ellipse class="cls-33" cx="134.58" cy="60.39" rx="6.85" ry="6.14" transform="translate(-5.11 12.99) rotate(-5.42)"/>
      <path class="cls-36" d="M134.52,25.88c.07,1.41-.86,2.47-2.25,2.55-1.38.08-2.6-1.01-2.66-2.38-.06-1.28,1.05-2.52,2.31-2.59,1.38-.08,2.52.99,2.6,2.42Z"/>
      <ellipse class="cls-29" cx="133.39" cy="72.26" rx="6.14" ry="6.85" transform="translate(60.18 205.13) rotate(-89.59)"/>
    </g>
    <g>
      <path class="cls-19" d="M218.15,60s.08.09.14.12c.8.43,2.36.16,2.06,1.67-.33,1.66-1.74,1.01-2.8.92-9.4-.74-18.82-1.23-28.08-3.18-7.1-1.49-13.82-3.9-19.53-8.5-5.86-4.72-10.63-10.43-14.69-16.75-4.43-6.9-7.87-14.32-11.45-21.67-.38-.79-.72-1.66.21-2.23.74-.46,1.51-.34,1.92.6.6.13.69.66.88,1.11.35.97.78,1.91,1.23,2.84.19.35.39.7.57,1.06.42.99.94,1.92,1.42,2.89.16.28.31.56.45.85.4.94.8,1.88,1.23,2.8.27.65.65,1.24,1.03,1.84.4.69.82,1.36,1.15,2.09.27.66.66,1.25,1.03,1.85.41.68.81,1.37,1.16,2.08.25.5.62.92.91,1.39.46.76.9,1.53,1.39,2.27.32.57.72,1.09,1.15,1.58.85,1.05,1.64,2.14,2.47,3.21.27.33.56.64.85.95.65.91,1.43,1.72,2.1,2.61.28.45.71.75,1.08,1.11.69.7,1.36,1.42,2.01,2.16.43.62,1.13.92,1.66,1.42.76.84,1.79,1.34,2.61,2.11.35-.15-.13,1.08.61.35.32-.32.63-.05.8.31.55,1.22,1.83,1.57,2.78,2.3.45.28.94.49,1.45.66,1.13.35,2.2.85,3.3,1.29.59.2,1.12.56,1.74.67,1.18.33,2.34.76,3.53,1.04.49.14.95.38,1.46.44,1.07.21,2.1.6,3.18.76.4.09.8.18,1.21.24,1.14.12,2.25.42,3.39.53.48.07.97.11,1.45.18.93.25,1.89.33,2.85.43.47.06.95.11,1.42.15.87.11,1.73.18,2.6.28.47.06.94.11,1.41.14.86.1,1.73.18,2.6.27.7.09,1.39.18,2.1.16.86,0,1.72.08,2.59.04.4,0,.79.06,1.18.1,1.09.14,2.17.26,3.27.21.32.01.63.08.9.27Z"/>
      <path class="cls-16" d="M170.87,35.02c1.63.97,3.53.73,5.28,1.17,4.09,3.58,8.52,6.51,13.93,7.75,2.28.52,4.58.77,6.89.94,7.73.57,15.46,1.15,23.14,2.31.97.15,2.32,0,2.11,1.5-.22,1.58-1.44,1.24-2.52.91-.56.14-1.13.23-1.7.07-.87-.15-1.75-.21-2.63-.31-.47-.06-.95-.11-1.42-.14-.86-.11-1.73-.18-2.6-.28-.47-.06-.94-.11-1.41-.14-.86-.11-1.73-.18-2.59-.28-.47-.06-.94-.11-1.41-.14-1.02-.11-2.03-.26-3.05-.26-.47,0-.95-.01-1.42-.05-.93-.12-1.87-.21-2.81-.16-.4-.01-.79-.06-1.18-.1-.94-.12-1.89-.21-2.83-.29-.32-.03-.64-.06-.96-.09-.89-.13-1.79-.14-2.67-.38-.47-.15-.95-.3-1.44-.36-.85-.15-1.69-.34-2.48-.71-.4-.18-.82-.28-1.24-.43-.94-.34-1.9-.61-2.84-.96-.36-.15-.7-.33-1.02-.55-.95-.55-1.87-1.14-2.78-1.76-.36-.17-.67-.41-.99-.64-.82-.51-1.44-1.27-2.22-1.84-.31-.21-.63-.43-.91-.69-.72-.73-1.47-1.42-2.22-2.12-.39-.28-.8-.52-1.18-.81-.41-.29-.81-.6-.83-1.17Z"/>
      <path class="cls-19" d="M169.2,27.53c-.74,1.02-.13,2.38-.84,3.41-.58-.01-.82-.47-1.13-.85-.21-.34-.35-.72-.54-1.07-.37-.69-.8-1.35-1.11-2.07-.27-.65-.63-1.24-1.07-1.79-.49-.64-.76-1.4-1.09-2.11-.2-.51-.51-.97-.76-1.46-.38-.94-.9-1.82-1.33-2.74-.18-.35-.38-.68-.56-1.03-.38-.94-.9-1.81-1.32-2.73-.18-.34-.38-.68-.56-1.02-.41-.92-.74-1.87-1.29-2.73-.2-.33-.41-.67-.58-1.02-.33-.79-.68-1.58-1.04-2.36-.22-.35.01-.78-.2-1.13-.12-.4-.2-.81-.37-1.19-.37-.85-.24-1.54.63-1.93.96-.43,1.42.16,1.75.97,2.38,5.87,5.42,11.42,8.16,17.11.95,1.98,2.16,3.83,3.24,5.74Z"/>
      <path class="cls-1" d="M218.07,49.34c.54.09,1.08.18,1.63.27-.71,2.2-.64,4.51-.97,6.76-.18,1.21-.09,2.47-.58,3.64-.36.25-.69.11-1.01-.1-.41-.25-.5-.67-.47-1.09.23-2.91.46-5.82.96-8.71.05-.3.25-.54.44-.77Z"/>
      <path class="cls-10" d="M155.92,6.35c.37.26.53.59.39,1.04.08.52-.28.77-.66.94-2.71,1.22-5.38,2.53-8.2,3.5-.29.1-.58.11-.87-.02-.17-.44-.35-.88-.52-1.32,3.29-1.38,6.57-2.77,9.86-4.15Z"/>
      <path class="cls-22" d="M211.38,48.56c-.5,3.21-1.03,6.41-1.49,9.63-.07.49-.53,1.18.27,1.57-.7-.06-1.41-.11-2.11-.17.56-3.16,1.13-6.33,1.69-9.49.09-.52.2-1.04.3-1.56.45-.22.89-.04,1.33.02Z"/>
      <path class="cls-18" d="M183.31,44.29c-1.87,2.94-3.74,5.88-5.62,8.81-.63.15-1-.34-1.45-.62,1.99-2.93,3.99-5.85,5.98-8.78.36.19.72.39,1.08.58Z"/>
      <path class="cls-17" d="M200.03,58.71c.32-3.66.85-7.29,1.53-10.9.43,0,.86-.01,1.29-.02-.5,3.69-.99,7.37-1.49,11.06-.46.14-.9.04-1.33-.14Z"/>
      <path class="cls-7" d="M163.72,22.8c-1.88.51-3.33,1.81-4.91,2.84-1.43.93-3.06,1.6-4.25,2.88-.34-.61-.67-1.22-1.01-1.83.76.56,1.2-.17,1.69-.47,2.58-1.55,5.12-3.15,7.68-4.73.4.36.68.79.79,1.32Z"/>
      <path class="cls-23" d="M207.39,48.17c-1,3.62-1.4,7.34-1.99,11.04-.45.24-.9.06-1.34-.02.59-3.69.92-7.43,1.97-11.04.46-.25.91-.05,1.36.02Z"/>
      <path class="cls-14" d="M155.75,30.6c3.13-1.74,6.28-3.46,9.1-5.7.41.58.88,1.14,1.04,1.86-.31-.28-.56-.25-.94-.02-2.79,1.7-5.66,3.29-8.31,5.22-.29-.45-.59-.91-.88-1.36Z"/>
      <path class="cls-12" d="M198.63,47.66c-.24,3.52-.64,7.02-1.47,10.46-.45.35-.93.13-1.4.05.86-3.54,1.05-7.19,1.69-10.77.39.08.78.17,1.17.25Z"/>
      <path class="cls-7" d="M151.4,22.7c1.13.16,1.82-.72,2.68-1.16,2.35-1.2,4.44-2.86,6.91-3.84.25.32.5.64.75.97-2.71,1.57-5.43,3.13-8.12,4.73-.47.28-1.16.41-1.22,1.17-.33-.62-.67-1.25-1-1.87Z"/>
      <path class="cls-22" d="M149.87,19c2.85-2.11,6.09-3.52,9.27-5.04.25.34.5.68.75,1.02-3.23,1.56-6.25,3.52-9.58,4.86-.31-.2-.54-.44-.43-.85Z"/>
      <path class="cls-11" d="M147.62,15.04c3.22-1.57,6.19-3.63,9.58-4.88.26.32.52.65.77.97-3.2,1.64-6.4,3.29-9.59,4.93-.25-.34-.51-.68-.76-1.02Z"/>
      <path class="cls-8" d="M212.61,59.56c.29-3.55.78-7.07,1.41-10.57.45-.22.91-.13,1.36-.02-.5,3.65-.99,7.31-1.49,10.96-.46-.01-.91-.05-1.28-.38Z"/>
      <path class="cls-3" d="M181.15,54.44c1.43-3.18,3.27-6.14,4.92-9.2.4.13.81.25,1.21.38-1.42,2.63-2.86,5.25-4.25,7.89-.25.49-1.12.97-.24,1.65-.71.13-1.1-.47-1.64-.72Z"/>
      <path class="cls-9" d="M158.09,34.29c.73.54,1.08-.2,1.52-.48,2.5-1.63,4.96-3.3,7.44-4.96.25.31.43.65.27,1.06-2.52,2.21-5.44,3.85-8.09,5.87-.55-.37-.96-.84-1.13-1.49Z"/>
      <path class="cls-20" d="M191.13,46.7c-1.09,3.3-2.19,6.6-3.28,9.9-.57.19-.94-.22-1.36-.46,1-2.95,2-5.9,3.03-8.85.12-.35.22-.66.12-1.02.53.04,1.05.1,1.5.43Z"/>
      <path class="cls-8" d="M191.17,57.39c.85-3.39,1.2-6.9,2.6-10.15.31-.22.61-.13.91.04-.5,3.52-1.5,6.93-2.24,10.39-.42-.09-.84-.19-1.27-.28Z"/>
      <path class="cls-8" d="M176.27,39.45c-2.29,2.64-4.58,5.28-6.87,7.91-.57-.46-1.4-.61-1.65-1.43.56.48.94.39,1.44-.21,1.99-2.36,4.06-4.64,6.1-6.96.32.23.65.46.97.69Z"/>
      <path class="cls-6" d="M164.68,42.71c1.53-.42,2.32-1.77,3.34-2.78,1.34-1.32,2.85-2.5,3.92-4.08.46.3.92.6,1.38.9-1.92,1.84-3.84,3.68-5.77,5.51-.56.53-1.16,1.01-1.74,1.51-.45-.27-.98-.45-1.13-1.05Z"/>
      <path class="cls-21" d="M172.23,49.58c2.07-2.8,4.13-5.59,6.2-8.39.34.24.67.49,1.01.73-1.91,2.75-3.78,5.53-6.09,7.96-.3-.38-.97.61-1.11-.31Z"/>
      <path class="cls-22" d="M169.83,34.02c-2.44,2-4.88,4-7.31,6-.34-.25-.73-.46-.65-.99,2.21-2.24,4.73-4.11,7.27-5.94.23.31.46.62.7.93Z"/>
      <ellipse class="cls-26" cx="166.85" cy="20.92" rx="6.85" ry="6.14" transform="translate(59.54 150.39) rotate(-57.5)"/>
      <ellipse class="cls-33" cx="173.21" cy="30.31" rx="6.85" ry="6.14" transform="translate(54.57 160.1) rotate(-57.5)"/>
      <path class="cls-36" d="M145.95,9.14c1.16.81,1.42,2.2.63,3.34-.78,1.13-2.39,1.43-3.51.64-1.04-.74-1.34-2.38-.62-3.42.79-1.14,2.33-1.39,3.5-.56Z"/>
      <ellipse class="cls-29" cx="182.68" cy="37.51" rx="6.85" ry="6.14" transform="translate(46.06 164.45) rotate(-54.5)"/>
    </g>
    <text class="cls-41" transform="translate(98.26 31.69)"><tspan x="0" y="0">Biotin</tspan></text>
    <g>
      <path class="cls-2" d="M90.92,1.68c.43,0,.8.07,1.1.22.3.15.46.33.46.56,0,.1-.03.19-.08.26s-.12.11-.22.11-.3-.08-.62-.23c-.32-.15-.61-.22-.88-.22s-.53.08-.81.25c-.28.17-.42.37-.42.61,0,.33.17.57.51.72.25.11.62.21,1.09.3.47.09.86.27,1.16.55.3.28.45.7.45,1.25,0,.85-.26,1.48-.77,1.89-.29.23-.69.34-1.21.34s-1.04-.14-1.56-.43c-.34-.18-.51-.36-.51-.54,0-.07.03-.14.08-.22.06-.08.14-.15.24-.2.1-.05.19-.06.27-.03.08.04.22.1.4.2.19.09.32.16.41.19.28.11.54.16.79.16s.48-.12.71-.37c.23-.24.35-.54.35-.89,0-.47-.23-.79-.7-.98-.23-.09-.48-.16-.77-.21-.59-.11-1.04-.29-1.34-.54s-.45-.63-.45-1.13.22-.9.65-1.19c.43-.29.99-.44,1.67-.44Z"/>
      <path class="cls-2" d="M95.25,4.29l-.02,2.37c0,.49,0,.93.02,1.3,0,.1-.03.18-.12.25-.09.06-.18.09-.27.09-.17,0-.26-.09-.26-.28-.02-.73-.03-1.42-.03-2.08s.02-1.2.06-1.62c-.4.03-.81.05-1.22.05-.21,0-.31-.09-.31-.26,0-.08.04-.16.11-.24s.16-.12.25-.13l3.12-.1c.18.04.27.13.27.26,0,.27-.31.41-.94.41l-.66-.02Z"/>
      <path class="cls-2" d="M98.3,7.93c0,.1-.05.19-.14.26-.09.07-.2.11-.31.11-.15,0-.22-.07-.22-.2-.03-.31-.04-1.56-.04-3.73,0-.21.13-.38.39-.5.26-.12.6-.18,1.03-.18s.81.11,1.13.32c.32.21.49.47.49.77,0,.15-.06.31-.19.49-.13.18-.26.32-.4.42-.14.1-.35.23-.62.38-.27.15-.43.23-.49.24.42.27.79.56,1.12.87s.49.56.49.74-.08.3-.24.35c-.05.01-.11.02-.18.02s-.17-.07-.28-.21c-.11-.14-.33-.35-.64-.62-.31-.27-.62-.51-.93-.73.01.53.03.93.04,1.19h0ZM98.26,5.84c.22,0,.55-.11.99-.33s.67-.42.69-.6c0-.18-.1-.32-.3-.41-.2-.09-.41-.13-.63-.13-.25,0-.5.03-.74.09,0,.32-.01.78-.01,1.38Z"/>
      <path class="cls-2" d="M102.36,6.05l.02,1.31c0,.17,0,.27,0,.28l1.73-.03c.19.02.29.1.29.25,0,.28-.13.42-.39.42l-1.96.02c-.12,0-.21-.04-.27-.12s-.09-.17-.1-.26c0-.09,0-.2,0-.31v-1.66c-.09-.05-.13-.12-.13-.21s.04-.18.11-.25c-.02-.52-.03-.99-.03-1.42,0-.25.15-.37.45-.38h.28l1.75.03h0c.21.03.32.13.32.3,0,.13-.04.22-.12.27-.17.09-.59.14-1.25.14-.25,0-.49,0-.74-.03,0,.6,0,.94.01,1.01.26,0,.77.01,1.53.01.21.03.31.12.31.28,0,.08-.03.16-.1.23s-.14.12-.21.12-.24.01-.49.01-.58,0-1,0Z"/>
      <path class="cls-2" d="M106.56,3.68c.48,0,.87.11,1.16.32s.44.49.44.84c0,.55-.17.95-.51,1.21-.25.19-.58.28-1,.28-.16,0-.33-.01-.52-.04.02.39.03.73.03,1.02s0,.54-.02.75c-.01.15-.11.23-.29.23s-.3-.04-.35-.11c-.06-.07-.08-.18-.08-.33v-3.76c.01-.28.4-.42,1.16-.42ZM106.1,4.39c-.01.2-.02.42-.02.65v.54c.17.02.37.03.58.03s.39-.04.53-.12c.19-.11.29-.31.29-.6v-.09c-.01-.17-.17-.3-.48-.38-.17-.05-.33-.07-.48-.07s-.29.01-.42.04Z"/>
      <path class="cls-2" d="M111.05,4.29l-.02,2.37c0,.49,0,.93.02,1.3,0,.1-.03.18-.12.25-.09.06-.18.09-.27.09-.17,0-.26-.09-.26-.28-.02-.73-.03-1.42-.03-2.08s.02-1.2.06-1.62c-.4.03-.81.05-1.22.05-.21,0-.31-.09-.31-.26,0-.08.04-.16.11-.24s.16-.12.25-.13l3.12-.1c.18.04.27.13.27.26,0,.27-.31.41-.94.41l-.66-.02Z"/>
      <path class="cls-2" d="M114.05,8.04c-.03.17-.15.25-.35.25s-.31-.09-.31-.26c0-.39.19-1.19.58-2.4.17-.55.37-1.01.58-1.38.21-.37.42-.55.62-.55.11,0,.2.06.28.19.08.13.22.42.43.87.21.45.39.93.53,1.43.14.5.29,1.12.46,1.84,0,.09-.03.16-.09.21s-.13.08-.22.08c-.21,0-.35-.09-.4-.28l-.35-1.37c-.59,0-1.06-.05-1.41-.14-.2.73-.31,1.24-.34,1.52ZM115.13,4.61c-.22.37-.4.79-.54,1.25.29.08.64.12,1.04.12-.13-.46-.29-.92-.5-1.37Z"/>
      <path class="cls-2" d="M121.53,4c0,.07-.03.17-.1.31l-.18.38c-.13.29-.29.73-.46,1.32-.18.59-.4,1.24-.66,1.94-.09.23-.22.35-.4.35-.13,0-.28-.19-.43-.57-.4-.98-.85-1.93-1.34-2.84-.05-.09-.08-.16-.11-.21-.03-.05-.05-.1-.08-.14s-.04-.08-.05-.1c-.01-.02-.02-.04-.03-.06,0-.02-.01-.04-.01-.05,0-.02,0-.04,0-.05v-.06c0-.08.05-.16.14-.24s.18-.12.27-.12.17.02.23.07c.06.05.12.12.18.23.06.1.11.2.16.3.17.38.31.67.41.88.1.21.19.4.27.59.08.19.16.38.24.58s.13.33.16.39c.05-.17.19-.59.44-1.27.24-.68.42-1.14.51-1.37.17-.39.33-.58.5-.58.03,0,.07,0,.1.02.17.06.26.16.26.3Z"/>
      <path class="cls-2" d="M122.56,8.3c-.19,0-.28-.08-.28-.24l.04-4.07c0-.09.03-.17.1-.23.07-.06.15-.08.24-.08s.18.02.25.07c.07.05.11.12.12.23,0,.11,0,.36,0,.74,0,1.78-.01,2.86-.04,3.25,0,.09-.06.16-.15.23-.1.07-.19.1-.29.1Z"/>
      <path class="cls-2" d="M124.1,8.04c-.09-.07-.13-.13-.13-.21s.02-.13.07-.2c-.07-.51-.11-1.11-.14-1.78-.03-.67-.04-1.05-.04-1.14s0-.19,0-.29.02-.22.04-.34c.05-.25.2-.38.46-.38.69,0,1.35.31,1.98.93s.96,1.29.96,2.02c0,.55-.17.96-.51,1.24-.34.28-.8.42-1.39.42-.11,0-.27-.01-.48-.04,0,.11-.04.2-.13.28-.09.08-.19.12-.3.12-.17,0-.28-.09-.31-.26l-.09-.36ZM124.61,4.44c0,.07-.01.2-.01.38s.02.58.06,1.2c.04.62.08,1.14.15,1.58.05.01.26.02.62.02.78,0,1.17-.22,1.17-.66,0-.56-.18-1.06-.54-1.5-.36-.44-.84-.78-1.44-1.01Z"/>
      <path class="cls-2" d="M128.46,8.3c-.19,0-.28-.08-.28-.24l.04-4.07c0-.09.03-.17.1-.23.07-.06.15-.08.24-.08s.18.02.25.07c.07.05.11.12.12.23,0,.11,0,.36,0,.74,0,1.78-.01,2.86-.04,3.25,0,.09-.06.16-.15.23-.1.07-.19.1-.29.1Z"/>
      <path class="cls-2" d="M130.5,5.18l-.11,2.43c0,.21-.01.36-.02.43-.03.18-.14.27-.35.27-.08,0-.15-.03-.21-.08-.06-.06-.1-.13-.1-.21.05-1.73.08-2.67.08-2.8v-.46c0-.17.02-.32.05-.45.05-.18.17-.27.36-.27.09,0,.21.06.35.19s.34.36.61.7c.63.78,1.11,1.52,1.44,2.21-.01-.95-.04-1.67-.07-2.17s-.05-.77-.05-.82v-.08c.05-.25.18-.38.41-.38.09,0,.17.04.24.12.07.08.11.17.11.29l.05,3.72c0,.35-.14.52-.42.52-.17,0-.3-.06-.39-.17-.09-.12-.16-.21-.2-.28s-.1-.17-.18-.32c-.51-.97-1.04-1.76-1.59-2.38Z"/>
      <path class="cls-2" d="M104.15,18.29l-1.29-.03c-.07-.28-.12-1.54-.13-3.78v-.71c0-.57.05-1,.16-1.29.11-.3.33-.54.67-.71.17-.09.42-.13.73-.13s.55.02.71.06c.45.09.75.27.92.52.16.25.25.59.25,1.02,0,.59-.16,1.03-.47,1.31.16.02.32.1.48.24.16.14.29.28.39.43.17.27.26.63.26,1.09,0,.72-.22,1.23-.65,1.54-.44.3-1.11.46-2.02.46ZM105.79,15.54c-.07-.07-.18-.14-.32-.2-.14-.06-.34-.09-.6-.09s-.71.04-1.34.13c0,1.04.02,1.74.05,2.11.78,0,1.33-.05,1.64-.16s.52-.23.63-.38c.11-.15.17-.31.17-.48s0-.29,0-.36c0-.07-.02-.17-.06-.29-.04-.12-.09-.22-.16-.29ZM103.53,13.42l.02,1.14s.13-.01.34-.04c.21-.03.39-.06.54-.09.67-.16,1.01-.54,1.01-1.15,0-.3-.09-.52-.27-.66-.18-.14-.41-.21-.69-.21-.36,0-.6.06-.73.19-.05.05-.1.1-.13.13-.03.04-.06.09-.07.17s-.02.14-.02.17,0,.1,0,.19c0,.09,0,.15,0,.16Z"/>
      <path class="cls-2" d="M108.45,16.05l.02,1.31c0,.17,0,.27,0,.28l1.73-.03c.19.02.29.1.29.25,0,.28-.13.42-.39.42l-1.96.02c-.12,0-.21-.04-.27-.12s-.09-.17-.1-.26c0-.09,0-.2,0-.31v-1.66c-.09-.05-.13-.12-.13-.21s.04-.18.11-.25c-.02-.52-.03-.99-.03-1.42,0-.25.15-.37.45-.38h.28l1.75.03h0c.21.03.32.13.32.3,0,.13-.04.22-.12.27-.17.09-.59.14-1.25.14-.25,0-.49,0-.74-.03,0,.6,0,.94.01,1.01.26,0,.77.01,1.53.01.21.03.31.12.31.28,0,.08-.03.16-.1.23s-.14.12-.21.12-.24.01-.49.01-.58,0-1,0Z"/>
      <path class="cls-2" d="M112.14,18.04c-.03.17-.15.25-.35.25s-.31-.09-.31-.26c0-.39.19-1.19.58-2.4.17-.55.37-1.01.58-1.38.21-.37.42-.55.62-.55.11,0,.2.06.28.19.08.13.22.42.43.87.21.45.39.93.53,1.43.14.5.29,1.12.46,1.84,0,.09-.03.16-.09.21s-.13.08-.22.08c-.21,0-.35-.09-.4-.28l-.35-1.37c-.59,0-1.06-.05-1.41-.14-.2.73-.31,1.24-.34,1.52ZM113.22,14.61c-.22.37-.4.79-.54,1.25.29.08.64.12,1.04.12-.13-.46-.29-.92-.5-1.37Z"/>
      <path class="cls-2" d="M116.09,18.04c-.09-.07-.13-.13-.13-.21s.02-.13.07-.2c-.07-.51-.11-1.11-.14-1.78-.03-.67-.04-1.05-.04-1.14s0-.19,0-.29.02-.22.04-.34c.05-.25.2-.38.46-.38.69,0,1.35.31,1.98.93s.96,1.29.96,2.02c0,.55-.17.96-.51,1.24-.34.28-.8.42-1.39.42-.11,0-.27-.01-.48-.04,0,.11-.04.2-.13.28-.09.08-.19.12-.3.12-.17,0-.28-.09-.31-.26l-.09-.36ZM116.6,14.44c0,.07-.01.2-.01.38s.02.58.06,1.2c.04.62.08,1.14.15,1.58.05.01.26.02.62.02.78,0,1.17-.22,1.17-.66,0-.56-.18-1.06-.54-1.5-.36-.44-.84-.78-1.44-1.01Z"/>
    </g>
    <g>
      <line class="cls-32" x1="55.32" y1="41.56" x2="64.82" y2="36.19"/>
      <line class="cls-32" x1="42.96" y1="50.97" x2="66.96" y2="50.97"/>
      <text class="cls-41" transform="translate(61.44 33.84)"><tspan x="0" y="0">Antibody</tspan></text>
      <g>
        <path class="cls-2" d="M71.98,48.79l-1.29-.03c-.07-.28-.12-1.54-.13-3.78v-.71c0-.57.05-1,.16-1.29.11-.3.33-.54.67-.71.17-.09.42-.13.73-.13s.55.02.71.06c.45.09.75.27.92.52.16.25.25.59.25,1.02,0,.59-.16,1.03-.47,1.31.16.02.32.1.48.24.16.14.29.28.39.43.17.27.26.63.26,1.09,0,.72-.22,1.23-.65,1.54-.44.3-1.11.46-2.02.46ZM73.62,46.04c-.07-.07-.18-.14-.32-.2-.14-.06-.34-.09-.6-.09s-.71.04-1.34.13c0,1.04.02,1.74.05,2.11.78,0,1.33-.05,1.64-.16s.52-.23.63-.38c.11-.15.17-.31.17-.48s0-.29,0-.36c0-.07-.02-.17-.06-.29-.04-.12-.09-.22-.16-.29ZM71.36,43.92l.02,1.14s.13-.01.34-.04c.21-.03.39-.06.54-.09.67-.16,1.01-.54,1.01-1.15,0-.3-.09-.52-.27-.66-.18-.14-.41-.21-.69-.21-.36,0-.6.06-.73.19-.05.05-.1.1-.13.13-.03.04-.06.09-.07.17s-.02.14-.02.17,0,.1,0,.19c0,.09,0,.15,0,.16Z"/>
        <path class="cls-2" d="M76.17,48.54c-.03.17-.15.25-.35.25s-.31-.09-.31-.26c0-.39.19-1.19.58-2.4.17-.55.37-1.01.58-1.38.21-.37.42-.55.62-.55.11,0,.2.06.28.19.08.13.22.42.43.87.21.45.39.93.53,1.43.14.5.29,1.12.46,1.84,0,.09-.03.16-.09.21s-.13.08-.22.08c-.21,0-.35-.09-.4-.28l-.35-1.37c-.59,0-1.06-.05-1.41-.14-.2.73-.31,1.24-.34,1.52ZM77.25,45.12c-.22.37-.4.79-.54,1.25.29.08.64.12,1.04.12-.13-.46-.29-.92-.5-1.37Z"/>
        <path class="cls-2" d="M80.08,48.81c-.19,0-.28-.08-.28-.24l.04-4.07c0-.09.03-.17.1-.23.07-.06.15-.08.24-.08s.18.02.25.07c.07.05.11.12.12.23,0,.11,0,.36,0,.74,0,1.78-.01,2.86-.04,3.25,0,.09-.06.16-.15.23-.1.07-.19.1-.29.1Z"/>
        <path class="cls-2" d="M83.37,44.8l-.02,2.37c0,.49,0,.93.02,1.3,0,.1-.03.18-.12.25-.09.06-.18.09-.27.09-.17,0-.26-.09-.26-.28-.02-.73-.03-1.42-.03-2.08s.02-1.2.06-1.62c-.4.03-.81.05-1.22.05-.21,0-.31-.09-.31-.26,0-.08.04-.16.11-.24s.16-.12.25-.13l3.12-.1c.18.04.27.13.27.26,0,.27-.31.41-.94.41l-.66-.02Z"/>
        <path class="cls-2" d="M70.57,57.79c-.05-.69-.07-1.62-.07-2.79s.02-1.93.05-2.28c.03-.21.18-.35.44-.42.26-.07.6-.11,1.03-.11.63,0,1.15.14,1.58.41.43.27.65.67.65,1.2,0,.43-.06.79-.18,1.08-.12.29-.27.5-.45.64-.29.23-.73.34-1.3.34-.25,0-.57-.03-.97-.1.03,1.33.05,2.17.04,2.52,0,.35-.12.52-.35.52-.15,0-.24-.03-.28-.08-.04-.05-.07-.09-.08-.12-.01-.02-.03-.06-.04-.1-.01-.05-.02-.08-.03-.12,0-.03-.01-.08-.01-.13,0-.06,0-.11-.02-.14,0-.1-.01-.21-.01-.33ZM73.42,53.82c0-.27-.15-.48-.44-.64s-.61-.24-.94-.24-.57.03-.7.09c-.03.39-.04.75-.04,1.08s.01.63.04.89c.18.02.3.04.37.05.17.02.32.03.44.03s.21,0,.25,0c.04,0,.13-.01.25-.03.12-.02.21-.04.27-.08s.12-.09.2-.16c.08-.07.14-.14.17-.23.09-.24.13-.5.13-.77Z"/>
        <path class="cls-2" d="M75.96,58.44c0,.1-.05.19-.14.26-.09.07-.2.11-.31.11-.15,0-.22-.07-.22-.2-.03-.31-.04-1.56-.04-3.73,0-.21.13-.38.39-.5.26-.12.6-.18,1.03-.18s.81.11,1.13.32c.32.21.49.47.49.77,0,.15-.06.31-.19.49-.13.18-.26.32-.4.42-.14.1-.35.23-.62.38-.27.15-.43.23-.49.24.42.27.79.56,1.12.87s.49.56.49.74-.08.3-.24.35c-.05.01-.11.02-.18.02s-.17-.07-.28-.21c-.11-.14-.33-.35-.64-.62-.31-.27-.62-.51-.93-.73.01.53.03.93.04,1.19h0ZM75.92,56.35c.22,0,.55-.11.99-.33s.67-.42.69-.6c0-.18-.1-.32-.3-.41-.2-.09-.41-.13-.63-.13-.25,0-.5.03-.74.09,0,.32-.01.78-.01,1.38Z"/>
        <path class="cls-2" d="M81.18,54.24c.49,0,.89.19,1.19.57s.46.9.46,1.56-.17,1.23-.5,1.71c-.33.48-.76.72-1.27.72-.56,0-1.02-.24-1.37-.72-.35-.48-.53-1.07-.53-1.76s.18-1.21.55-1.56.86-.52,1.47-.52ZM82.11,56.48c0-.53-.08-.92-.23-1.17s-.42-.38-.81-.38-.69.12-.9.35c-.21.24-.32.57-.32,1.01s.11.84.34,1.21.54.56.94.56c.23,0,.42-.1.58-.29.27-.33.4-.77.4-1.3Z"/>
        <path class="cls-2" d="M85.71,54.8l-.02,2.37c0,.49,0,.93.02,1.3,0,.1-.03.18-.12.25-.09.06-.18.09-.27.09-.17,0-.26-.09-.26-.28-.02-.73-.03-1.42-.03-2.08s.02-1.2.06-1.62c-.4.03-.81.05-1.22.05-.21,0-.31-.09-.31-.26,0-.08.04-.16.11-.24s.16-.12.25-.13l3.12-.1c.18.04.27.13.27.26,0,.27-.31.41-.94.41l-.66-.02Z"/>
        <path class="cls-2" d="M88.82,56.56l.02,1.31c0,.17,0,.27,0,.28l1.73-.03c.19.02.29.1.29.25,0,.28-.13.42-.39.42l-1.96.02c-.12,0-.21-.04-.27-.12s-.09-.17-.1-.26c0-.09,0-.2,0-.31v-1.66c-.09-.05-.13-.12-.13-.21s.04-.18.11-.25c-.02-.52-.03-.99-.03-1.42,0-.25.15-.37.45-.38h.28l1.75.03h0c.21.03.32.13.32.3,0,.13-.04.22-.12.27-.17.09-.59.14-1.25.14-.25,0-.49,0-.74-.03,0,.6,0,.94.01,1.01.26,0,.77.01,1.53.01.21.03.31.12.31.28,0,.08-.03.16-.1.23s-.14.12-.21.12-.24.01-.49.01-.58,0-1,0Z"/>
        <path class="cls-2" d="M92.02,58.81c-.19,0-.28-.08-.28-.24l.04-4.07c0-.09.03-.17.1-.23.07-.06.15-.08.24-.08s.18.02.25.07c.07.05.11.12.12.23,0,.11,0,.36,0,.74,0,1.78-.01,2.86-.04,3.25,0,.09-.06.16-.15.23-.1.07-.19.1-.29.1Z"/>
        <path class="cls-2" d="M94.06,55.69l-.11,2.43c0,.21-.01.36-.02.43-.03.18-.14.27-.35.27-.08,0-.15-.03-.21-.08-.06-.06-.1-.13-.1-.21.05-1.73.08-2.67.08-2.8v-.46c0-.17.02-.32.05-.45.05-.18.17-.27.36-.27.09,0,.21.06.35.19s.34.36.61.7c.63.78,1.11,1.52,1.44,2.21-.01-.95-.04-1.67-.07-2.17s-.05-.77-.05-.82v-.08c.05-.25.18-.38.41-.38.09,0,.17.04.24.12.07.08.11.17.11.29l.05,3.72c0,.35-.14.52-.42.52-.17,0-.3-.06-.39-.17-.09-.12-.16-.21-.2-.28s-.1-.17-.18-.32c-.51-.97-1.04-1.76-1.59-2.38Z"/>
      </g>
      <ellipse class="cls-24" cx="11.53" cy="92.77" rx="6.85" ry="6.14" transform="translate(-62.22 35.33) rotate(-45)"/>
      <ellipse class="cls-34" cx="19.02" cy="84.26" rx="6.14" ry="6.85" transform="translate(-54.01 38.13) rotate(-45)"/>
      <ellipse class="cls-24" cx="49.17" cy="87.63" rx="6.85" ry="6.14" transform="translate(-13.44 9.04) rotate(-9.25)"/>
      <ellipse class="cls-34" cx="60.22" cy="85.1" rx="6.14" ry="6.85" transform="translate(-12.89 10.78) rotate(-9.25)"/>
      <ellipse class="cls-30" cx="31.61" cy="46.81" rx="6.14" ry="6.85" transform="translate(-.17 .11) rotate(-.2)"/>
      <ellipse class="cls-34" cx="42.67" cy="50.02" rx="6.14" ry="6.85" transform="translate(-.18 .15) rotate(-.2)"/>
      <rect class="cls-28" x="18.89" y="64.51" width="2.43" height="8.46" rx="1.22" ry="1.22" transform="translate(88.97 88.39) rotate(122.23)"/>
      <path class="cls-28" d="M13.05,69.83l-5.46-12.26c-.27-.61,0-1.33.62-1.61s1.33,0,1.61.62l5.36,12.03,6.82,4.3c.57.36.74,1.11.38,1.68-.13.21-.32.37-.53.46-.36.16-.79.14-1.14-.08l-6.87-4.33c-.12-.07-.22-.16-.3-.27-.2-.12-.37-.31-.48-.54Z"/>
      <rect class="cls-28" x="5.09" y="70.54" width="2.43" height="8.46" rx="1.22" ry="1.22" transform="translate(12.74 .01) rotate(9.74)"/>
      <path class="cls-28" d="M11.83,70.25l-5.46-12.26c-.27-.61-.99-.89-1.61-.62s-.89.99-.62,1.61l5.36,12.03-1.37,7.95c-.11.66.33,1.29.99,1.4.25.04.49,0,.7-.09.36-.16.63-.49.7-.91l1.37-8.01c.02-.14.02-.27,0-.4.04-.23.02-.48-.08-.72Z"/>
      <rect class="cls-28" x="53.53" y="35.12" width="2.43" height="8.46" rx="1.22" ry="1.22" transform="translate(116.84 65.63) rotate(167.23)"/>
      <path class="cls-28" d="M48.99,35.14l4.81-12.53c.24-.63.94-.94,1.57-.7s.94.94.7,1.57l-4.72,12.3,1.78,7.87c.15.66-.26,1.31-.92,1.46-.24.06-.49.03-.7-.05-.37-.14-.66-.46-.75-.87l-1.8-7.93c-.03-.13-.04-.27-.02-.4-.06-.23-.04-.48.05-.72Z"/>
      <rect class="cls-28" x="39.51" y="29.63" width="2.43" height="8.46" rx="1.22" ry="1.22" transform="translate(44.86 -18.94) rotate(54.74)"/>
      <path class="cls-28" d="M47.83,34.58l4.81-12.53c.24-.63-.07-1.33-.7-1.57s-1.33.07-1.57.7l-4.72,12.3-6.59,4.66c-.55.39-.68,1.15-.29,1.7.14.2.34.35.56.43.37.14.79.1,1.14-.14l6.64-4.69c.11-.08.21-.17.28-.28.2-.13.36-.33.45-.57Z"/>
      <rect class="cls-28" x="66.74" y="67.68" width="2.43" height="8.46" rx="1.22" ry="1.22" transform="translate(164.15 95.08) rotate(146.93)"/>
      <path class="cls-28" d="M61.1,69.95l.16-13.42c0-.67.56-1.21,1.23-1.2s1.21.56,1.2,1.23l-.16,13.17,4.4,6.76c.37.56.21,1.32-.36,1.68-.21.14-.45.2-.68.2-.39,0-.78-.2-1.01-.55l-4.43-6.81c-.08-.12-.13-.24-.16-.37-.13-.2-.21-.44-.21-.69Z"/>
      <rect class="cls-28" x="51.69" y="67.39" width="2.43" height="8.46" rx="1.22" ry="1.22" transform="translate(49.77 -17.37) rotate(34.44)"/>
      <path class="cls-28" d="M59.81,69.83l.16-13.42c0-.67-.53-1.22-1.2-1.23s-1.22.53-1.23,1.2l-.16,13.17-4.56,6.65c-.38.55-.24,1.31.32,1.69.21.14.44.21.67.21.39,0,.78-.18,1.02-.53l4.6-6.7c.08-.11.13-.24.17-.36.14-.19.22-.43.22-.69Z"/>
      <ellipse class="cls-25" cx="81.59" cy="85.95" rx="6.14" ry="6.85" transform="translate(-31.66 120.88) rotate(-63.63)"/>
      <ellipse class="cls-35" cx="15.29" cy="36.82" rx="6.14" ry="6.85" transform="translate(-24.49 34.17) rotate(-63.63)"/>
      <ellipse class="cls-35" cx="37.91" cy="66.64" rx="6.85" ry="6.14" transform="translate(-17.94 14.11) rotate(-17.12)"/>
    </g>
    <g>
      <g>
        <circle class="cls-5" cx="282.16" cy="51.01" r="32.56"/>
        <circle class="cls-39" cx="282.16" cy="51.01" r="32.56" transform="translate(151.57 306.29) rotate(-73.15)"/>
      </g>
      <path class="cls-4" d="M292.28,53.55c1.9,1.58,2.19,4.71,1.21,6.89-.49,1.09-1.51,2.07-2.77,2.08-.96,0-1.82-.56-2.6-1.06-1.77-1.16-3.58-2.55-5.83-2.02s-3.65,2.84-4.59,4.82c-.59,1.25,1.27,2.35,1.87,1.09.68-1.43,1.66-3.62,3.45-3.86,1.65-.23,3.18,1.33,4.47,2.12,1.72,1.05,3.68,1.47,5.53.45,2.05-1.13,2.96-3.42,3.12-5.66s-.49-4.85-2.33-6.37c-1.06-.88-2.6.64-1.53,1.53h0Z"/>
      <ellipse class="cls-24" cx="273.99" cy="7.07" rx="6.85" ry="6.14" transform="translate(75.25 195.81) rotate(-45)"/>
      <ellipse class="cls-34" cx="310.31" cy="16.4" rx="6.14" ry="6.85" transform="translate(162.27 289.61) rotate(-64.58)"/>
      <ellipse class="cls-30" cx="265.15" cy="63.76" rx="6.14" ry="6.85" transform="translate(-.22 .94) rotate(-.2)"/>
      <ellipse class="cls-27" cx="276.21" cy="66.98" rx="6.14" ry="6.85" transform="translate(-.23 .98) rotate(-.2)"/>
      <ellipse class="cls-25" cx="318.36" cy="79.89" rx="6.14" ry="6.85" transform="translate(105.38 329.64) rotate(-63.63)"/>
      <ellipse class="cls-35" cx="248.84" cy="53.78" rx="6.14" ry="6.85" transform="translate(90.13 252.84) rotate(-63.63)"/>
      <ellipse class="cls-35" cx="271.46" cy="83.59" rx="6.85" ry="6.14" transform="translate(-12.58 83.62) rotate(-17.12)"/>
      <g>
        <path class="cls-38" d="M286.44,41.3h-8.43c-1.2,0-2.33.57-3.04,1.54l-3.35,4.54c-.98,1.33-.98,3.14,0,4.47l3.35,4.54c.71.97,1.84,1.54,3.04,1.54h8.43c1.2,0,2.33-.57,3.04-1.54l3.35-4.54c.98-1.33.98-3.14,0-4.47l-3.35-4.54c-.71-.97-1.84-1.54-3.04-1.54Z"/>
        <g>
          <path class="cls-13" d="M276.17,49.43l-.9-.02c-.05-.2-.08-1.08-.09-2.65v-.5c0-.4.04-.7.11-.91.07-.21.23-.37.47-.5.12-.06.29-.09.51-.09s.38.01.5.04c.31.07.53.19.64.36.11.18.17.42.17.71,0,.42-.11.72-.33.92.11.01.22.07.34.17.11.1.2.2.27.3.12.19.18.44.18.76,0,.5-.15.86-.46,1.08-.31.21-.78.32-1.41.32ZM277.31,47.51s-.12-.09-.22-.14c-.1-.04-.24-.06-.42-.06s-.5.03-.94.09c0,.73.01,1.22.04,1.48.55,0,.93-.04,1.15-.11s.37-.16.44-.27c.08-.11.12-.22.12-.34s0-.2,0-.25c0-.05-.02-.12-.04-.2s-.06-.15-.11-.2ZM275.74,46.02v.8s.1-.01.25-.03c.15-.02.28-.04.38-.07.47-.11.71-.38.71-.81,0-.21-.06-.36-.19-.46-.12-.1-.29-.15-.49-.15-.25,0-.42.04-.51.13-.04.04-.07.07-.09.09-.02.03-.04.07-.05.12,0,.06-.01.1-.02.12,0,.02,0,.07,0,.13,0,.07,0,.1,0,.11Z"/>
          <path class="cls-13" d="M278.76,49.45c-.13,0-.2-.06-.2-.17l.03-2.85c0-.07.02-.12.07-.16.05-.04.1-.06.17-.06s.13.02.17.05c.05.03.08.09.08.16s0,.25,0,.51c0,1.25,0,2-.03,2.27,0,.06-.04.12-.11.16-.07.05-.13.07-.2.07Z"/>
          <path class="cls-13" d="M281.04,46.25c.34,0,.62.13.84.4.21.27.32.63.32,1.09s-.12.86-.35,1.2-.53.5-.89.5c-.39,0-.71-.17-.96-.5-.25-.34-.37-.75-.37-1.23s.13-.85.38-1.09.6-.36,1.03-.36ZM281.69,47.82c0-.37-.05-.65-.16-.82-.11-.18-.3-.26-.57-.26s-.48.08-.63.25c-.15.17-.22.4-.22.71s.08.59.24.85c.16.26.38.39.66.39.16,0,.29-.07.41-.2.19-.23.28-.54.28-.91Z"/>
          <path class="cls-13" d="M284.21,46.64v1.66c-.01.35,0,.65,0,.91,0,.07-.02.13-.09.17-.06.04-.13.07-.19.07-.12,0-.18-.07-.18-.2-.01-.51-.02-.99-.02-1.45s.01-.84.04-1.14c-.28.02-.57.04-.85.04-.14,0-.22-.06-.22-.18,0-.06.03-.11.08-.17.05-.06.11-.09.18-.09l2.18-.07c.13.03.19.09.19.18,0,.19-.22.29-.66.29h-.46Z"/>
          <path class="cls-13" d="M285.97,49.45c-.13,0-.2-.06-.2-.17l.03-2.85c0-.07.02-.12.07-.16.05-.04.1-.06.17-.06s.13.02.17.05c.05.03.08.09.08.16s0,.25,0,.51c0,1.25,0,2-.03,2.27,0,.06-.04.12-.11.16-.07.05-.13.07-.2.07Z"/>
          <path class="cls-13" d="M287.4,47.26l-.08,1.7c0,.15,0,.25-.01.3-.02.13-.1.19-.25.19-.06,0-.11-.02-.15-.06-.04-.04-.07-.09-.07-.15.04-1.21.06-1.87.06-1.96v-.32c0-.12.01-.22.04-.31.03-.13.12-.19.25-.19.07,0,.15.04.25.13.1.09.24.25.43.49.44.55.78,1.06,1.01,1.55,0-.66-.03-1.17-.05-1.52-.02-.35-.04-.54-.04-.57v-.06c.03-.18.13-.27.29-.27.06,0,.12.03.17.08.05.05.08.12.08.2l.04,2.6c0,.24-.1.36-.29.36-.12,0-.21-.04-.27-.12-.07-.08-.11-.15-.14-.19s-.07-.12-.13-.22c-.36-.68-.73-1.23-1.11-1.67Z"/>
          <path class="cls-13" d="M274.85,52.47v-.55s.07-2.93.07-2.93c0-.06.03-.1.09-.13.06-.03.14-.05.23-.05.22,0,.34.08.34.24,0,.05-.03.44-.08,1.18-.05.73-.08,1.17-.08,1.32v.74c0,.35.02.54.07.57.07.02.15.04.25.04l1.01-.07c.22,0,.33.08.33.24,0,.13-.06.22-.18.28s-.24.09-.35.1c-.12,0-.26.01-.43.01-.73,0-1.13-.02-1.19-.07-.03-.03-.05-.13-.06-.32,0-.18,0-.31-.01-.39,0-.08,0-.14,0-.2Z"/>
          <path class="cls-13" d="M277.69,53.45c-.13,0-.2-.06-.2-.17l.03-2.85c0-.07.02-.12.07-.16.05-.04.1-.06.17-.06s.13.02.17.05c.05.03.08.09.08.16s0,.25,0,.51c0,1.25,0,2-.03,2.27,0,.06-.04.12-.11.16-.07.05-.13.07-.2.07Z"/>
          <path class="cls-13" d="M280.15,50.22c.2,0,.38.04.55.13s.25.19.25.31c0,.07-.03.12-.08.17-.05.05-.11.07-.18.07s-.15-.03-.24-.08-.21-.08-.35-.08c-.3,0-.54.12-.73.37-.19.25-.28.52-.28.82s.07.55.2.75c.13.21.28.31.46.31s.31-.05.42-.14.16-.21.16-.35c0-.24-.04-.36-.13-.36-.2,0-.33-.01-.41-.04-.07-.03-.11-.08-.11-.17,0-.17.07-.26.22-.27.07,0,.15,0,.25,0s.21.02.32.06c.15.06.24.14.27.27.07.29.11.56.11.81v.16c0,.08,0,.14,0,.19,0,.05,0,.1-.02.17-.01.06-.03.11-.06.13-.03.02-.08.04-.15.04s-.13-.01-.17-.04-.06-.08-.08-.17c-.22.14-.44.22-.66.22s-.42-.08-.6-.24c-.18-.16-.31-.35-.4-.58-.09-.23-.13-.47-.13-.7,0-.52.15-.94.45-1.25s.67-.48,1.13-.48Z"/>
          <path class="cls-13" d="M282.02,53.26c-.02.12-.1.18-.25.18s-.22-.06-.22-.18c0-.28.14-.83.41-1.68.12-.39.26-.71.41-.97s.29-.38.43-.38c.08,0,.14.04.2.13.06.09.16.29.3.61.15.31.27.65.37,1s.21.78.32,1.29c0,.06-.02.11-.06.14s-.09.05-.15.05c-.15,0-.24-.07-.28-.2l-.25-.96c-.41,0-.74-.03-.99-.1-.14.51-.22.87-.24,1.06ZM282.78,50.86c-.15.26-.28.55-.38.88.21.06.45.08.73.08-.09-.32-.21-.64-.35-.96Z"/>
          <path class="cls-13" d="M284.62,51c0-.22.11-.41.34-.56.22-.16.5-.23.82-.23s.57.04.74.13.25.19.25.32c0,.06-.02.11-.06.15-.04.04-.09.06-.14.06s-.17-.04-.33-.11c-.17-.07-.32-.11-.45-.11s-.27.04-.42.11c-.15.07-.22.16-.22.27s.09.2.27.29c.18.08.39.16.63.22.24.06.4.12.49.18.08.06.14.1.17.14s.07.1.11.2.06.23.06.39c0,.34-.11.59-.33.76-.22.17-.49.25-.79.25s-.57-.05-.79-.15c-.22-.1-.33-.22-.33-.36,0-.08.03-.14.09-.2.06-.06.13-.07.2-.04.44.17.71.26.83.26.2,0,.35-.05.46-.15s.16-.23.16-.38-.06-.27-.18-.35c-.12-.08-.27-.14-.44-.18-.17-.04-.34-.08-.51-.13-.17-.05-.32-.13-.44-.25-.12-.12-.18-.28-.18-.5Z"/>
          <path class="cls-13" d="M287.98,51.87v.92c.01.12.01.19,0,.2l1.21-.02c.13.01.2.07.2.18,0,.2-.09.29-.27.29h-1.37c-.08.01-.15-.02-.19-.07-.04-.06-.06-.12-.07-.19,0-.06,0-.14,0-.22v-1.16c-.06-.03-.09-.08-.09-.15s.03-.12.08-.17c-.01-.36-.02-.7-.02-.99,0-.17.1-.26.31-.27h.2l1.23.02h0c.15.02.22.09.22.21,0,.09-.03.16-.08.19-.12.07-.41.1-.88.1-.17,0-.35,0-.52-.02,0,.42,0,.66,0,.71.18,0,.54,0,1.07,0,.14.02.22.08.22.2,0,.06-.02.11-.07.16s-.1.08-.15.09c-.05,0-.17,0-.34,0s-.41,0-.7,0Z"/>
        </g>
      </g>
      <path class="cls-36" d="M290.41,39.24c1.16.81,1.42,2.2.63,3.34-.78,1.13-2.39,1.43-3.51.64-1.04-.74-1.34-2.38-.62-3.42.79-1.14,2.33-1.39,3.5-.56Z"/>
      <path class="cls-36" d="M255.5,47.25c1.16.81,1.42,2.2.63,3.34-.78,1.13-2.39,1.43-3.51.64-1.04-.74-1.34-2.38-.62-3.42.79-1.14,2.33-1.39,3.5-.56Z"/>
      <path class="cls-36" d="M263.01,55.75c1.16.81,1.42,2.2.63,3.34-.78,1.13-2.39,1.43-3.51.64-1.04-.74-1.34-2.38-.62-3.42.79-1.14,2.33-1.39,3.5-.56Z"/>
      <path class="cls-36" d="M283.69,68.39c1.16.81,1.42,2.2.63,3.34-.78,1.13-2.39,1.43-3.51.64-1.04-.74-1.34-2.38-.62-3.42.79-1.14,2.33-1.39,3.5-.56Z"/>
      <path class="cls-36" d="M278.72,77.2c1.16.81,1.42,2.2.63,3.34-.78,1.13-2.39,1.43-3.51.64-1.04-.74-1.34-2.38-.62-3.42.79-1.14,2.33-1.39,3.5-.56Z"/>
      <line class="cls-32" x1="289.03" y1="33.62" x2="289.03" y2="39.03"/>
      <text class="cls-41" transform="translate(278.37 32.56)"><tspan x="0" y="0">Biotin</tspan></text>
      <g>
        <path class="cls-15" d="M224.43,18.92v-.78s.1-4.18.1-4.18c0-.08.04-.14.13-.19.09-.05.2-.07.33-.07.32,0,.48.11.48.34,0,.07-.04.63-.12,1.68s-.11,1.67-.11,1.88v1.06c0,.5.03.77.1.82.1.03.22.05.35.05l1.44-.1c.31,0,.47.11.47.34,0,.18-.08.31-.25.4-.17.08-.34.13-.5.14-.17,0-.37.01-.61.01-1.05,0-1.61-.03-1.7-.1-.05-.04-.07-.19-.08-.46,0-.26-.01-.45-.02-.55,0-.11,0-.2,0-.29Z"/>
        <path class="cls-15" d="M228.98,20.04c-.03.17-.15.25-.35.25s-.31-.09-.31-.26c0-.39.19-1.19.58-2.4.17-.55.37-1.01.58-1.38.21-.37.42-.55.62-.55.11,0,.2.06.28.19.08.13.22.42.43.87.21.45.39.93.53,1.43.14.5.29,1.12.46,1.84,0,.09-.03.16-.09.21s-.13.08-.22.08c-.21,0-.35-.09-.4-.28l-.35-1.37c-.59,0-1.06-.05-1.41-.14-.2.73-.31,1.24-.34,1.52ZM230.06,16.62c-.22.37-.4.79-.54,1.25.29.08.64.12,1.04.12-.13-.46-.29-.92-.5-1.37Z"/>
        <path class="cls-15" d="M232.9,16.05c.15-.25.45-.37.9-.37s.83.11,1.11.33c.29.22.44.5.44.85s-.1.64-.31.85c.23.05.43.2.58.43s.23.49.23.75c0,.43-.15.79-.45,1.08-.21.23-1.11.34-2.68.34,0-.03,0-.18,0-.43-.02-.76-.03-1.61-.03-2.56,0-.6.07-1.02.22-1.27ZM234.4,18.19c-.31,0-.65.03-1.03.08,0,.14,0,.33,0,.57s.02.52.05.86h.29c.14,0,.35-.02.62-.06.61-.1.91-.35.91-.75,0-.47-.28-.7-.83-.7ZM233.38,16.81v.85c.37,0,.69-.06.96-.18s.4-.33.4-.62c0-.16-.08-.29-.24-.39-.16-.1-.35-.16-.57-.16s-.37.04-.44.12-.11.21-.11.38Z"/>
        <path class="cls-15" d="M237.49,18.06l.02,1.31c0,.17,0,.27,0,.28l1.73-.03c.19.02.29.1.29.25,0,.28-.13.42-.39.42l-1.96.02c-.12,0-.21-.04-.27-.12s-.09-.17-.1-.26c0-.09,0-.2,0-.31v-1.66c-.09-.05-.13-.12-.13-.21s.04-.18.11-.25c-.02-.52-.03-.99-.03-1.42,0-.25.15-.37.45-.38h.28l1.75.03h0c.21.03.32.13.32.3,0,.13-.04.22-.12.27-.17.09-.59.14-1.25.14-.25,0-.49,0-.74-.03,0,.6,0,.94.01,1.01.26,0,.77.01,1.53.01.21.03.31.12.31.28,0,.08-.03.16-.1.23s-.14.12-.21.12-.24.01-.49.01-.58,0-1,0Z"/>
        <path class="cls-15" d="M241.35,20.33l-.83-.02c-.17,0-.26-.05-.28-.15-.04-.28-.06-.72-.06-1.31l.07-2.9c0-.17.13-.25.38-.25.13,0,.23.03.31.09.08.06.12.14.12.25-.01.28-.05.67-.1,1.16-.08.65-.12,1.12-.12,1.42s.01.65.03,1.07l1.22-.07c0-.17,0-.42,0-.76l.07-2.9c0-.17.13-.25.38-.25.13,0,.23.03.31.09.08.06.12.14.12.25-.01.28-.05.67-.1,1.16-.08.65-.12,1.12-.12,1.42s0,.65.03,1.07l1.48-.09c.22,0,.33.11.33.34,0,.19-.07.29-.21.32-.3.05-.64.07-1.01.07h-.94c-.08,0-.14-.02-.19-.04-.27.03-.57.05-.88.05Z"/>
        <path class="cls-15" d="M245,20.31c-.19,0-.28-.08-.28-.24l.04-4.07c0-.09.03-.17.1-.23.07-.06.15-.08.24-.08s.18.02.25.07c.07.05.11.12.12.23,0,.11,0,.36,0,.74,0,1.78-.01,2.86-.04,3.25,0,.09-.06.16-.15.23-.1.07-.19.1-.29.1Z"/>
        <path class="cls-15" d="M247.04,17.19l-.11,2.43c0,.21-.01.36-.02.43-.03.18-.14.27-.35.27-.08,0-.15-.03-.21-.08-.06-.06-.1-.13-.1-.21.05-1.73.08-2.67.08-2.8v-.46c0-.17.02-.32.05-.45.05-.18.17-.27.36-.27.09,0,.21.06.35.19s.34.36.61.7c.63.78,1.11,1.52,1.44,2.21-.01-.95-.04-1.67-.07-2.17s-.05-.77-.05-.82v-.08c.05-.25.18-.38.41-.38.09,0,.17.04.24.12.07.08.11.17.11.29l.05,3.72c0,.35-.14.52-.42.52-.17,0-.3-.06-.39-.17-.09-.12-.16-.21-.2-.28s-.1-.17-.18-.32c-.51-.97-1.04-1.76-1.59-2.38Z"/>
        <path class="cls-15" d="M252.91,15.7c.28,0,.54.06.78.18.24.12.36.27.36.44,0,.09-.04.17-.11.24s-.16.1-.26.1-.21-.04-.34-.11c-.13-.08-.29-.12-.5-.12-.43,0-.77.18-1.04.53s-.4.74-.4,1.17.09.78.28,1.07c.19.29.4.44.65.44s.45-.07.6-.2.23-.29.23-.5c0-.35-.06-.52-.19-.52-.28,0-.47-.02-.58-.05-.11-.04-.16-.12-.16-.25,0-.24.11-.37.32-.39.09,0,.21,0,.36,0s.3.03.45.08c.21.08.34.21.39.38.1.41.15.8.15,1.16v.23c0,.11,0,.21,0,.28,0,.07-.01.15-.03.24s-.05.15-.09.18c-.04.03-.12.05-.22.05s-.18-.02-.23-.06c-.05-.04-.09-.12-.11-.24-.31.21-.63.31-.94.31s-.6-.11-.86-.33c-.26-.22-.45-.5-.57-.83-.13-.33-.19-.67-.19-1,0-.74.21-1.34.64-1.79.43-.45.96-.68,1.61-.68Z"/>
        <path class="cls-15" d="M228.69,29.2c-.11.1-.22.15-.34.15s-.21-.08-.25-.24c-.02-.88-.03-1.76-.03-2.63l-.03-2.52c0-.51.22-.85.67-1.04.36-.17.79-.25,1.28-.25.25,0,.53.06.81.18.29.12.55.3.78.54s.34.49.34.77-.13.57-.38.89-.57.6-.94.84-.74.42-1.09.54c.62.43,1.16.9,1.62,1.4.46.5.69.88.69,1.15,0,.09-.04.17-.13.25-.09.08-.19.12-.31.12s-.23-.05-.31-.16c-.15-.35-.42-.72-.83-1.12-.41-.39-.89-.76-1.44-1.11l.06,1.92c0,.12-.05.23-.16.32ZM230.31,25.32c.56-.35.84-.67.84-.96s-.14-.5-.42-.65c-.28-.15-.61-.23-.99-.23s-.69.05-.92.14c0,.34-.01,1.09-.01,2.26.45-.02.95-.21,1.5-.56Z"/>
        <path class="cls-15" d="M233.3,29.04c-.03.17-.15.25-.35.25s-.31-.09-.31-.26c0-.39.19-1.19.58-2.4.17-.55.37-1.01.58-1.38.21-.37.42-.55.62-.55.11,0,.2.06.28.19.08.13.22.42.43.87.21.45.39.93.53,1.43.14.5.29,1.12.46,1.84,0,.09-.03.16-.09.21s-.13.08-.22.08c-.21,0-.35-.09-.4-.28l-.35-1.37c-.59,0-1.06-.05-1.41-.14-.2.73-.31,1.24-.34,1.52ZM234.38,25.62c-.22.37-.4.79-.54,1.25.29.08.64.12,1.04.12-.13-.46-.29-.92-.5-1.37Z"/>
        <path class="cls-15" d="M237.25,29.05c-.09-.07-.13-.13-.13-.21s.02-.13.07-.2c-.07-.51-.11-1.11-.14-1.78-.03-.67-.04-1.05-.04-1.14s0-.19,0-.29.02-.22.04-.34c.05-.25.2-.38.46-.38.69,0,1.35.31,1.98.93s.96,1.29.96,2.02c0,.55-.17.96-.51,1.24-.34.28-.8.42-1.39.42-.11,0-.27-.01-.48-.04,0,.11-.04.2-.13.28-.09.08-.19.12-.3.12-.17,0-.28-.09-.31-.26l-.09-.36ZM237.76,25.45c0,.07-.01.2-.01.38s.02.58.06,1.2c.04.62.08,1.14.15,1.58.05.01.26.02.62.02.78,0,1.17-.22,1.17-.66,0-.56-.18-1.06-.54-1.5-.36-.44-.84-.78-1.44-1.01Z"/>
        <path class="cls-15" d="M241.61,29.31c-.19,0-.28-.08-.28-.24l.04-4.07c0-.09.03-.17.1-.23.07-.06.15-.08.24-.08s.18.02.25.07c.07.05.11.12.12.23,0,.11,0,.36,0,.74,0,1.78-.01,2.86-.04,3.25,0,.09-.06.16-.15.23-.1.07-.19.1-.29.1Z"/>
        <path class="cls-15" d="M245.75,25.1s0-.07,0-.13.04-.12.12-.19c.08-.07.17-.1.25-.1s.17.03.23.08.11.11.12.18c.07.67.1,1.2.1,1.59s0,.69-.03.9c-.05.65-.21,1.12-.48,1.42-.28.3-.7.46-1.28.46-.42,0-.77-.12-1.05-.37-.28-.24-.48-.56-.59-.96-.17-.59-.26-1.25-.26-1.98,0-.31.02-.63.05-.95,0-.09.06-.17.15-.23.1-.06.19-.09.27-.09s.15.03.21.08c.05.05.08.12.07.21-.03.35-.05.66-.05.94s0,.52.02.75c.04.53.16.99.37,1.36.21.38.48.57.81.57.73,0,1.09-.62,1.09-1.86,0-.74-.04-1.3-.12-1.68Z"/>
        <path class="cls-15" d="M247.4,25.82c0-.31.16-.58.48-.8.32-.22.71-.33,1.18-.33s.81.06,1.05.18c.24.12.36.27.36.46,0,.09-.03.16-.09.21s-.12.08-.2.08-.24-.05-.48-.16c-.24-.11-.45-.16-.64-.16s-.39.05-.6.15c-.21.1-.31.23-.31.39s.13.29.38.41c.25.12.55.22.9.31.35.09.58.17.69.25.12.08.2.15.25.2s.1.15.15.29c.05.14.08.33.08.55,0,.49-.16.85-.48,1.08-.32.24-.69.36-1.13.36s-.81-.07-1.12-.21c-.31-.14-.47-.31-.47-.52,0-.11.04-.2.13-.29.09-.08.19-.1.29-.06.63.25,1.02.37,1.18.37.29,0,.51-.07.66-.21.15-.14.23-.33.23-.55s-.09-.39-.26-.5c-.17-.12-.38-.2-.62-.25-.24-.05-.49-.11-.73-.18-.24-.07-.45-.18-.62-.35-.17-.17-.26-.41-.26-.72Z"/>
      </g>
    </g>
    <g>
      <path class="cls-31" d="M236.06,105.58c-.07-.97-.1-2.29-.1-3.94s.02-2.73.07-3.22c.05-.3.25-.5.62-.6.37-.1.85-.15,1.46-.15.89,0,1.63.19,2.24.57.61.38.91.95.91,1.69,0,.61-.08,1.12-.25,1.54-.17.41-.38.71-.64.91-.42.32-1.03.48-1.84.48-.35,0-.81-.05-1.37-.14.05,1.89.07,3.08.06,3.57,0,.49-.17.74-.5.74-.21,0-.34-.04-.4-.11s-.09-.13-.11-.16-.04-.08-.06-.15-.03-.12-.04-.16c0-.04-.02-.11-.02-.19s-.01-.15-.02-.2c0-.14-.01-.3-.01-.47ZM240.09,99.97c0-.38-.21-.68-.62-.91-.42-.22-.86-.33-1.33-.33s-.8.04-.99.13c-.04.56-.06,1.07-.06,1.54s.02.89.06,1.27c.25.03.43.05.52.07.25.03.46.04.63.04s.29,0,.35,0,.18-.02.35-.04c.17-.02.3-.06.38-.12.08-.06.17-.13.28-.23.11-.09.19-.2.24-.33.12-.34.18-.7.18-1.08Z"/>
      <path class="cls-31" d="M243.69,106.5c0,.14-.07.26-.2.37-.13.1-.28.16-.44.16-.21,0-.31-.09-.31-.28-.04-.44-.06-2.2-.06-5.28,0-.3.18-.54.54-.71s.85-.25,1.46-.25,1.14.15,1.6.45c.46.3.69.67.69,1.09,0,.21-.09.44-.27.69-.18.25-.37.46-.57.6s-.49.32-.87.53c-.38.21-.61.32-.69.34.59.38,1.12.79,1.59,1.23.46.44.69.79.69,1.05s-.11.42-.34.5c-.07.02-.15.03-.25.03s-.24-.1-.4-.3c-.16-.2-.46-.5-.91-.88-.44-.38-.88-.72-1.32-1.03.02.75.04,1.32.06,1.68h0ZM243.63,103.55c.31,0,.78-.15,1.4-.46s.95-.59.98-.86c0-.25-.14-.45-.42-.57s-.58-.19-.89-.19c-.36,0-.71.04-1.05.13,0,.45-.01,1.1-.01,1.95Z"/>
      <path class="cls-31" d="M251.08,100.56c.7,0,1.26.27,1.69.81.43.54.64,1.27.64,2.21s-.24,1.74-.71,2.42c-.47.68-1.07,1.02-1.8,1.02-.79,0-1.44-.34-1.94-1.02-.5-.68-.75-1.51-.75-2.49s.26-1.72.78-2.21c.52-.49,1.21-.74,2.08-.74ZM252.39,103.73c0-.75-.11-1.31-.33-1.66-.22-.35-.6-.53-1.15-.53s-.97.17-1.27.5c-.3.34-.45.81-.45,1.43s.16,1.19.48,1.72c.32.53.76.79,1.33.79.32,0,.59-.14.82-.41.38-.47.57-1.09.57-1.84Z"/>
      <path class="cls-31" d="M254.8,106.19c.57-.57,1.28-1.29,2.14-2.17l-.47-.67c-.2-.28-.42-.58-.65-.88-.08-.1-.16-.22-.26-.36-.1-.14-.18-.25-.23-.34-.06-.09-.11-.18-.16-.28-.05-.09-.09-.18-.11-.25-.02-.07-.04-.15-.04-.24s.06-.2.18-.32.26-.18.42-.18.36.16.59.48c.13.18.26.36.38.54.12.18.29.44.5.77s.42.64.61.91c.37-.39.68-.77.95-1.15.08-.12.21-.34.42-.66.2-.32.33-.51.39-.59.16-.22.35-.33.58-.33.11,0,.21.05.29.16s.12.19.12.27c0,.47-.7,1.51-2.11,3.1.18.25.43.56.75.93.32.36.57.66.75.9.18.24.27.42.27.56s-.06.26-.18.36c-.12.1-.25.16-.39.16s-.4-.21-.78-.62c-.38-.41-.78-.9-1.2-1.47-.6.65-1.28,1.34-2.03,2.05-.16.08-.3.13-.42.13s-.23-.05-.33-.14c-.1-.08-.16-.18-.16-.32s.06-.26.17-.38Z"/>
      <path class="cls-31" d="M262.04,107.03c-.26,0-.4-.11-.4-.34l.06-5.76c0-.13.05-.24.14-.32s.21-.12.35-.12.25.03.35.1c.1.07.15.18.16.33,0,.16.01.5.01,1.04,0,2.52-.02,4.05-.06,4.6,0,.12-.08.23-.22.33s-.27.14-.4.14Z"/>
      <path class="cls-31" d="M269.14,100.16c.27,0,.41.13.41.4.03,1.68.04,3.64.04,5.88,0,.15-.05.29-.16.41-.11.12-.28.18-.52.18s-.35-.16-.35-.47c0-1,0-1.74-.02-2.23-.01-.49-.02-1.01-.02-1.58-.35.42-.69.72-1.01.89-.33.17-.76.25-1.29.25s-.96-.15-1.26-.44c0,1.69,0,2.68-.03,2.97-.02.4-.24.59-.67.59-.25,0-.38-.14-.38-.41l.04-2.62v-2.79c0-.13.05-.26.16-.38.1-.12.22-.18.36-.18s.26.03.37.09.17.15.18.28c.02.48.16.91.42,1.29.26.38.55.57.88.57.95,0,1.61-.51,1.98-1.54.02-.05.06-.17.12-.37s.11-.33.15-.41c.04-.08.11-.16.22-.25s.24-.13.39-.13Z"/>
      <path class="cls-31" d="M270.95,107.03c-.26,0-.4-.11-.4-.34l.06-5.76c0-.13.05-.24.14-.32s.21-.12.35-.12.25.03.35.1c.1.07.15.18.16.33,0,.16.01.5.01,1.04,0,2.52-.02,4.05-.06,4.6,0,.12-.08.23-.22.33s-.27.14-.4.14Z"/>
      <path class="cls-31" d="M275.61,101.35l-.03,3.36c0,.7,0,1.31.03,1.84,0,.14-.05.26-.18.35-.13.09-.26.13-.39.13-.25,0-.37-.13-.37-.4-.03-1.03-.04-2.01-.04-2.94s.03-1.7.08-2.3c-.57.05-1.14.07-1.73.07-.29,0-.44-.12-.44-.37,0-.11.05-.23.16-.34s.23-.17.36-.18l4.42-.14c.25.06.38.18.38.37,0,.39-.44.58-1.33.58l-.93-.03Z"/>
      <path class="cls-31" d="M282.68,100.45c.25.03.37.14.37.34,0,.25-.13.57-.38.98-.08.13-.21.32-.37.56-.16.24-.27.41-.33.51-.06.1-.16.24-.3.43-.14.19-.25.36-.35.52v1.23c0,.85-.03,1.4-.08,1.64s-.23.37-.52.37c-.08,0-.15-.02-.18-.06-.1-.1-.16-.42-.16-.93v-1.53c.01-.25,0-.5-.03-.75-.39-.5-.92-1.36-1.59-2.58-.03-.05-.04-.1-.04-.17s.03-.14.08-.21c.13-.2.29-.3.48-.3.14,0,.49.48,1.03,1.43.25.42.43.73.55.91.16-.24.34-.51.54-.83.2-.32.34-.55.44-.7.28-.44.5-.71.65-.79.07-.05.13-.07.18-.07Z"/>
      <path class="cls-31" d="M287.32,105.06v-1.1s.14-5.92.14-5.92c0-.11.06-.2.18-.27.12-.07.28-.1.47-.1.45,0,.68.16.68.48,0,.1-.05.9-.16,2.38-.11,1.48-.16,2.37-.16,2.66v1.5c0,.71.05,1.09.14,1.16.14.05.31.07.5.07l2.04-.14c.44,0,.67.16.67.48,0,.25-.12.44-.36.56-.24.12-.48.18-.71.2-.24.01-.52.02-.86.02-1.48,0-2.28-.05-2.41-.14-.07-.06-.1-.27-.11-.64,0-.37-.02-.63-.02-.79,0-.15,0-.29,0-.41Z"/>
      <path class="cls-31" d="M293.76,106.65c-.04.24-.21.35-.5.35s-.45-.12-.45-.37c0-.56.27-1.69.82-3.4.25-.78.52-1.43.82-1.95.3-.52.59-.78.88-.78.15,0,.28.09.4.27s.32.59.62,1.22c.3.64.54,1.31.74,2.02s.42,1.58.65,2.61c0,.12-.04.22-.13.29-.08.07-.19.11-.31.11-.3,0-.49-.13-.57-.4l-.5-1.94c-.83,0-1.5-.07-2-.2-.28,1.04-.44,1.75-.48,2.15ZM295.29,101.8c-.31.53-.57,1.12-.76,1.77.42.11.91.17,1.47.17-.18-.65-.42-1.3-.71-1.94Z"/>
      <path class="cls-31" d="M299.31,101c.21-.35.63-.52,1.27-.52s1.17.15,1.58.46c.41.31.62.71.62,1.21s-.15.9-.44,1.2c.33.08.6.28.82.62.22.33.33.69.33,1.05,0,.6-.21,1.11-.64,1.53-.3.32-1.57.48-3.79.48,0-.05,0-.25-.01-.61-.03-1.08-.04-2.28-.04-3.62,0-.85.1-1.45.31-1.8ZM301.44,104.03c-.43,0-.92.04-1.46.11,0,.2-.01.46-.01.8s.02.74.07,1.22h.41c.2,0,.49-.03.88-.08.86-.14,1.29-.5,1.29-1.06,0-.66-.39-.99-1.17-.99ZM299.99,102.07v1.2c.52,0,.97-.09,1.35-.26s.57-.46.57-.87c0-.23-.11-.41-.34-.56-.23-.15-.5-.22-.81-.22s-.52.06-.62.17c-.1.11-.16.29-.16.54Z"/>
      <path class="cls-31" d="M305.81,103.84l.03,1.85c0,.25,0,.38-.01.4l2.45-.04c.27.03.41.15.41.35,0,.4-.18.59-.55.59l-2.78.03c-.17,0-.29-.06-.38-.18-.08-.12-.12-.24-.13-.38,0-.13-.01-.28-.01-.44v-2.35c-.12-.07-.18-.17-.18-.3s.05-.25.16-.35c-.03-.74-.04-1.41-.04-2.01,0-.35.21-.53.64-.54h.4l2.48.04h.01c.3.04.45.18.45.42,0,.19-.06.32-.17.38-.25.13-.83.2-1.77.2-.35,0-.7-.01-1.05-.04,0,.85,0,1.33.01,1.43.37,0,1.09.01,2.17.01.29.04.44.17.44.4,0,.11-.05.22-.14.33-.09.1-.2.16-.3.18-.11.01-.34.02-.69.02s-.83,0-1.42-.01Z"/>
      <path class="cls-31" d="M311.27,107.06l-1.17-.03c-.24,0-.37-.07-.4-.21-.06-.4-.08-1.01-.08-1.85l.1-4.11c0-.24.18-.35.54-.35.18,0,.33.04.44.13s.17.2.17.35c-.02.4-.07.94-.14,1.64-.11.92-.17,1.58-.17,2s.01.92.04,1.51l1.73-.1c0-.24-.01-.59-.01-1.08l.1-4.11c0-.24.18-.35.54-.35.18,0,.33.04.44.13s.17.2.17.35c-.02.4-.07.94-.14,1.64-.11.92-.17,1.58-.17,2s.01.92.04,1.51l2.09-.13c.31,0,.47.16.47.48,0,.26-.1.42-.3.45-.42.07-.9.1-1.43.1h-1.33c-.11-.01-.2-.03-.27-.06-.39.05-.8.07-1.25.07Z"/>
      <path class="cls-31" d="M316.44,107.03c-.26,0-.4-.11-.4-.34l.06-5.76c0-.13.05-.24.14-.32s.21-.12.35-.12.25.03.35.1c.1.07.15.18.16.33,0,.16.01.5.01,1.04,0,2.52-.02,4.05-.06,4.6,0,.12-.08.23-.22.33s-.27.14-.4.14Z"/>
      <path class="cls-31" d="M319.33,102.61l-.16,3.44c0,.3-.02.51-.03.61-.04.25-.2.38-.5.38-.11,0-.21-.04-.3-.12s-.14-.18-.15-.3c.08-2.45.11-3.78.11-3.97v-.64c0-.24.02-.45.07-.64.07-.25.24-.38.51-.38.13,0,.3.09.5.27s.49.51.86.99c.9,1.1,1.58,2.15,2.04,3.13-.02-1.34-.05-2.36-.1-3.07-.05-.7-.07-1.09-.07-1.15v-.11c.07-.36.26-.54.58-.54.12,0,.24.05.34.16.1.11.16.24.16.4l.07,5.27c0,.49-.2.74-.59.74-.24,0-.42-.08-.55-.25-.13-.17-.23-.29-.28-.39s-.14-.25-.25-.45c-.73-1.37-1.48-2.49-2.25-3.37Z"/>
      <path class="cls-31" d="M327.64,100.5c.4,0,.76.08,1.1.25s.51.38.51.62c0,.13-.05.25-.16.34-.1.09-.23.14-.37.14s-.3-.05-.48-.16c-.18-.11-.42-.16-.71-.16-.6,0-1.09.25-1.47.75-.38.5-.57,1.05-.57,1.65s.13,1.11.4,1.52c.26.42.57.62.92.62s.63-.09.86-.28c.22-.18.33-.42.33-.7,0-.49-.09-.74-.27-.74-.4,0-.67-.03-.82-.08-.15-.05-.23-.17-.23-.35,0-.34.15-.52.45-.55.13,0,.3-.01.51-.01s.42.04.64.11c.3.11.49.29.55.54.14.59.21,1.13.21,1.64v.33c0,.16,0,.29,0,.39,0,.1-.02.21-.04.34-.02.13-.07.21-.13.26-.06.05-.17.07-.31.07s-.26-.03-.33-.09c-.08-.06-.13-.17-.16-.33-.44.29-.89.44-1.33.44s-.85-.16-1.21-.47-.63-.71-.81-1.18-.27-.94-.27-1.42c0-1.05.3-1.89.91-2.53.6-.64,1.36-.96,2.28-.96Z"/>
      <path class="cls-31" d="M332.26,106.45c0,.5-.13.92-.39,1.27s-.5.52-.72.52-.33-.07-.33-.21c0-.07.1-.22.29-.46.19-.24.31-.45.36-.62-.21,0-.39-.08-.55-.24-.16-.16-.24-.35-.24-.57s.07-.41.2-.57c.13-.16.31-.24.52-.24s.39.04.51.13c.24.15.35.48.35.98ZM331.5,101.14c.17,0,.33.07.48.22.16.15.25.36.28.63,0,.2-.08.38-.23.55-.15.17-.31.25-.47.25-.31,0-.55-.08-.71-.24-.1-.08-.14-.2-.14-.34,0-.35.09-.62.27-.8.18-.18.35-.28.52-.28Z"/>
      <path class="cls-31" d="M274.15,122.34l-1.83-.04c-.1-.4-.17-2.18-.18-5.35v-1c0-.8.08-1.41.23-1.83.15-.42.47-.76.95-1.01.25-.12.59-.18,1.03-.18s.78.03,1.01.08c.63.13,1.06.38,1.29.74.23.36.35.84.35,1.44,0,.84-.22,1.46-.67,1.85.23.03.45.14.68.34s.41.4.55.61c.25.38.37.89.37,1.54,0,1.02-.31,1.74-.93,2.17-.62.43-1.57.64-2.85.64ZM276.46,118.45c-.1-.1-.25-.19-.45-.28s-.48-.13-.86-.13-1.01.06-1.9.18c0,1.47.02,2.47.07,2.99,1.1,0,1.88-.07,2.32-.22s.74-.33.9-.54c.16-.21.23-.44.23-.68s0-.41,0-.51c0-.1-.03-.24-.08-.41-.05-.17-.13-.31-.23-.41ZM273.27,115.44l.03,1.61s.18-.02.48-.06c.3-.04.56-.09.76-.13.95-.23,1.43-.77,1.43-1.63,0-.42-.12-.74-.38-.93s-.58-.3-.98-.3c-.51,0-.85.09-1.03.27-.08.08-.14.14-.18.19-.05.05-.08.13-.1.25-.02.11-.03.19-.04.24,0,.05,0,.14,0,.27,0,.13,0,.21,0,.23Z"/>
      <path class="cls-31" d="M279.39,122.37c-.26,0-.4-.11-.4-.34l.06-5.76c0-.13.05-.24.14-.32s.21-.12.35-.12.25.03.35.1c.1.07.15.18.16.33,0,.16.01.5.01,1.04,0,2.52-.02,4.05-.06,4.6,0,.12-.08.23-.22.33-.14.09-.27.14-.4.14Z"/>
      <path class="cls-31" d="M284,115.9c.7,0,1.26.27,1.69.81.43.54.64,1.27.64,2.21s-.24,1.74-.71,2.42c-.47.68-1.07,1.02-1.8,1.02-.79,0-1.44-.34-1.94-1.02s-.75-1.51-.75-2.49.26-1.72.78-2.21c.52-.49,1.21-.74,2.08-.74ZM285.32,119.07c0-.75-.11-1.31-.33-1.66-.22-.35-.6-.53-1.15-.53s-.97.17-1.27.5c-.3.34-.45.81-.45,1.43s.16,1.19.48,1.72c.32.53.76.79,1.33.79.32,0,.59-.14.82-.41.38-.47.57-1.09.57-1.84Z"/>
      <path class="cls-31" d="M288.43,113.36c.15-.09.31-.14.5-.14s.31.11.35.33c0,1.09.03,2.73.06,4.91,0,1.33-.04,2.46-.11,3.38-.02.14-.11.27-.26.38-.16.11-.31.16-.47.16-.26,0-.4-.14-.4-.41.09-.94.14-2.11.14-3.51l-.08-4.76c.04-.13.13-.25.28-.34Z"/>
      <path class="cls-31" d="M291.18,121.91c-.14-.1-.21-.22-.21-.35s.05-.23.16-.32c-.18-1.35-.27-2.9-.27-4.64,0-.53.02-1.56.07-3.09.05-.14.14-.26.29-.37s.29-.16.42-.16.21,0,.24.01c1.35.38,2.53,1.11,3.53,2.19,1,1.08,1.52,2.38,1.57,3.89,0,1.66-.69,2.71-2.07,3.13-.4.12-.81.18-1.25.18s-.82-.03-1.15-.1c.04.08.06.18.06.3s-.08.25-.23.37c-.16.12-.34.18-.55.18s-.35-.13-.4-.38l-.18-.85ZM292.03,116.49c0,1.65.09,3.22.28,4.7.23.07.61.1,1.15.1s1.05-.09,1.55-.27c.5-.18.76-.44.79-.79.03-.26.04-.47.04-.61,0-1.23-.33-2.31-.98-3.26s-1.57-1.66-2.75-2.15c-.05,1.11-.07,1.87-.07,2.28Z"/>
    </g>
    <g>
      <path class="cls-31" d="M165.7,102.16c-.13-.08-.2-.21-.2-.37s.05-.31.16-.44c-.04-.94-.06-1.94-.06-2.99.06-.23.14-.39.26-.5s.29-.17.52-.2c1.25.06,2.6.08,4.05.08.36.08.54.23.54.47,0,.4-.39.63-1.16.69-.21,0-.43.01-.68.01h-.92c-.18,0-.67-.04-1.49-.11,0,1.18.02,1.99.06,2.44.5,0,1.46.01,2.89.01.34.07.51.22.51.46s-.14.43-.41.56c-.03.02-.08.04-.16.06l-2.45-.04c-.15,0-.27,0-.37.03l.06,2.43c0,.55-.01.94-.04,1.17l3.28-.04c.3.05.45.17.45.38,0,.14-.06.28-.19.42-.13.14-.28.23-.45.27l-3.62.06c-.22,0-.37-.04-.45-.12s-.13-.21-.13-.4c.04-.26.06-.69.06-1.27v-.99l-.06-2.08Z"/>
      <path class="cls-31" d="M172.81,102.61l-.16,3.44c0,.3-.02.51-.03.61-.04.25-.2.38-.5.38-.11,0-.21-.04-.3-.12s-.14-.18-.15-.3c.08-2.45.11-3.78.11-3.97v-.64c0-.24.02-.45.07-.64.07-.25.24-.38.51-.38.13,0,.3.09.5.27s.49.51.86.99c.9,1.1,1.58,2.15,2.04,3.13-.02-1.34-.05-2.36-.1-3.07s-.07-1.09-.07-1.15v-.11c.07-.36.26-.54.58-.54.12,0,.24.05.34.16s.16.24.16.4l.07,5.27c0,.49-.2.74-.59.74-.24,0-.42-.08-.55-.25s-.23-.29-.28-.39-.14-.25-.25-.45c-.73-1.37-1.48-2.49-2.25-3.37Z"/>
      <path class="cls-31" d="M179.03,106.5c0,.14-.07.26-.2.37-.13.1-.28.16-.44.16-.21,0-.31-.09-.31-.28-.04-.44-.06-2.2-.06-5.28,0-.3.18-.54.54-.71s.85-.25,1.46-.25,1.14.15,1.6.45c.46.3.69.67.69,1.09,0,.21-.09.44-.27.69s-.37.46-.57.6c-.2.15-.49.32-.87.53-.38.21-.61.32-.69.34.59.38,1.12.79,1.59,1.23s.69.79.69,1.05-.11.42-.34.5c-.07.02-.15.03-.25.03s-.24-.1-.4-.3c-.16-.2-.46-.5-.91-.88-.44-.38-.88-.72-1.32-1.03.02.75.04,1.32.06,1.68h0ZM178.98,103.55c.31,0,.78-.15,1.4-.46s.95-.59.98-.86c0-.25-.14-.45-.42-.57s-.58-.19-.89-.19c-.36,0-.71.04-1.05.13,0,.45-.01,1.1-.01,1.95Z"/>
      <path class="cls-31" d="M183.93,107.03c-.26,0-.4-.11-.4-.34l.06-5.76c0-.13.05-.24.14-.32.09-.08.21-.12.35-.12s.25.03.35.1c.1.07.15.18.16.33,0,.16.01.5.01,1.04,0,2.52-.02,4.05-.06,4.6,0,.12-.08.23-.22.33s-.27.14-.4.14Z"/>
      <path class="cls-31" d="M190.25,101.71l-1.15-.14c-1.53,0-2.29.76-2.29,2.29,0,.77.23,1.39.69,1.84.23.24.46.35.71.35s.67-.11,1.29-.33c.61-.22.94-.33.99-.33.25,0,.38.12.38.35,0,.2-.11.37-.33.51-1.18.5-2.03.75-2.56.75-.32,0-.64-.1-.95-.31-.31-.21-.56-.48-.74-.81-.37-.65-.55-1.35-.55-2.1,0-1,.3-1.79.91-2.38s1.38-.88,2.32-.88c.55,0,1.09.09,1.63.27h0c.17.12.25.24.25.37s-.07.25-.21.36-.27.16-.4.16Z"/>
      <path class="cls-31" d="M196.31,104.14v2.1c-.01.53-.18.79-.52.79-.16,0-.28-.03-.36-.1-.08-.07-.12-.17-.11-.31.04-.5.06-1.3.06-2.39-.16.02-.41.03-.74.03s-.86-.04-1.56-.11v.3c0,.2.04.92.11,2.15,0,.15-.04.26-.16.33-.12.07-.24.11-.36.11s-.22-.04-.29-.11c-.07-.07-.11-.15-.12-.25-.1-.98-.16-1.72-.16-2.23s0-.85.01-1.03l.06-2.36c0-.11.07-.21.19-.29s.24-.12.38-.12c.25,0,.37.1.37.31l-.03,2.22c.47.08.88.11,1.23.11h1.08c-.03-.52-.04-1.3-.04-2.35,0-.13.06-.24.19-.33s.26-.13.41-.13.25.07.3.2.08.26.07.38v3.07Z"/>
      <path class="cls-31" d="M202.79,100.16c.27,0,.41.13.41.4.03,1.68.04,3.64.04,5.88,0,.15-.05.29-.16.41-.11.12-.28.18-.52.18s-.35-.16-.35-.47c0-1,0-1.74-.02-2.23s-.02-1.01-.02-1.58c-.35.42-.69.72-1.01.89s-.76.25-1.3.25-.96-.15-1.26-.44c0,1.69,0,2.68-.03,2.97-.02.4-.24.59-.67.59-.25,0-.38-.14-.38-.41l.04-2.62v-2.79c0-.13.05-.26.16-.38.1-.12.22-.18.36-.18s.26.03.37.09.17.15.18.28c.02.48.16.91.42,1.29.26.38.55.57.88.57.95,0,1.61-.51,1.98-1.54.02-.05.06-.17.12-.37.06-.2.11-.33.15-.41s.11-.16.22-.25.24-.13.39-.13Z"/>
      <path class="cls-31" d="M205.45,103.84l.03,1.85c0,.25,0,.38-.01.4l2.45-.04c.27.03.41.15.41.35,0,.4-.18.59-.55.59l-2.77.03c-.17,0-.3-.06-.38-.18-.08-.12-.12-.24-.13-.38,0-.13-.01-.28-.01-.44v-2.35c-.12-.07-.18-.17-.18-.3s.05-.25.16-.35c-.03-.74-.04-1.41-.04-2.01,0-.35.21-.53.64-.54h.4l2.48.04h.01c.3.04.45.18.45.42,0,.19-.06.32-.17.38-.25.13-.83.2-1.77.2-.35,0-.7-.01-1.05-.04,0,.85,0,1.33.01,1.43.37,0,1.09.01,2.17.01.29.04.44.17.44.4,0,.11-.05.22-.14.33-.09.1-.2.16-.3.18-.11.01-.34.02-.69.02s-.83,0-1.42-.01Z"/>
      <path class="cls-31" d="M210.75,102.61l-.16,3.44c0,.3-.02.51-.03.61-.04.25-.2.38-.5.38-.11,0-.21-.04-.3-.12s-.14-.18-.15-.3c.08-2.45.11-3.78.11-3.97v-.64c0-.24.02-.45.07-.64.07-.25.24-.38.51-.38.13,0,.3.09.5.27s.49.51.86.99c.9,1.1,1.58,2.15,2.04,3.13-.02-1.34-.05-2.36-.1-3.07s-.07-1.09-.07-1.15v-.11c.07-.36.26-.54.58-.54.12,0,.24.05.34.16s.16.24.16.4l.07,5.27c0,.49-.2.74-.59.74-.24,0-.42-.08-.55-.25s-.23-.29-.28-.39-.14-.25-.25-.45c-.73-1.37-1.48-2.49-2.25-3.37Z"/>
      <path class="cls-31" d="M218.75,101.35l-.03,3.36c0,.7,0,1.31.03,1.84,0,.14-.05.26-.18.35s-.26.13-.39.13c-.25,0-.37-.13-.37-.4-.03-1.03-.04-2.01-.04-2.94s.03-1.7.08-2.3c-.57.05-1.14.07-1.73.07-.29,0-.44-.12-.44-.37,0-.11.05-.23.16-.34s.23-.17.36-.18l4.42-.14c.25.06.38.18.38.37,0,.39-.44.58-1.33.58l-.93-.03Z"/>
      <path class="cls-31" d="M179.09,113.04c.24,0,.43.1.59.31.16.21.37.64.62,1.29.59,1.54,1.18,3.95,1.74,7.24,0,.04.01.09.01.16s-.04.15-.13.23-.22.12-.38.12-.3-.04-.42-.12-.19-.21-.23-.4c-.04-.18-.11-.54-.21-1.08-.23-1.2-.38-1.82-.45-1.87-.11-.07-.49-.14-1.13-.21s-1.06-.11-1.27-.11-.33.02-.37.06c-.17.15-.4,1.3-.69,3.44-.04.18-.22.27-.54.27s-.48-.14-.48-.41c0-.68.25-1.98.75-3.89.5-1.92.92-3.19,1.25-3.81.42-.8.86-1.2,1.33-1.2ZM179.03,114.61c-.14,0-.39.42-.74,1.25-.35.84-.52,1.35-.52,1.55,0,.05,0,.08.03.1.08.08.37.14.89.2s.86.08,1.03.08.26-.01.28-.04.03-.1.03-.23-.13-.65-.38-1.56c-.25-.91-.46-1.37-.62-1.37Z"/>
      <path class="cls-31" d="M182.9,117.43c0-.44.23-.82.68-1.14.45-.32,1.01-.47,1.66-.47s1.15.08,1.49.25c.34.17.51.39.51.65,0,.12-.04.22-.12.3-.08.08-.18.12-.29.12s-.34-.08-.67-.23c-.33-.15-.64-.23-.91-.23s-.55.07-.85.22-.45.33-.45.54.18.41.54.58.78.32,1.27.44c.49.12.82.24.98.36.17.12.28.21.35.28.07.07.14.21.22.41s.11.46.11.79c0,.69-.22,1.2-.67,1.54s-.98.5-1.6.5-1.15-.1-1.59-.3c-.44-.2-.67-.44-.67-.74,0-.15.06-.29.19-.4s.26-.15.4-.09c.89.35,1.44.52,1.67.52.41,0,.72-.1.93-.3.22-.2.33-.46.33-.77s-.12-.55-.37-.72c-.25-.17-.54-.29-.89-.36-.34-.08-.69-.16-1.03-.25-.34-.09-.64-.26-.88-.5-.25-.24-.37-.58-.37-1.02Z"/>
      <path class="cls-31" d="M188.56,117.43c0-.44.23-.82.68-1.14.45-.32,1.01-.47,1.66-.47s1.15.08,1.49.25c.34.17.51.39.51.65,0,.12-.04.22-.12.3-.08.08-.18.12-.29.12s-.34-.08-.67-.23c-.33-.15-.64-.23-.91-.23s-.55.07-.85.22-.45.33-.45.54.18.41.54.58.78.32,1.27.44c.49.12.82.24.98.36.17.12.28.21.35.28.07.07.14.21.22.41s.11.46.11.79c0,.69-.22,1.2-.67,1.54s-.98.5-1.6.5-1.15-.1-1.59-.3c-.44-.2-.67-.44-.67-.74,0-.15.06-.29.19-.4s.26-.15.4-.09c.89.35,1.44.52,1.67.52.41,0,.72-.1.93-.3.22-.2.33-.46.33-.77s-.12-.55-.37-.72c-.25-.17-.54-.29-.89-.36-.34-.08-.69-.16-1.03-.25-.34-.09-.64-.26-.88-.5-.25-.24-.37-.58-.37-1.02Z"/>
      <path class="cls-31" d="M195.22,121.99c-.04.24-.21.35-.5.35s-.45-.12-.45-.37c0-.56.27-1.69.82-3.4.25-.78.52-1.43.82-1.95.3-.52.59-.78.88-.78.15,0,.28.09.4.27s.32.59.62,1.22.54,1.31.74,2.02.42,1.58.65,2.61c0,.12-.04.22-.13.29-.08.07-.19.11-.31.11-.3,0-.49-.13-.57-.4l-.5-1.94c-.83,0-1.5-.07-2-.2-.28,1.04-.44,1.76-.48,2.15ZM196.75,117.14c-.31.53-.57,1.12-.76,1.77.42.11.91.17,1.47.17-.18-.65-.42-1.3-.71-1.94Z"/>
      <path class="cls-31" d="M204.26,115.78c.25.03.37.14.37.34,0,.25-.13.57-.38.98-.08.13-.21.32-.37.56-.16.24-.27.41-.33.51-.06.1-.16.24-.3.43-.14.19-.25.36-.35.52v1.23c0,.85-.03,1.4-.08,1.64-.06.25-.23.37-.52.37-.08,0-.15-.02-.18-.06-.1-.1-.16-.42-.16-.93v-1.53c.01-.25,0-.5-.03-.75-.39-.5-.92-1.36-1.59-2.58-.03-.05-.04-.1-.04-.17s.03-.14.08-.21c.13-.2.29-.3.48-.3.14,0,.49.48,1.03,1.43.25.42.43.73.55.91.16-.24.34-.51.54-.83.2-.32.34-.55.44-.7.28-.44.5-.71.65-.79.07-.05.13-.07.18-.07Z"/>
      <path class="cls-31" d="M205.83,117.43c0-.44.23-.82.68-1.14.45-.32,1.01-.47,1.66-.47s1.15.08,1.49.25c.34.17.51.39.51.65,0,.12-.04.22-.12.3-.08.08-.18.12-.29.12s-.34-.08-.67-.23c-.33-.15-.64-.23-.91-.23s-.55.07-.85.22-.45.33-.45.54.18.41.54.58.78.32,1.27.44c.49.12.82.24.98.36.17.12.28.21.35.28.07.07.14.21.22.41s.11.46.11.79c0,.69-.22,1.2-.67,1.54s-.98.5-1.6.5-1.15-.1-1.59-.3c-.44-.2-.67-.44-.67-.74,0-.15.06-.29.19-.4s.26-.15.4-.09c.89.35,1.44.52,1.67.52.41,0,.72-.1.93-.3.22-.2.33-.46.33-.77s-.12-.55-.37-.72c-.25-.17-.54-.29-.89-.36-.34-.08-.69-.16-1.03-.25-.34-.09-.64-.26-.88-.5-.25-.24-.37-.58-.37-1.02Z"/>
    </g>
    <g>
      <path class="cls-2" d="M166.18,79.77c-.1-.07-.15-.15-.15-.25s.04-.17.11-.22c-.13-.95-.19-2.05-.19-3.28,0-.37.02-1.1.05-2.18.03-.1.1-.19.21-.26.1-.07.2-.11.29-.11s.15,0,.17,0c.95.27,1.78.78,2.49,1.54.71.76,1.08,1.68,1.11,2.75,0,1.17-.49,1.91-1.46,2.21-.28.09-.58.13-.89.13s-.58-.02-.81-.07c.03.05.04.12.04.21s-.06.18-.17.26-.24.12-.39.12-.25-.09-.28-.27l-.13-.6ZM166.78,75.94c0,1.17.07,2.27.2,3.32.16.05.43.07.81.07s.74-.06,1.09-.19c.35-.13.54-.31.56-.56.02-.19.03-.33.03-.43,0-.87-.23-1.63-.69-2.3-.46-.67-1.11-1.17-1.94-1.52-.03.79-.05,1.32-.05,1.61Z"/>
      <path class="cls-2" d="M174.83,73.47c.11,0,.2.04.29.13.09.09.13.2.13.32,0,2.61.01,4.18.03,4.72.02.54.04.82.04.83,0,.15-.04.29-.12.42s-.17.2-.26.2-.17,0-.22-.01c-.05-.01-.1-.02-.13-.04-.04-.01-.08-.04-.12-.08l-.1-.1s-.06-.08-.1-.15c-.04-.08-.08-.14-.1-.19-.03-.05-.07-.13-.12-.25-.06-.12-.18-.35-.37-.71-.19-.36-.36-.68-.52-.97-.53-.97-1.02-1.73-1.47-2.29,0,2.17-.06,3.67-.18,4.51-.02.16-.14.24-.37.24-.11,0-.19-.03-.26-.08-.07-.05-.1-.14-.1-.26s.02-.78.07-1.98c.05-1.2.08-1.95.08-2.25v-.56c0-.48.04-.75.11-.81.07-.06.15-.09.23-.09.37,0,.93.6,1.68,1.8.15.23.43.72.84,1.46s.66,1.2.74,1.38l-.12-4.15c0-.57.06-.9.19-.98.07-.04.15-.06.26-.06Z"/>
      <path class="cls-2" d="M178.25,73.5c.17,0,.31.07.42.22s.26.45.44.91c.42,1.09.83,2.79,1.23,5.11,0,.03,0,.06,0,.11s-.03.1-.09.16c-.06.06-.15.08-.27.08s-.22-.03-.3-.08c-.08-.06-.13-.15-.16-.28-.03-.13-.08-.38-.15-.76-.16-.85-.27-1.29-.32-1.32-.08-.05-.34-.1-.79-.15s-.75-.08-.9-.08-.23.01-.26.04c-.12.11-.28.92-.49,2.43-.03.13-.15.19-.38.19s-.34-.1-.34-.29c0-.48.18-1.4.53-2.75.35-1.35.65-2.25.88-2.69.29-.57.61-.85.94-.85ZM178.21,74.61c-.1,0-.27.3-.52.89s-.37.96-.37,1.09c0,.03,0,.06.02.07.05.05.26.1.63.14s.61.06.73.06.19,0,.2-.02c.01-.02.02-.07.02-.16s-.09-.46-.27-1.1c-.18-.64-.33-.97-.44-.97Z"/>
      <path class="cls-2" d="M182.22,79.68c0,.35-.09.65-.28.9-.18.25-.35.37-.51.37s-.23-.05-.23-.15c0-.05.07-.16.21-.33.14-.17.22-.31.25-.43-.15,0-.28-.06-.39-.17s-.17-.25-.17-.4.05-.29.14-.4c.09-.11.22-.17.37-.17s.27.03.36.09c.17.11.25.34.25.69ZM181.69,75.93c.12,0,.23.05.34.16.11.1.18.25.2.45,0,.14-.05.27-.16.39-.11.12-.22.18-.33.18-.22,0-.39-.06-.5-.17-.07-.06-.1-.14-.1-.24,0-.25.06-.43.19-.56.13-.13.25-.2.37-.2Z"/>
      <path class="cls-2" d="M186.19,79.99c-.11.1-.22.15-.34.15s-.21-.08-.25-.24c-.02-.88-.03-1.76-.03-2.63l-.03-2.52c0-.51.22-.85.67-1.04.36-.17.79-.25,1.28-.25.25,0,.53.06.81.18.29.12.55.3.78.54s.34.49.34.77-.13.57-.38.89-.57.6-.94.84-.74.42-1.09.54c.62.43,1.16.9,1.62,1.4.46.5.69.88.69,1.15,0,.09-.04.17-.13.25-.09.08-.19.12-.31.12s-.23-.05-.31-.16c-.15-.35-.42-.72-.83-1.12-.41-.39-.89-.76-1.44-1.11l.06,1.92c0,.12-.05.23-.16.32ZM187.82,76.1c.56-.35.84-.67.84-.96s-.14-.5-.42-.65c-.28-.15-.61-.23-.99-.23s-.69.05-.92.14c0,.34-.01,1.09-.01,2.26.45-.02.95-.21,1.5-.56Z"/>
      <path class="cls-2" d="M194.19,73.47c.11,0,.2.04.29.13.09.09.13.2.13.32,0,2.61.01,4.18.03,4.72.02.54.04.82.04.83,0,.15-.04.29-.12.42s-.17.2-.26.2-.17,0-.22-.01c-.05-.01-.1-.02-.13-.04-.04-.01-.08-.04-.12-.08l-.1-.1s-.06-.08-.1-.15c-.04-.08-.08-.14-.1-.19-.03-.05-.07-.13-.12-.25-.06-.12-.18-.35-.37-.71-.19-.36-.36-.68-.52-.97-.53-.97-1.02-1.73-1.47-2.29,0,2.17-.06,3.67-.18,4.51-.02.16-.14.24-.37.24-.11,0-.19-.03-.26-.08-.07-.05-.1-.14-.1-.26s.02-.78.07-1.98c.05-1.2.08-1.95.08-2.25v-.56c0-.48.04-.75.11-.81.07-.06.15-.09.23-.09.37,0,.93.6,1.68,1.8.15.23.43.72.84,1.46s.66,1.2.74,1.38l-.12-4.15c0-.57.06-.9.19-.98.07-.04.15-.06.26-.06Z"/>
      <path class="cls-2" d="M197.61,73.5c.17,0,.31.07.42.22s.26.45.44.91c.42,1.09.83,2.79,1.23,5.11,0,.03,0,.06,0,.11s-.03.1-.09.16c-.06.06-.15.08-.27.08s-.22-.03-.3-.08c-.08-.06-.13-.15-.16-.28-.03-.13-.08-.38-.15-.76-.16-.85-.27-1.29-.32-1.32-.08-.05-.34-.1-.79-.15s-.75-.08-.9-.08-.23.01-.26.04c-.12.11-.28.92-.49,2.43-.03.13-.15.19-.38.19s-.34-.1-.34-.29c0-.48.18-1.4.53-2.75.35-1.35.65-2.25.88-2.69.29-.57.61-.85.94-.85ZM197.57,74.61c-.1,0-.27.3-.52.89s-.37.96-.37,1.09c0,.03,0,.06.02.07.05.05.26.1.63.14s.61.06.73.06.19,0,.2-.02c.01-.02.02-.07.02-.16s-.09-.46-.27-1.1c-.18-.64-.33-.97-.44-.97Z"/>
      <path class="cls-2" d="M201.58,79.68c0,.35-.09.65-.28.9-.18.25-.35.37-.51.37s-.23-.05-.23-.15c0-.05.07-.16.21-.33.14-.17.22-.31.25-.43-.15,0-.28-.06-.39-.17s-.17-.25-.17-.4.05-.29.14-.4c.09-.11.22-.17.37-.17s.27.03.36.09c.17.11.25.34.25.69ZM201.05,75.93c.12,0,.23.05.34.16.11.1.18.25.2.45,0,.14-.05.27-.16.39-.11.12-.22.18-.33.18-.22,0-.39-.06-.5-.17-.07-.06-.1-.14-.1-.24,0-.25.06-.43.19-.56.13-.13.25-.2.37-.2Z"/>
      <path class="cls-2" d="M204.79,78.7v-.78s.1-4.18.1-4.18c0-.08.04-.14.13-.19.09-.05.2-.07.33-.07.32,0,.48.11.48.34,0,.07-.04.63-.12,1.68s-.11,1.67-.11,1.88v1.06c0,.5.03.77.1.82.1.03.22.05.35.05l1.44-.1c.31,0,.47.11.47.34,0,.18-.08.31-.25.4-.17.08-.34.13-.5.14-.17,0-.37.01-.61.01-1.05,0-1.61-.03-1.7-.1-.05-.04-.07-.19-.08-.46,0-.26-.01-.45-.02-.55,0-.11,0-.2,0-.29Z"/>
      <path class="cls-2" d="M212.73,73.47c.11,0,.2.04.29.13.09.09.13.2.13.32,0,2.61.01,4.18.03,4.72.02.54.04.82.04.83,0,.15-.04.29-.12.42s-.17.2-.26.2-.17,0-.22-.01c-.05-.01-.1-.02-.13-.04-.04-.01-.08-.04-.12-.08l-.1-.1s-.06-.08-.1-.15c-.04-.08-.08-.14-.1-.19-.03-.05-.07-.13-.12-.25-.06-.12-.18-.35-.37-.71-.19-.36-.36-.68-.52-.97-.53-.97-1.02-1.73-1.47-2.29,0,2.17-.06,3.67-.18,4.51-.02.16-.14.24-.37.24-.11,0-.19-.03-.26-.08-.07-.05-.1-.14-.1-.26s.02-.78.07-1.98c.05-1.2.08-1.95.08-2.25v-.56c0-.48.04-.75.11-.81.07-.06.15-.09.23-.09.37,0,.93.6,1.68,1.8.15.23.43.72.84,1.46s.66,1.2.74,1.38l-.12-4.15c0-.57.06-.9.19-.98.07-.04.15-.06.26-.06Z"/>
      <path class="cls-2" d="M214.13,79.07c-.05-.69-.07-1.62-.07-2.79s.02-1.93.05-2.28c.03-.21.18-.35.44-.42.26-.07.6-.11,1.03-.11.63,0,1.15.14,1.58.41.43.27.65.67.65,1.2,0,.43-.06.79-.18,1.08-.12.29-.27.5-.45.64-.29.23-.73.34-1.3.34-.25,0-.57-.03-.97-.1.03,1.33.05,2.17.04,2.52,0,.35-.12.52-.35.52-.15,0-.24-.03-.28-.08-.04-.05-.07-.09-.08-.12-.01-.02-.03-.06-.04-.1-.01-.05-.02-.08-.03-.12,0-.03-.01-.08-.01-.13,0-.06,0-.11-.02-.14,0-.1-.01-.21-.01-.33ZM216.98,75.11c0-.27-.15-.48-.44-.64s-.61-.24-.94-.24-.57.03-.7.09c-.03.39-.04.75-.04,1.08s.01.63.04.89c.18.02.3.04.37.05.17.02.32.03.44.03s.21,0,.25,0c.04,0,.13-.01.25-.03.12-.02.21-.04.27-.08s.12-.09.2-.16c.08-.07.14-.14.17-.23.09-.24.13-.5.13-.77Z"/>
      <path class="cls-2" d="M220.05,79.68c0,.35-.09.65-.28.9-.18.25-.35.37-.51.37s-.23-.05-.23-.15c0-.05.07-.16.21-.33.14-.17.22-.31.25-.43-.15,0-.28-.06-.39-.17s-.17-.25-.17-.4.05-.29.14-.4c.09-.11.22-.17.37-.17s.27.03.36.09c.17.11.25.34.25.69ZM219.52,75.93c.12,0,.23.05.34.16.11.1.18.25.2.45,0,.14-.05.27-.16.39-.11.12-.22.18-.33.18-.22,0-.39-.06-.5-.17-.07-.06-.1-.14-.1-.24,0-.25.06-.43.19-.56.13-.13.25-.2.37-.2Z"/>
      <path class="cls-2" d="M157.27,89.07c-.05-.69-.07-1.62-.07-2.79s.02-1.93.05-2.28c.03-.21.18-.35.44-.42.26-.07.6-.11,1.03-.11.63,0,1.15.14,1.58.41.43.27.65.67.65,1.2,0,.43-.06.79-.18,1.08-.12.29-.27.5-.45.64-.29.23-.73.34-1.3.34-.25,0-.57-.03-.97-.1.03,1.33.05,2.17.04,2.52,0,.35-.12.52-.35.52-.15,0-.24-.03-.28-.08-.04-.05-.07-.09-.08-.12-.01-.02-.03-.06-.04-.1-.01-.05-.02-.08-.03-.12,0-.03-.01-.08-.01-.13,0-.06,0-.11-.02-.14,0-.1-.01-.21-.01-.33ZM160.12,85.11c0-.27-.15-.48-.44-.64s-.61-.24-.94-.24-.57.03-.7.09c-.03.39-.04.75-.04,1.08s.01.63.04.89c.18.02.3.04.37.05.17.02.32.03.44.03s.21,0,.25,0c.04,0,.13-.01.25-.03.12-.02.21-.04.27-.08s.12-.09.2-.16c.08-.07.14-.14.17-.23.09-.24.13-.5.13-.77Z"/>
      <path class="cls-2" d="M162.72,87.84l.02,1.31c0,.17,0,.27,0,.28l1.73-.03c.19.02.29.1.29.25,0,.28-.13.42-.39.42l-1.96.02c-.12,0-.21-.04-.27-.12s-.09-.17-.1-.26c0-.09,0-.2,0-.31v-1.66c-.09-.05-.13-.12-.13-.21s.04-.18.11-.25c-.02-.52-.03-.99-.03-1.42,0-.25.15-.37.45-.38h.28l1.75.03h0c.21.03.32.13.32.3,0,.13-.04.22-.12.27-.17.09-.59.14-1.25.14-.25,0-.49,0-.74-.03,0,.6,0,.94.01,1.01.26,0,.77.01,1.53.01.21.03.31.12.31.28,0,.08-.03.16-.1.23s-.14.12-.21.12-.24.01-.49.01-.58,0-1,0Z"/>
      <path class="cls-2" d="M166.92,85.47c.48,0,.87.11,1.16.32s.44.49.44.84c0,.55-.17.95-.51,1.21-.25.19-.58.28-1,.28-.16,0-.33-.01-.52-.04.02.39.03.73.03,1.02s0,.54-.02.75c-.01.15-.11.23-.29.23s-.3-.04-.35-.11c-.06-.07-.08-.18-.08-.33v-3.76c.01-.28.4-.42,1.16-.42ZM166.46,86.18c-.01.2-.02.42-.02.65v.54c.17.02.37.03.58.03s.39-.04.53-.12c.19-.11.29-.31.29-.6v-.09c-.01-.17-.17-.3-.48-.38-.17-.05-.33-.07-.48-.07s-.29.01-.42.04Z"/>
      <path class="cls-2" d="M171.41,86.08l-.02,2.37c0,.49,0,.93.02,1.3,0,.1-.03.18-.12.25-.09.06-.18.09-.27.09-.17,0-.26-.09-.26-.28-.02-.73-.03-1.42-.03-2.08s.02-1.2.06-1.62c-.4.03-.81.05-1.22.05-.21,0-.31-.09-.31-.26,0-.08.04-.16.11-.24s.16-.12.25-.13l3.12-.1c.18.04.27.13.27.26,0,.27-.31.41-.94.41l-.66-.02Z"/>
      <path class="cls-2" d="M173.92,90.09c-.19,0-.28-.08-.28-.24l.04-4.07c0-.09.03-.17.1-.23.07-.06.15-.08.24-.08s.18.02.25.07c.07.05.11.12.12.23,0,.11,0,.36,0,.74,0,1.78-.01,2.86-.04,3.25,0,.09-.06.16-.15.23-.1.07-.19.1-.29.1Z"/>
      <path class="cls-2" d="M175.46,89.83c-.09-.07-.13-.13-.13-.21s.02-.13.07-.2c-.07-.51-.11-1.11-.14-1.78-.03-.67-.04-1.05-.04-1.14s0-.19,0-.29.02-.22.04-.34c.05-.25.2-.38.46-.38.69,0,1.35.31,1.98.93s.96,1.29.96,2.02c0,.55-.17.96-.51,1.24-.34.28-.8.42-1.39.42-.11,0-.27-.01-.48-.04,0,.11-.04.2-.13.28-.09.08-.19.12-.3.12-.17,0-.28-.09-.31-.26l-.09-.36ZM175.97,86.23c0,.07-.01.2-.01.38s.02.58.06,1.2c.04.62.08,1.14.15,1.58.05.01.26.02.62.02.78,0,1.17-.22,1.17-.66,0-.56-.18-1.06-.54-1.5-.36-.44-.84-.78-1.44-1.01Z"/>
      <path class="cls-2" d="M180.42,87.84l.02,1.31c0,.17,0,.27,0,.28l1.73-.03c.19.02.29.1.29.25,0,.28-.13.42-.39.42l-1.96.02c-.12,0-.21-.04-.27-.12s-.09-.17-.1-.26c0-.09,0-.2,0-.31v-1.66c-.09-.05-.13-.12-.13-.21s.04-.18.11-.25c-.02-.52-.03-.99-.03-1.42,0-.25.15-.37.45-.38h.28l1.75.03h0c.21.03.32.13.32.3,0,.13-.04.22-.12.27-.17.09-.59.14-1.25.14-.25,0-.49,0-.74-.03,0,.6,0,.94.01,1.01.26,0,.77.01,1.53.01.21.03.31.12.31.28,0,.08-.03.16-.1.23s-.14.12-.21.12-.24.01-.49.01-.58,0-1,0Z"/>
      <path class="cls-2" d="M184.69,89.68c0,.35-.09.65-.28.9-.18.25-.35.37-.51.37s-.23-.05-.23-.15c0-.05.07-.16.21-.33.14-.17.22-.31.25-.43-.15,0-.28-.06-.39-.17s-.17-.25-.17-.4.05-.29.14-.4c.09-.11.22-.17.37-.17s.27.03.36.09c.17.11.25.34.25.69ZM184.16,85.93c.12,0,.23.05.34.16.11.1.18.25.2.45,0,.14-.05.27-.16.39-.11.12-.22.18-.33.18-.22,0-.39-.06-.5-.17-.07-.06-.1-.14-.1-.24,0-.25.06-.43.19-.56.13-.13.25-.2.37-.2Z"/>
      <path class="cls-2" d="M191.51,84.88c0,.35-.09.63-.27.87-.18.23-.48.47-.9.73.08.12.21.3.39.55.18.25.29.4.33.46l.31.51c.2-.33.32-.57.35-.74.05-.2.19-.3.41-.3.11,0,.21.03.28.09s.11.15.11.25c0,.26-.26.7-.78,1.33.21.4.36.75.46,1.04-.01.1-.06.19-.14.26-.08.07-.17.11-.27.11s-.19-.04-.27-.12c-.05-.08-.1-.17-.13-.27-.03-.1-.09-.24-.17-.43-.31.33-.56.55-.77.67-.21.12-.44.18-.71.18s-.54-.11-.82-.32c-.27-.21-.48-.48-.62-.79-.14-.28-.21-.56-.21-.84,0-.44.11-.79.34-1.07.23-.27.56-.53,1-.79-.31-.57-.47-1.05-.47-1.46s.12-.73.38-.97.55-.36.91-.36.65.15.9.44.38.61.38.96ZM189.71,89.22c.35,0,.73-.21,1.15-.64-.03-.04-.06-.09-.1-.16s-.1-.15-.17-.27c-.08-.12-.19-.28-.34-.49-.15-.21-.29-.43-.41-.67l-.08-.14c-.21.15-.36.27-.45.35-.3.26-.45.56-.45.91s.12.64.35.88c.13.15.3.22.5.22ZM190.25,84.24c-.35,0-.53.28-.54.84.03.29.13.57.29.86.47-.28.7-.56.7-.83s-.05-.49-.15-.64c-.09-.15-.19-.22-.3-.22Z"/>
      <path class="cls-2" d="M198.29,83.44c.47,0,.86.15,1.19.45.64.57.96,1.48.96,2.71s-.35,2.21-1.06,2.92c-.37.35-.79.55-1.27.58-.63,0-1.13-.22-1.48-.65-.35-.43-.6-.92-.75-1.46-.15-.54-.23-1.06-.23-1.56,0-.85.2-1.56.61-2.11.43-.59,1.1-.89,2.03-.89ZM198.22,84.27c-.89,0-1.45.42-1.67,1.27-.07.23-.1.52-.1.87s.07.76.2,1.23c.18.63.45,1.07.8,1.32.21.16.46.24.75.24s.56-.13.79-.4c.23-.26.39-.6.48-1,.09-.41.13-.82.13-1.23,0-.73-.1-1.3-.31-1.7-.21-.4-.56-.6-1.06-.6Z"/>
      <path class="cls-2" d="M203.19,86.08l-.02,2.37c0,.49,0,.93.02,1.3,0,.1-.03.18-.12.25-.09.06-.18.09-.27.09-.17,0-.26-.09-.26-.28-.02-.73-.03-1.42-.03-2.08s.02-1.2.06-1.62c-.4.03-.81.05-1.22.05-.21,0-.31-.09-.31-.26,0-.08.04-.16.11-.24s.16-.12.25-.13l3.12-.1c.18.04.27.13.27.26,0,.27-.31.41-.94.41l-.66-.02Z"/>
      <path class="cls-2" d="M208.44,88.05v1.48c-.01.37-.13.56-.37.56-.11,0-.2-.02-.25-.07-.06-.05-.08-.12-.08-.22.03-.35.04-.92.04-1.69-.11.01-.29.02-.52.02s-.6-.03-1.1-.08v.21c0,.14.03.65.08,1.52,0,.11-.03.18-.12.23s-.17.08-.25.08-.15-.03-.21-.08c-.05-.05-.08-.11-.08-.17-.07-.69-.11-1.22-.11-1.58s0-.6,0-.72l.04-1.67c0-.08.05-.15.14-.21.08-.06.17-.08.26-.08.17,0,.26.07.26.22l-.02,1.57c.33.05.62.08.87.08h.76c-.02-.37-.03-.92-.03-1.66,0-.09.04-.17.13-.23.09-.06.19-.09.29-.09s.17.05.21.14c.04.09.06.18.05.27v2.17Z"/>
      <path class="cls-2" d="M210.1,87.84l.02,1.31c0,.17,0,.27,0,.28l1.73-.03c.19.02.29.1.29.25,0,.28-.13.42-.39.42l-1.96.02c-.12,0-.21-.04-.27-.12s-.09-.17-.1-.26c0-.09,0-.2,0-.31v-1.66c-.09-.05-.13-.12-.13-.21s.04-.18.11-.25c-.02-.52-.03-.99-.03-1.42,0-.25.15-.37.45-.38h.28l1.75.03h0c.21.03.32.13.32.3,0,.13-.04.22-.12.27-.17.09-.59.14-1.25.14-.25,0-.49,0-.74-.03,0,.6,0,.94.01,1.01.26,0,.77.01,1.53.01.21.03.31.12.31.28,0,.08-.03.16-.1.23s-.14.12-.21.12-.24.01-.49.01-.58,0-1,0Z"/>
      <path class="cls-2" d="M213.84,89.72c0,.1-.05.19-.14.26-.09.07-.2.11-.31.11-.15,0-.22-.07-.22-.2-.03-.31-.04-1.56-.04-3.73,0-.21.13-.38.39-.5.26-.12.6-.18,1.03-.18s.81.11,1.13.32c.32.21.49.47.49.77,0,.15-.06.31-.19.49-.13.18-.26.32-.4.42-.14.1-.35.23-.62.38-.27.15-.43.23-.49.24.42.27.79.56,1.12.87s.49.56.49.74-.08.3-.24.35c-.05.01-.11.02-.18.02s-.17-.07-.28-.21c-.11-.14-.33-.35-.64-.62-.31-.27-.62-.51-.93-.73.01.53.03.93.04,1.19h0ZM213.8,87.63c.22,0,.55-.11.99-.33s.67-.42.69-.6c0-.18-.1-.32-.3-.41-.2-.09-.41-.13-.63-.13-.25,0-.5.03-.74.09,0,.32-.01.78-.01,1.38Z"/>
      <path class="cls-2" d="M217.09,86.6c0-.31.16-.58.48-.8.32-.22.71-.33,1.18-.33s.81.06,1.05.18c.24.12.36.27.36.46,0,.09-.03.16-.09.21s-.12.08-.2.08-.24-.05-.48-.16c-.24-.11-.45-.16-.64-.16s-.39.05-.6.15c-.21.1-.31.23-.31.39s.13.29.38.41c.25.12.55.22.9.31.35.09.58.17.69.25.12.08.2.15.25.2s.1.15.15.29c.05.14.08.33.08.55,0,.49-.16.85-.48,1.08-.32.24-.69.36-1.13.36s-.81-.07-1.12-.21c-.31-.14-.47-.31-.47-.52,0-.11.04-.2.13-.29.09-.08.19-.1.29-.06.63.25,1.02.37,1.18.37.29,0,.51-.07.66-.21.15-.14.23-.33.23-.55s-.09-.39-.26-.5c-.17-.12-.38-.2-.62-.25-.24-.05-.49-.11-.73-.18-.24-.07-.45-.18-.62-.35-.17-.17-.26-.41-.26-.72Z"/>
    </g>
    <text class="cls-40" transform="translate(.1 114.7)"><tspan x="0" y="0">Immunoprecipitation</tspan></text>
  </g>
</svg>