<?xml version="1.0" encoding="UTF-8"?>
<svg id="Layer_2" data-name="Layer 2" xmlns="http://www.w3.org/2000/svg" viewBox="0 0 331 129.92">
  <defs>
    <style>
      .cls-1 {
        fill: #2082b2;
      }

      .cls-1, .cls-2, .cls-3, .cls-4, .cls-5, .cls-6, .cls-7, .cls-8, .cls-9, .cls-10, .cls-11, .cls-12, .cls-13, .cls-14, .cls-15, .cls-16, .cls-17, .cls-18, .cls-19, .cls-20, .cls-21, .cls-22, .cls-23, .cls-24, .cls-25, .cls-26, .cls-27, .cls-28, .cls-29, .cls-30, .cls-31, .cls-32, .cls-33, .cls-34, .cls-35, .cls-36, .cls-37, .cls-38, .cls-39, .cls-40, .cls-41, .cls-42, .cls-43, .cls-44, .cls-45, .cls-46, .cls-47, .cls-48, .cls-49, .cls-50, .cls-51, .cls-52 {
        stroke-width: 0px;
      }

      .cls-2 {
        fill: #2182b5;
      }

      .cls-3 {
        fill: #103052;
      }

      .cls-4 {
        fill: #88bc6d;
      }

      .cls-5, .cls-53 {
        fill: #010101;
      }

      .cls-6 {
        fill: #4c9373;
      }

      .cls-7 {
        fill: #3d1a13;
      }

      .cls-53 {
        stroke: #333;
        stroke-width: .2px;
      }

      .cls-53, .cls-54, .cls-55, .cls-56, .cls-57, .cls-58, .cls-59, .cls-60 {
        stroke-miterlimit: 10;
      }

      .cls-8 {
        fill: #e2edec;
      }

      .cls-9 {
        fill: #3a1712;
      }

      .cls-10 {
        fill: #0a1c2e;
      }

      .cls-11 {
        fill: #040406;
      }

      .cls-12 {
        fill: #fdd9a8;
      }

      .cls-61 {
        font-family: PatrickHandSC-Regular, 'Patrick Hand SC';
        font-size: 7px;
      }

      .cls-61, .cls-30 {
        fill: #231f20;
      }

      .cls-13 {
        fill: #197cb0;
      }

      .cls-14 {
        fill: #529974;
      }

      .cls-15 {
        fill: #da6b50;
      }

      .cls-16 {
        fill: #3c1812;
      }

      .cls-17 {
        fill: #4f9272;
      }

      .cls-18 {
        fill: #040305;
      }

      .cls-19 {
        fill: #1d7fb1;
      }

      .cls-54 {
        fill: #95cb6d;
      }

      .cls-54, .cls-56, .cls-58 {
        stroke: #103052;
        stroke-width: 1.44px;
      }

      .cls-20 {
        fill: #89bd6e;
      }

      .cls-21 {
        fill: #89be6e;
      }

      .cls-22 {
        fill: #4e9371;
      }

      .cls-55 {
        fill: none;
        stroke: #231f20;
      }

      .cls-55, .cls-57, .cls-59, .cls-60 {
        stroke-width: .75px;
      }

      .cls-23 {
        fill: #f7a197;
      }

      .cls-24 {
        fill: #0a192d;
      }

      .cls-25 {
        fill: #401b15;
      }

      .cls-26 {
        fill: #e86f58;
      }

      .cls-27 {
        fill: #fbc887;
      }

      .cls-56 {
        fill: #f9ac41;
      }

      .cls-57 {
        fill: #27aae1;
      }

      .cls-57, .cls-59, .cls-60 {
        stroke: #0a3351;
      }

      .cls-28 {
        fill: #4d8f6f;
      }

      .cls-29 {
        fill: #391711;
      }

      .cls-31 {
        fill: #f79228;
      }

      .cls-32 {
        fill: #2f1411;
      }

      .cls-58 {
        fill: #54a0cd;
      }

      .cls-33 {
        fill: #177cb1;
      }

      .cls-34 {
        fill: #0a1d31;
      }

      .cls-35 {
        fill: #b65941;
      }

      .cls-36 {
        fill: #1b7fb3;
      }

      .cls-59 {
        fill: #fbb040;
      }

      .cls-37 {
        fill: #3784b7;
      }

      .cls-38 {
        fill: #1f7eb0;
      }

      .cls-60 {
        fill: #d091bc;
      }

      .cls-39 {
        fill: #5aa1c4;
      }

      .cls-40 {
        fill: #3a1711;
      }

      .cls-41 {
        fill: #311312;
      }

      .cls-42 {
        fill: #207fb1;
      }

      .cls-43 {
        fill: #8bbf70;
      }

      .cls-44 {
        fill: #f0f7f6;
      }

      .cls-45 {
        fill: #623f36;
      }

      .cls-46 {
        fill: #3d1913;
      }

      .cls-47 {
        fill: #c9deda;
      }

      .cls-48 {
        fill: #589e79;
      }

      .cls-49 {
        fill: #3e1914;
      }

      .cls-50 {
        fill: #ea7059;
      }

      .cls-51 {
        fill: #f0882d;
      }

      .cls-52 {
        fill: #177db3;
      }
    </style>
  </defs>
  <g id="Layer_1-2" data-name="Layer 1">
    <g>
      <path class="cls-53" d="M231.29,100.87c.63,0,1.33.12,2.1.37.17.13.25.28.25.43s-.08.29-.23.41-.33.18-.53.18c-.51-.13-.99-.2-1.43-.2-1.02,0-1.79.3-2.32.91-.53.6-.79,1.5-.79,2.69s.31,2.12.93,2.79c.32.35.7.52,1.15.52s1.15-.24,2.12-.71c.34-.16.57-.24.68-.24.25,0,.37.13.37.38s-.12.47-.35.64c-.81.42-1.44.71-1.9.86s-.84.22-1.17.22c-.68,0-1.26-.25-1.74-.75-.86-.92-1.29-2.19-1.29-3.79s.41-2.78,1.22-3.55,1.8-1.15,2.94-1.15Z"/>
      <path class="cls-53" d="M236.52,110.15h-1.34c-.24-.01-.37-.08-.4-.23-.06-.4-.08-1.01-.08-1.85l.1-4.11c0-.24.18-.35.54-.35.18,0,.33.04.44.13s.17.2.17.35c-.02.4-.07.94-.16,1.64-.1.92-.16,1.58-.16,2s.01.92.04,1.51l2.1-.13c.31,0,.47.16.47.48,0,.26-.1.42-.3.45-.42.07-.9.1-1.42.1Z"/>
      <path class="cls-53" d="M239.4,110.13c-.26,0-.4-.11-.4-.34l.06-5.76c0-.13.05-.24.14-.32.09-.08.21-.12.35-.12s.25.03.35.1c.1.07.15.18.16.33,0,.16.01.5.01,1.04,0,2.52-.02,4.05-.06,4.6,0,.12-.08.23-.22.33s-.27.14-.4.14Z"/>
      <path class="cls-53" d="M242.29,105.71l-.16,3.44c0,.3-.02.51-.03.61-.04.25-.2.38-.5.38-.11,0-.21-.04-.3-.12s-.14-.18-.15-.3c.08-2.45.11-3.78.11-3.97v-.64c0-.24.02-.45.07-.64.07-.25.24-.38.51-.38.13,0,.3.09.5.27s.49.51.86.99c.9,1.1,1.58,2.15,2.04,3.13-.02-1.34-.05-2.36-.1-3.07s-.07-1.09-.07-1.15v-.11c.07-.36.26-.54.58-.54.12,0,.24.05.34.16s.16.24.16.4l.07,5.27c0,.49-.2.74-.59.74-.24,0-.42-.08-.55-.25s-.23-.29-.28-.39-.14-.25-.25-.45c-.73-1.37-1.48-2.49-2.25-3.37Z"/>
      <path class="cls-53" d="M247.75,110.13c-.26,0-.4-.11-.4-.34l.06-5.76c0-.13.05-.24.14-.32.09-.08.21-.12.35-.12s.25.03.35.1c.1.07.15.18.16.33,0,.16.01.5.01,1.04,0,2.52-.02,4.05-.06,4.6,0,.12-.08.23-.22.33s-.27.14-.4.14Z"/>
      <path class="cls-53" d="M254.07,104.81l-1.15-.14c-1.53,0-2.29.76-2.29,2.29,0,.77.23,1.39.69,1.84.23.24.46.35.71.35s.67-.11,1.29-.33c.61-.22.94-.33.99-.33.25,0,.38.12.38.35,0,.2-.11.37-.33.51-1.18.5-2.03.75-2.56.75-.32,0-.64-.1-.95-.31-.31-.21-.56-.48-.74-.81-.37-.65-.55-1.35-.55-2.1,0-1,.3-1.79.91-2.38s1.38-.88,2.32-.88c.55,0,1.09.09,1.63.27h0c.17.12.25.24.25.37s-.07.25-.21.36-.27.16-.4.16Z"/>
      <path class="cls-53" d="M256.94,109.75c-.04.24-.21.35-.5.35s-.45-.12-.45-.37c0-.56.27-1.69.82-3.4.25-.78.52-1.43.82-1.95.3-.52.59-.78.88-.78.15,0,.28.09.4.27s.32.59.62,1.22.54,1.31.74,2.02.42,1.58.65,2.61c0,.12-.04.22-.13.29-.08.07-.19.11-.31.11-.3,0-.49-.13-.57-.4l-.5-1.94c-.83,0-1.5-.07-2-.2-.28,1.04-.44,1.75-.48,2.15ZM258.47,104.91c-.31.53-.57,1.12-.76,1.77.42.11.91.17,1.47.17-.18-.65-.42-1.3-.71-1.94Z"/>
      <path class="cls-53" d="M263.85,110.15h-1.34c-.24-.01-.37-.08-.4-.23-.06-.4-.08-1.01-.08-1.85l.1-4.11c0-.24.18-.35.54-.35.18,0,.33.04.44.13s.17.2.17.35c-.02.4-.07.94-.16,1.64-.1.92-.16,1.58-.16,2s.01.92.04,1.51l2.1-.13c.31,0,.47.16.47.48,0,.26-.1.42-.3.45-.42.07-.9.1-1.42.1Z"/>
      <path class="cls-53" d="M269.74,110.33s.01-.1.04-.2c.61-1.44,1.28-3.12,2.01-5.03.73-1.91,1.4-3.6,2.01-5.07.13-.25.33-.37.58-.37.11,0,.21.03.28.1.08.07.11.15.11.26s-.12.44-.35.98c-.24.55-.8,1.98-1.71,4.28s-1.59,4.01-2.07,5.12c-.16.22-.33.33-.52.33-.25,0-.38-.14-.38-.41Z"/>
      <path class="cls-53" d="M278.98,100.94l5.73-.08c.27.08.41.22.41.41,0,.47-.19.71-.58.71-.71,0-1.46.02-2.25.06-.05.81-.07,1.42-.07,1.83v.79l.06,4.97c0,.29-.08.46-.23.51-.11.04-.25.06-.42.06-.27,0-.42-.16-.45-.47-.06-.73-.08-2.08-.08-4.07s.03-3.18.08-3.59c-.2,0-.49.01-.88.01s-.87,0-1.44-.01c-.15,0-.27-.05-.35-.14-.08-.09-.13-.21-.13-.35s.06-.27.18-.4.26-.21.43-.23Z"/>
      <path class="cls-53" d="M285.85,110.13c-.26,0-.4-.11-.4-.34l.06-5.76c0-.13.05-.24.14-.32s.21-.12.35-.12.25.03.35.1c.1.07.15.18.16.33,0,.16.01.5.01,1.04,0,2.52-.02,4.05-.06,4.6,0,.12-.08.23-.22.33s-.27.14-.4.14Z"/>
      <path class="cls-53" d="M287.67,105.19c0-.44.23-.82.68-1.14s1.01-.47,1.66-.47,1.15.08,1.49.25.51.39.51.65c0,.12-.04.22-.12.3-.08.08-.18.12-.29.12s-.34-.08-.67-.23c-.33-.15-.64-.23-.91-.23s-.55.07-.85.22c-.3.15-.45.33-.45.54s.18.41.54.58c.36.17.78.32,1.27.44s.82.24.98.36c.17.12.28.21.35.28.07.07.14.21.22.41.08.2.11.46.11.79,0,.69-.22,1.2-.67,1.54s-.98.5-1.6.5-1.15-.1-1.59-.3-.67-.44-.67-.74c0-.15.06-.29.19-.4.13-.12.26-.15.4-.09.89.35,1.44.52,1.67.52.41,0,.72-.1.93-.3.22-.2.33-.46.33-.77s-.12-.55-.37-.71c-.25-.17-.54-.29-.89-.36-.34-.08-.69-.16-1.03-.25-.34-.09-.64-.26-.88-.5-.25-.24-.37-.58-.37-1.02Z"/>
      <path class="cls-53" d="M293.34,105.19c0-.44.23-.82.68-1.14s1.01-.47,1.66-.47,1.15.08,1.49.25.51.39.51.65c0,.12-.04.22-.12.3-.08.08-.18.12-.29.12s-.34-.08-.67-.23c-.33-.15-.64-.23-.91-.23s-.55.07-.85.22c-.3.15-.45.33-.45.54s.18.41.54.58c.36.17.78.32,1.27.44s.82.24.98.36c.17.12.28.21.35.28.07.07.14.21.22.41.08.2.11.46.11.79,0,.69-.22,1.2-.67,1.54s-.98.5-1.6.5-1.15-.1-1.59-.3-.67-.44-.67-.74c0-.15.06-.29.19-.4.13-.12.26-.15.4-.09.89.35,1.44.52,1.67.52.41,0,.72-.1.93-.3.22-.2.33-.46.33-.77s-.12-.55-.37-.71c-.25-.17-.54-.29-.89-.36-.34-.08-.69-.16-1.03-.25-.34-.09-.64-.26-.88-.5-.25-.24-.37-.58-.37-1.02Z"/>
      <path class="cls-53" d="M303.04,104.17s-.01-.1-.01-.18.06-.17.18-.27c.12-.09.24-.14.36-.14s.23.04.33.11c.1.08.15.16.16.25.09.95.14,1.7.14,2.25s-.01.97-.04,1.27c-.07.92-.29,1.59-.69,2.02s-.99.64-1.8.64c-.59,0-1.09-.17-1.49-.52-.4-.34-.67-.8-.83-1.35-.25-.84-.37-1.77-.37-2.8,0-.44.02-.89.07-1.35,0-.13.08-.24.22-.33s.26-.13.38-.13.21.04.29.11c.08.08.11.17.1.3-.05.49-.07.93-.07,1.32s0,.74.03,1.05c.06.76.23,1.4.52,1.93.29.53.67.8,1.15.8,1.03,0,1.54-.88,1.54-2.63,0-1.05-.06-1.84-.17-2.38Z"/>
      <path class="cls-53" d="M306.52,106.95l.03,1.85c0,.25,0,.38-.01.4l2.45-.04c.27.03.41.15.41.35,0,.4-.18.59-.55.59l-2.78.03c-.17,0-.29-.06-.38-.18-.08-.12-.12-.24-.13-.38,0-.13-.01-.28-.01-.44v-2.35c-.12-.07-.18-.17-.18-.3s.05-.25.16-.35c-.03-.74-.04-1.41-.04-2.01,0-.35.21-.53.64-.54h.4l2.48.04h.01c.3.04.45.18.45.42,0,.19-.06.32-.17.38-.25.13-.83.2-1.77.2-.35,0-.7-.01-1.05-.04,0,.85,0,1.33.01,1.43.37,0,1.09.01,2.17.01.29.04.44.17.44.4,0,.11-.05.22-.14.33-.09.1-.2.16-.3.18-.11.01-.34.02-.69.02s-.83,0-1.42-.01Z"/>
      <path class="cls-53" d="M252.1,116.1c.61,0,1.13.1,1.56.31.43.21.64.47.64.79,0,.14-.04.26-.11.37-.07.1-.17.16-.31.16s-.43-.11-.88-.32c-.45-.21-.87-.32-1.24-.32s-.76.12-1.15.35c-.4.24-.59.52-.59.86,0,.46.24.8.72,1.02.36.16.87.3,1.54.43.67.13,1.22.39,1.64.78.42.39.64.98.64,1.78,0,1.21-.36,2.1-1.09,2.68-.41.32-.98.48-1.72.48s-1.48-.2-2.22-.61c-.48-.25-.72-.51-.72-.76,0-.09.04-.2.12-.31s.19-.21.33-.28c.14-.08.27-.09.39-.04.12.05.31.14.57.28.26.13.46.22.58.27.4.15.77.23,1.12.23s.69-.17,1.01-.52c.33-.34.49-.77.49-1.27,0-.66-.33-1.12-.99-1.39-.32-.13-.68-.23-1.09-.3-.84-.15-1.47-.4-1.9-.76-.42-.35-.64-.89-.64-1.61s.31-1.28.92-1.69c.61-.41,1.4-.62,2.36-.62Z"/>
      <path class="cls-53" d="M256.39,125.09c-.04.24-.21.35-.5.35s-.45-.12-.45-.37c0-.56.27-1.69.82-3.4.25-.78.52-1.43.82-1.95.3-.52.59-.78.88-.78.15,0,.28.09.4.27s.32.59.62,1.22.54,1.31.74,2.02.42,1.58.65,2.61c0,.12-.04.22-.13.29-.08.07-.19.11-.31.11-.3,0-.49-.13-.57-.4l-.5-1.94c-.83,0-1.5-.07-2-.2-.28,1.04-.44,1.76-.48,2.15ZM257.92,120.25c-.31.53-.57,1.12-.76,1.77.42.11.91.17,1.47.17-.18-.65-.42-1.3-.71-1.94Z"/>
      <path class="cls-53" d="M266.91,118.6c.27,0,.41.13.41.4.03,1.68.04,3.64.04,5.88,0,.15-.05.29-.16.41-.11.12-.28.18-.52.18s-.35-.16-.35-.47c0-1,0-1.74-.02-2.23s-.02-1.01-.02-1.58c-.35.42-.69.72-1.01.89s-.76.25-1.3.25-.96-.15-1.26-.44c0,1.69,0,2.68-.03,2.97-.02.4-.24.59-.67.59-.25,0-.38-.14-.38-.41l.04-2.62v-2.79c0-.13.05-.26.16-.38.1-.12.22-.18.36-.18s.26.03.37.09.17.15.18.28c.02.48.16.91.42,1.29.26.38.55.57.88.57.95,0,1.61-.51,1.98-1.54.02-.05.06-.17.12-.37.06-.2.11-.33.15-.41s.11-.16.22-.25.24-.13.39-.13Z"/>
      <path class="cls-53" d="M270.13,118.93c.68,0,1.22.15,1.64.45.41.3.62.7.62,1.2,0,.77-.24,1.34-.72,1.71-.35.26-.82.4-1.42.4-.23,0-.47-.02-.74-.06.03.56.04,1.04.04,1.45s0,.77-.03,1.07c-.02.22-.16.33-.41.33s-.42-.05-.5-.16c-.08-.1-.12-.26-.12-.47v-5.32c.02-.4.57-.59,1.64-.59ZM269.48,119.93c-.02.28-.03.59-.03.91v.77c.25.03.52.04.82.04s.55-.06.75-.17c.27-.15.41-.43.41-.85v-.13c-.02-.25-.25-.42-.68-.54-.25-.07-.47-.1-.68-.1s-.41.02-.59.06Z"/>
      <path class="cls-53" d="M275.33,125.48h-1.34c-.24-.01-.37-.08-.4-.23-.06-.4-.08-1.01-.08-1.86l.1-4.11c0-.24.18-.35.54-.35.18,0,.33.04.44.13s.17.2.17.35c-.02.4-.07.94-.16,1.64-.1.92-.16,1.58-.16,2s.01.92.04,1.51l2.1-.13c.31,0,.47.16.47.48,0,.26-.1.42-.3.45-.42.07-.9.1-1.42.1Z"/>
      <path class="cls-53" d="M279.05,122.28l.03,1.85c0,.25,0,.38-.01.4l2.45-.04c.27.03.41.15.41.35,0,.4-.18.59-.55.59l-2.78.03c-.17,0-.29-.06-.38-.18s-.12-.24-.13-.38c0-.13-.01-.28-.01-.44v-2.35c-.12-.07-.18-.17-.18-.3s.05-.25.16-.35c-.03-.74-.04-1.41-.04-2.01,0-.35.21-.53.64-.54h.4l2.48.04h.01c.3.04.45.18.45.42,0,.19-.06.32-.17.38-.25.13-.83.2-1.77.2-.35,0-.7-.01-1.05-.04,0,.85,0,1.33.01,1.43.37,0,1.09.01,2.17.01.29.04.44.17.44.4,0,.11-.05.22-.14.33-.09.1-.2.16-.3.18-.11.01-.34.02-.69.02s-.83,0-1.42-.01Z"/>
      <path class="cls-53" d="M283.29,120.53c0-.44.23-.82.68-1.14.45-.32,1.01-.47,1.66-.47s1.15.08,1.49.25c.34.17.51.39.51.65,0,.12-.04.22-.12.3s-.18.12-.29.12-.34-.08-.67-.23c-.33-.15-.64-.23-.91-.23s-.55.07-.85.22c-.3.15-.45.33-.45.54s.18.41.54.58c.36.17.78.32,1.27.44.49.12.82.24.98.36s.28.21.35.28.14.21.22.41c.08.2.11.46.11.79,0,.69-.22,1.2-.67,1.54s-.98.5-1.6.5-1.15-.1-1.59-.3c-.44-.2-.67-.44-.67-.74,0-.15.06-.29.19-.4.13-.12.26-.15.4-.09.89.35,1.44.52,1.67.52.41,0,.72-.1.93-.3.22-.2.33-.46.33-.77s-.12-.55-.37-.72-.54-.29-.88-.36c-.34-.08-.69-.16-1.03-.25-.34-.09-.64-.26-.88-.5-.25-.24-.37-.58-.37-1.02Z"/>
    </g>
    <g>
      <path class="cls-53" d="M10.07,100.69c.2,0,.33.14.41.42-.06.95-.12,1.63-.18,2.03-.07.4-.12.75-.16,1.05-.04.3-.07.51-.08.62s-.05.34-.12.69-.13.7-.21,1.04c-.07.34-.11.55-.13.62-.01.07-.1.49-.26,1.27-.16.78-.28,1.25-.36,1.43-.08.17-.22.26-.41.26s-.35-.06-.46-.17c-.43-.59-.84-1.33-1.23-2.21-.09-.23-.2-.47-.32-.74-.12-.26-.21-.46-.26-.59l-.13-.3c-.2.34-.47.92-.82,1.73-.35.81-.66,1.46-.92,1.95-.17.22-.36.33-.57.33-.43,0-.76-1.16-.99-3.47,0,0,0-.06-.02-.16-.01-.09-.03-.26-.06-.5-.02-.24-.05-.5-.08-.79s-.15-1.48-.36-3.58c0-.19.07-.36.21-.52.14-.16.3-.23.47-.23.21,0,.35.14.42.41.25,3.07.51,5.33.76,6.8.08-.13.27-.57.58-1.31s.59-1.33.85-1.77c.25-.44.5-.66.74-.66.16,0,.3.08.41.25.59,1.69,1.1,2.88,1.53,3.57,0-.1.07-.39.17-.85l.18-.91c0-.06.01-.14.04-.24.02-.1.04-.21.06-.3.01-.1.03-.19.05-.28l.16-.89c.23-1.4.37-2.54.42-3.44.04-.16.12-.3.26-.42.14-.12.28-.18.42-.18Z"/>
      <path class="cls-53" d="M15.4,107.24v2.09c-.01.53-.18.79-.52.79-.16,0-.28-.03-.36-.1-.08-.07-.12-.17-.11-.31.04-.5.06-1.3.06-2.39-.16.02-.41.03-.74.03s-.86-.04-1.56-.11v.3c0,.2.04.92.11,2.15,0,.15-.04.26-.16.33-.12.07-.24.11-.36.11s-.22-.04-.29-.11c-.07-.07-.11-.15-.12-.25-.1-.98-.16-1.73-.16-2.23s0-.85.01-1.03l.06-2.36c0-.11.07-.21.19-.29s.24-.12.38-.12c.25,0,.37.1.37.31l-.03,2.22c.47.08.88.11,1.23.11h1.08c-.03-.52-.04-1.3-.04-2.35,0-.13.06-.24.19-.33s.26-.13.41-.13.25.07.3.2c.06.13.08.26.07.38v3.07Z"/>
      <path class="cls-53" d="M19.39,103.66c.7,0,1.26.27,1.69.81.43.54.64,1.27.64,2.21s-.24,1.74-.71,2.42-1.07,1.02-1.8,1.02c-.79,0-1.44-.34-1.94-1.02-.5-.68-.75-1.51-.75-2.49s.26-1.72.78-2.21c.52-.49,1.21-.74,2.08-.74ZM20.71,106.83c0-.75-.11-1.31-.33-1.66-.22-.35-.6-.53-1.15-.53s-.97.17-1.27.5-.45.81-.45,1.43.16,1.19.48,1.72c.32.53.76.79,1.33.79.32,0,.59-.14.82-.41.38-.47.57-1.09.57-1.84Z"/>
      <path class="cls-53" d="M24.64,110.15h-1.34c-.24-.01-.37-.08-.4-.23-.06-.4-.08-1.01-.08-1.86l.1-4.11c0-.24.18-.35.54-.35.18,0,.33.04.44.13s.17.2.17.35c-.02.4-.07.94-.16,1.64-.1.92-.16,1.58-.16,2s.01.92.04,1.51l2.1-.13c.31,0,.47.16.47.48,0,.26-.1.42-.3.45-.42.07-.9.1-1.42.1Z"/>
      <path class="cls-53" d="M28.37,106.95l.03,1.85c0,.25,0,.38-.01.4l2.45-.04c.27.03.41.15.41.35,0,.4-.18.59-.55.59l-2.77.03c-.17,0-.3-.06-.38-.18s-.12-.24-.13-.38c0-.13-.01-.28-.01-.44v-2.35c-.12-.07-.18-.17-.18-.3s.05-.25.16-.35c-.03-.74-.04-1.41-.04-2.01,0-.35.21-.53.64-.54h.4l2.48.04h.01c.3.04.45.18.45.42,0,.19-.06.32-.17.38-.25.13-.83.2-1.77.2-.35,0-.7-.01-1.05-.04,0,.85,0,1.33.01,1.43.37,0,1.09.01,2.17.01.29.04.44.17.44.4,0,.11-.05.22-.14.33-.09.1-.2.16-.3.18-.11.01-.34.02-.69.02s-.83,0-1.42-.01Z"/>
      <path class="cls-53" d="M40.34,104.81l-1.15-.14c-1.53,0-2.29.76-2.29,2.29,0,.77.23,1.39.69,1.84.23.24.46.35.71.35s.67-.11,1.29-.33c.61-.22.94-.33.99-.33.25,0,.38.12.38.35,0,.2-.11.37-.33.51-1.18.5-2.03.75-2.56.75-.32,0-.64-.1-.95-.31-.31-.21-.56-.48-.74-.81-.37-.65-.55-1.35-.55-2.09,0-1,.3-1.79.91-2.38s1.38-.88,2.32-.88c.55,0,1.09.09,1.63.27h0c.17.12.25.24.25.37s-.07.25-.21.36-.27.16-.4.16Z"/>
      <path class="cls-53" d="M43.37,106.95l.03,1.85c0,.25,0,.38-.01.4l2.45-.04c.27.03.41.15.41.35,0,.4-.18.59-.55.59l-2.77.03c-.17,0-.3-.06-.38-.18s-.12-.24-.13-.38c0-.13-.01-.28-.01-.44v-2.35c-.12-.07-.18-.17-.18-.3s.05-.25.16-.35c-.03-.74-.04-1.41-.04-2.01,0-.35.21-.53.64-.54h.4l2.48.04h.01c.3.04.45.18.45.42,0,.19-.06.32-.17.38-.25.13-.83.2-1.77.2-.35,0-.7-.01-1.05-.04,0,.85,0,1.33.01,1.43.37,0,1.09.01,2.17.01.29.04.44.17.44.4,0,.11-.05.22-.14.33-.09.1-.2.16-.3.18-.11.01-.34.02-.69.02s-.83,0-1.42-.01Z"/>
      <path class="cls-53" d="M48.84,110.16l-1.17-.03c-.24,0-.37-.07-.4-.21-.06-.4-.08-1.01-.08-1.86l.1-4.11c0-.24.18-.35.54-.35.18,0,.33.04.44.13s.17.2.17.35c-.02.4-.07.94-.14,1.64-.11.92-.17,1.58-.17,2s.01.92.04,1.51l1.73-.1c0-.24-.01-.59-.01-1.08l.1-4.11c0-.24.18-.35.54-.35.18,0,.33.04.44.13s.17.2.17.35c-.02.4-.07.94-.14,1.64-.11.92-.17,1.58-.17,2s.01.92.04,1.51l2.1-.13c.31,0,.47.16.47.48,0,.26-.1.42-.3.45-.42.07-.9.1-1.43.1h-1.33c-.11-.01-.2-.03-.27-.06-.39.05-.8.07-1.25.07Z"/>
      <path class="cls-53" d="M55.52,109.55c0,.5-.13.92-.39,1.27-.26.35-.5.52-.72.52s-.33-.07-.33-.21c0-.07.1-.22.29-.46.19-.24.31-.45.36-.62-.21,0-.39-.08-.55-.24-.16-.16-.24-.35-.24-.57s.07-.41.2-.57c.13-.16.31-.24.52-.24s.39.04.51.13c.24.15.35.48.35.98ZM54.76,104.24c.17,0,.33.07.48.22s.25.36.28.63c0,.2-.08.38-.23.55s-.31.25-.47.25c-.31,0-.55-.08-.71-.24-.09-.08-.14-.2-.14-.34,0-.35.09-.62.27-.8.18-.18.35-.28.52-.28Z"/>
      <path class="cls-53" d="M63.45,100.76c.61,0,1.13.1,1.56.31.43.21.64.47.64.79,0,.14-.04.26-.11.37-.07.1-.17.16-.31.16s-.43-.11-.88-.32c-.45-.21-.87-.32-1.24-.32s-.76.12-1.15.35c-.4.24-.59.52-.59.86,0,.46.24.8.72,1.02.36.16.87.3,1.54.43.67.13,1.22.39,1.64.78s.64.98.64,1.78c0,1.21-.36,2.1-1.09,2.68-.41.32-.98.48-1.72.48s-1.48-.2-2.22-.61c-.48-.25-.72-.51-.72-.76,0-.09.04-.2.12-.31s.19-.21.33-.28.27-.09.39-.04c.12.05.31.14.57.28.26.13.46.22.58.27.4.15.77.23,1.12.23s.69-.17,1.01-.52c.33-.34.49-.77.49-1.27,0-.66-.33-1.12-.99-1.39-.32-.13-.68-.23-1.09-.3-.84-.15-1.47-.4-1.9-.76-.42-.35-.64-.89-.64-1.61s.31-1.28.92-1.69c.61-.41,1.4-.62,2.36-.62Z"/>
      <path class="cls-53" d="M70.78,104.17s-.01-.1-.01-.18.06-.17.18-.27c.12-.09.24-.14.36-.14s.23.04.33.11c.1.08.15.16.16.25.09.95.14,1.7.14,2.25s-.01.97-.04,1.27c-.07.92-.29,1.59-.69,2.02-.39.43-.99.64-1.81.64-.59,0-1.09-.17-1.49-.52-.4-.34-.67-.79-.83-1.35-.25-.84-.37-1.77-.37-2.8,0-.44.02-.89.07-1.34,0-.13.08-.24.22-.33s.26-.13.38-.13.21.04.29.11c.08.08.11.17.1.3-.05.49-.07.93-.07,1.32s0,.74.03,1.05c.06.75.23,1.4.52,1.93s.67.8,1.15.8c1.03,0,1.54-.88,1.54-2.63,0-1.05-.06-1.84-.17-2.38Z"/>
      <path class="cls-53" d="M73.43,104.1c.21-.35.63-.52,1.27-.52s1.17.15,1.58.46.62.71.62,1.21-.15.9-.44,1.2c.33.08.6.28.82.62s.33.69.33,1.05c0,.6-.21,1.11-.64,1.53-.3.32-1.57.48-3.79.48,0-.05,0-.25-.01-.61-.03-1.08-.04-2.28-.04-3.62,0-.85.1-1.45.31-1.8ZM75.55,107.13c-.43,0-.92.04-1.46.11,0,.2-.01.46-.01.8s.02.74.07,1.22h.41c.2,0,.49-.03.88-.08.86-.14,1.29-.5,1.29-1.06,0-.66-.39-.99-1.17-.99ZM74.11,105.18v1.2c.52,0,.97-.09,1.35-.26.38-.17.57-.46.57-.87,0-.23-.11-.41-.34-.56s-.5-.22-.81-.22-.52.06-.62.17-.16.29-.16.54Z"/>
      <path class="cls-53" d="M83.27,104.81l-1.15-.14c-1.53,0-2.29.76-2.29,2.29,0,.77.23,1.39.69,1.84.23.24.46.35.71.35s.67-.11,1.29-.33c.61-.22.94-.33.99-.33.25,0,.38.12.38.35,0,.2-.11.37-.33.51-1.18.5-2.03.75-2.56.75-.32,0-.64-.1-.95-.31-.31-.21-.56-.48-.74-.81-.37-.65-.55-1.35-.55-2.09,0-1,.3-1.79.91-2.38s1.38-.88,2.32-.88c.55,0,1.09.09,1.63.27h0c.17.12.25.24.25.37s-.07.25-.21.36-.27.16-.4.16Z"/>
      <path class="cls-53" d="M86.3,106.95l.03,1.85c0,.25,0,.38-.01.4l2.45-.04c.27.03.41.15.41.35,0,.4-.18.59-.55.59l-2.77.03c-.17,0-.3-.06-.38-.18s-.12-.24-.13-.38c0-.13-.01-.28-.01-.44v-2.35c-.12-.07-.18-.17-.18-.3s.05-.25.16-.35c-.03-.74-.04-1.41-.04-2.01,0-.35.21-.53.64-.54h.4l2.48.04h.01c.3.04.45.18.45.42,0,.19-.06.32-.17.38-.25.13-.83.2-1.77.2-.35,0-.7-.01-1.05-.04,0,.85,0,1.33.01,1.43.37,0,1.09.01,2.17.01.29.04.44.17.44.4,0,.11-.05.22-.14.33-.09.1-.2.16-.3.18-.11.01-.34.02-.69.02s-.83,0-1.42-.01Z"/>
      <path class="cls-53" d="M91.76,110.16l-1.17-.03c-.24,0-.37-.07-.4-.21-.06-.4-.08-1.01-.08-1.86l.1-4.11c0-.24.18-.35.54-.35.18,0,.33.04.44.13s.17.2.17.35c-.02.4-.07.94-.14,1.64-.11.92-.17,1.58-.17,2s.01.92.04,1.51l1.73-.1c0-.24-.01-.59-.01-1.08l.1-4.11c0-.24.18-.35.54-.35.18,0,.33.04.44.13s.17.2.17.35c-.02.4-.07.94-.14,1.64-.11.92-.17,1.58-.17,2s.01.92.04,1.51l2.1-.13c.31,0,.47.16.47.48,0,.26-.1.42-.3.45-.42.07-.9.1-1.43.1h-1.33c-.11-.01-.2-.03-.27-.06-.39.05-.8.07-1.25.07Z"/>
      <path class="cls-53" d="M100.67,104.17s-.01-.1-.01-.18.06-.17.18-.27c.12-.09.24-.14.36-.14s.23.04.33.11c.1.08.15.16.16.25.09.95.14,1.7.14,2.25s-.01.97-.04,1.27c-.07.92-.29,1.59-.69,2.02-.39.43-.99.64-1.81.64-.59,0-1.09-.17-1.49-.52-.4-.34-.67-.79-.83-1.35-.25-.84-.37-1.77-.37-2.8,0-.44.02-.89.07-1.34,0-.13.08-.24.22-.33s.26-.13.38-.13.21.04.29.11c.08.08.11.17.1.3-.05.49-.07.93-.07,1.32s0,.74.03,1.05c.06.75.23,1.4.52,1.93s.67.8,1.15.8c1.03,0,1.54-.88,1.54-2.63,0-1.05-.06-1.84-.17-2.38Z"/>
      <path class="cls-53" d="M104.67,110.15h-1.34c-.24-.01-.37-.08-.4-.23-.06-.4-.08-1.01-.08-1.86l.1-4.11c0-.24.18-.35.54-.35.18,0,.33.04.44.13s.17.2.17.35c-.02.4-.07.94-.16,1.64-.1.92-.16,1.58-.16,2s.01.92.04,1.51l2.1-.13c.31,0,.47.16.47.48,0,.26-.1.42-.3.45-.42.07-.9.1-1.42.1Z"/>
      <path class="cls-53" d="M108.24,109.75c-.04.24-.21.35-.5.35s-.45-.12-.45-.37c0-.56.27-1.69.82-3.4.25-.78.52-1.43.82-1.95.3-.52.59-.78.88-.78.15,0,.28.09.4.27.11.18.32.59.62,1.22.3.64.54,1.31.74,2.02.2.71.42,1.58.65,2.61,0,.12-.04.22-.13.29-.08.07-.19.11-.31.11-.3,0-.49-.13-.57-.4l-.5-1.94c-.83,0-1.5-.07-2-.2-.28,1.04-.44,1.76-.48,2.15ZM109.77,104.91c-.31.53-.57,1.12-.76,1.77.42.11.91.17,1.47.17-.18-.65-.42-1.3-.71-1.94Z"/>
      <path class="cls-53" d="M114.54,109.61c0,.14-.07.26-.2.37-.13.1-.28.16-.44.16-.21,0-.31-.09-.31-.28-.04-.44-.06-2.2-.06-5.28,0-.3.18-.54.54-.71s.85-.25,1.46-.25,1.14.15,1.6.45c.46.3.69.67.69,1.09,0,.21-.09.44-.27.69s-.37.46-.57.6c-.2.15-.49.32-.87.53-.38.21-.61.32-.69.34.59.38,1.12.79,1.59,1.23.46.44.69.79.69,1.05s-.11.42-.34.5c-.07.02-.15.03-.25.03s-.24-.1-.4-.3c-.16-.2-.46-.5-.91-.88-.44-.38-.88-.72-1.32-1.03.02.75.04,1.32.06,1.68h0ZM114.48,106.65c.31,0,.78-.15,1.4-.46.62-.31.95-.59.98-.86,0-.25-.14-.45-.42-.57-.28-.13-.58-.19-.89-.19-.36,0-.71.04-1.05.13,0,.45-.01,1.1-.01,1.95Z"/>
      <path class="cls-53" d="M120.95,109.55c0,.5-.13.92-.39,1.27-.26.35-.5.52-.72.52s-.33-.07-.33-.21c0-.07.1-.22.29-.46.19-.24.31-.45.36-.62-.21,0-.39-.08-.55-.24-.16-.16-.24-.35-.24-.57s.07-.41.2-.57c.13-.16.31-.24.52-.24s.39.04.51.13c.24.15.35.48.35.98ZM120.2,104.24c.17,0,.33.07.48.22s.25.36.28.63c0,.2-.08.38-.23.55s-.31.25-.47.25c-.31,0-.55-.08-.71-.24-.09-.08-.14-.2-.14-.34,0-.35.09-.62.27-.8.18-.18.35-.28.52-.28Z"/>
      <path class="cls-53" d="M4.86,116.21c.63,0,1.33.12,2.1.37.17.13.25.28.25.43s-.08.29-.23.41-.33.18-.53.18c-.51-.13-.99-.2-1.43-.2-1.02,0-1.79.3-2.32.91-.53.6-.79,1.5-.79,2.69s.31,2.12.93,2.79c.32.35.7.52,1.15.52s1.15-.24,2.12-.71c.34-.16.57-.24.68-.24.25,0,.37.13.37.38s-.12.47-.35.64c-.81.42-1.44.71-1.9.86s-.84.22-1.17.22c-.68,0-1.26-.25-1.74-.75-.86-.92-1.29-2.19-1.29-3.79s.41-2.78,1.22-3.55c.82-.77,1.8-1.15,2.94-1.15Z"/>
      <path class="cls-53" d="M9.57,122.28l.03,1.85c0,.25,0,.38-.01.4l2.45-.04c.27.03.41.15.41.35,0,.4-.18.59-.55.59l-2.77.03c-.17,0-.3-.06-.38-.18s-.12-.24-.13-.38c0-.13-.01-.28-.01-.44v-2.35c-.12-.07-.18-.17-.18-.3s.05-.25.16-.35c-.03-.74-.04-1.41-.04-2.01,0-.35.21-.53.64-.54h.4l2.48.04h.01c.3.04.45.18.45.42,0,.19-.06.32-.17.38-.25.13-.83.2-1.77.2-.35,0-.7-.01-1.05-.04,0,.85,0,1.33.01,1.43.37,0,1.09.01,2.17.01.29.04.44.17.44.4,0,.11-.05.22-.14.33-.09.1-.2.16-.3.18-.11.01-.34.02-.69.02s-.83,0-1.42-.01Z"/>
      <path class="cls-53" d="M15.04,125.5l-1.17-.03c-.24,0-.37-.07-.4-.21-.06-.4-.08-1.01-.08-1.86l.1-4.11c0-.24.18-.35.54-.35.18,0,.33.04.44.13s.17.2.17.35c-.02.4-.07.94-.14,1.64-.11.92-.17,1.58-.17,2s.01.92.04,1.51l1.73-.1c0-.24-.01-.59-.01-1.08l.1-4.11c0-.24.18-.35.54-.35.18,0,.33.04.44.13s.17.2.17.35c-.02.4-.07.94-.14,1.64-.11.92-.17,1.58-.17,2s.01.92.04,1.51l2.1-.13c.31,0,.47.16.47.48,0,.26-.1.42-.3.45-.42.07-.9.1-1.43.1h-1.33c-.11-.01-.2-.03-.27-.06-.39.05-.8.07-1.25.07Z"/>
      <path class="cls-53" d="M23.16,120.53c0-.44.23-.82.68-1.14.45-.32,1.01-.47,1.66-.47s1.15.08,1.49.25c.34.17.51.39.51.65,0,.12-.04.22-.12.3-.08.08-.18.12-.29.12s-.34-.08-.67-.23c-.33-.15-.64-.23-.91-.23s-.55.07-.85.22c-.3.15-.45.33-.45.54s.18.41.54.58.78.32,1.27.44c.49.12.82.24.98.36.17.12.28.21.35.28.07.07.14.21.22.41.08.2.11.46.11.79,0,.69-.22,1.2-.67,1.54s-.98.5-1.6.5-1.15-.1-1.59-.3c-.44-.2-.67-.44-.67-.74,0-.15.06-.29.19-.4s.26-.15.4-.09c.89.35,1.44.52,1.67.52.41,0,.72-.1.93-.3.22-.2.33-.46.33-.77s-.12-.55-.37-.71c-.25-.17-.54-.29-.89-.36-.34-.08-.69-.16-1.03-.25-.34-.09-.64-.26-.88-.5-.25-.24-.37-.58-.37-1.02Z"/>
      <path class="cls-53" d="M32.86,119.51s-.01-.1-.01-.18.06-.17.18-.27c.12-.09.24-.14.36-.14s.23.04.33.11c.1.08.15.16.16.25.09.95.14,1.7.14,2.25s-.01.97-.04,1.27c-.07.92-.29,1.59-.69,2.02-.39.43-.99.64-1.81.64-.59,0-1.09-.17-1.49-.52-.4-.34-.67-.79-.83-1.35-.25-.84-.37-1.77-.37-2.8,0-.44.02-.89.07-1.34,0-.13.08-.24.22-.33s.26-.13.38-.13.21.04.29.11c.08.08.11.17.1.3-.05.49-.07.93-.07,1.32s0,.74.03,1.05c.06.75.23,1.4.52,1.93s.67.8,1.15.8c1.03,0,1.54-.88,1.54-2.63,0-1.05-.06-1.84-.17-2.38Z"/>
      <path class="cls-53" d="M36.26,124.95c0,.14-.07.26-.2.37-.13.1-.28.16-.44.16-.21,0-.31-.09-.31-.28-.04-.44-.06-2.2-.06-5.28,0-.3.18-.54.54-.71s.85-.25,1.46-.25,1.14.15,1.6.45c.46.3.69.67.69,1.09,0,.21-.09.44-.27.69s-.37.46-.57.6c-.2.15-.49.32-.87.53-.38.21-.61.32-.69.34.59.38,1.12.79,1.59,1.23.46.44.69.79.69,1.05s-.11.42-.34.5c-.07.02-.15.03-.25.03s-.24-.1-.4-.3c-.16-.2-.46-.5-.91-.88-.44-.38-.88-.72-1.32-1.03.02.75.04,1.32.06,1.68h0ZM36.2,121.99c.31,0,.78-.15,1.4-.46.62-.31.95-.59.98-.86,0-.25-.14-.45-.42-.57-.28-.13-.58-.19-.89-.19-.36,0-.71.04-1.05.13,0,.45-.01,1.1-.01,1.95Z"/>
      <path class="cls-53" d="M43.8,122.48h-1.76c0,.88.01,1.66.04,2.35,0,.44-.15.67-.44.67s-.46-.18-.51-.54c-.02-.08-.03-.47-.03-1.16v-2.24c0-.81,0-1.34-.01-1.59-.25-.03-.37-.21-.37-.54,0-.08.04-.17.13-.28.11-.14.23-.21.35-.21s.33.01.64.04,1.01.04,2.1.04c.55,0,.82.15.82.45,0,.24-.08.37-.23.41-.05.02-.08.04-.1.05-.02.01-.06.02-.13.03-.07,0-.1,0-.11,0-.05.02-.16.03-.33.04-.17,0-.42.01-.72.01s-.67-.01-1.1-.04v1.53h1.84c.08,0,.17.05.25.14.08.09.13.21.13.33s-.04.24-.12.34c-.08.1-.2.15-.35.15Z"/>
      <path class="cls-53" d="M46.81,125.09c-.04.24-.21.35-.5.35s-.45-.12-.45-.37c0-.56.27-1.69.82-3.4.25-.78.52-1.43.82-1.95.3-.52.59-.78.88-.78.15,0,.28.09.4.27.11.18.32.59.62,1.22.3.64.54,1.31.74,2.02.2.71.42,1.58.65,2.61,0,.12-.04.22-.13.29-.08.07-.19.11-.31.11-.3,0-.49-.13-.57-.4l-.5-1.94c-.83,0-1.5-.07-2-.2-.28,1.04-.44,1.76-.48,2.15ZM48.33,120.25c-.31.53-.57,1.12-.76,1.77.42.11.91.17,1.47.17-.18-.65-.42-1.3-.71-1.94Z"/>
      <path class="cls-53" d="M56.53,120.15l-1.15-.14c-1.53,0-2.29.76-2.29,2.29,0,.77.23,1.39.69,1.84.23.24.46.35.71.35s.67-.11,1.29-.33c.61-.22.94-.33.99-.33.25,0,.38.12.38.35,0,.2-.11.37-.33.51-1.18.5-2.03.75-2.56.75-.32,0-.64-.1-.95-.31-.31-.21-.56-.48-.74-.81-.37-.65-.55-1.35-.55-2.09,0-1,.3-1.79.91-2.38s1.38-.88,2.32-.88c.55,0,1.09.09,1.63.27h0c.17.12.25.24.25.37s-.07.25-.21.36-.27.16-.4.16Z"/>
      <path class="cls-53" d="M59.56,122.28l.03,1.85c0,.25,0,.38-.01.4l2.45-.04c.27.03.41.15.41.35,0,.4-.18.59-.55.59l-2.77.03c-.17,0-.3-.06-.38-.18s-.12-.24-.13-.38c0-.13-.01-.28-.01-.44v-2.35c-.12-.07-.18-.17-.18-.3s.05-.25.16-.35c-.03-.74-.04-1.41-.04-2.01,0-.35.21-.53.64-.54h.4l2.48.04h.01c.3.04.45.18.45.42,0,.19-.06.32-.17.38-.25.13-.83.2-1.77.2-.35,0-.7-.01-1.05-.04,0,.85,0,1.33.01,1.43.37,0,1.09.01,2.17.01.29.04.44.17.44.4,0,.11-.05.22-.14.33-.09.1-.2.16-.3.18-.11.01-.34.02-.69.02s-.83,0-1.42-.01Z"/>
      <path class="cls-53" d="M65.61,124.89c0,.5-.13.92-.39,1.27-.26.35-.5.52-.72.52s-.33-.07-.33-.21c0-.07.1-.22.29-.46.19-.24.31-.45.36-.62-.21,0-.39-.08-.55-.24-.16-.16-.24-.35-.24-.57s.07-.41.2-.57c.13-.16.31-.24.52-.24s.39.04.51.13c.24.15.35.48.35.98ZM64.85,119.58c.17,0,.33.07.48.22s.25.36.28.63c0,.2-.08.38-.23.55s-.31.25-.47.25c-.31,0-.55-.08-.71-.24-.09-.08-.14-.2-.14-.34,0-.35.09-.62.27-.8.18-.18.35-.28.52-.28Z"/>
      <path class="cls-53" d="M73.53,116.1c.61,0,1.13.1,1.56.31.43.21.64.47.64.79,0,.14-.04.26-.11.37-.07.1-.17.16-.31.16s-.43-.11-.88-.32c-.45-.21-.87-.32-1.24-.32s-.76.12-1.15.35c-.4.24-.59.52-.59.86,0,.46.24.8.72,1.02.36.16.87.3,1.54.43.67.13,1.22.39,1.64.78s.64.98.64,1.78c0,1.21-.36,2.1-1.09,2.68-.41.32-.98.48-1.72.48s-1.48-.2-2.22-.61c-.48-.25-.72-.51-.72-.76,0-.09.04-.2.12-.31s.19-.21.33-.28.27-.09.39-.04c.12.05.31.14.57.28.26.13.46.22.58.27.4.15.77.23,1.12.23s.69-.17,1.01-.52c.33-.34.49-.77.49-1.27,0-.66-.33-1.12-.99-1.39-.32-.13-.68-.23-1.09-.3-.84-.15-1.47-.4-1.9-.76-.42-.35-.64-.89-.64-1.61s.31-1.28.92-1.69c.61-.41,1.4-.62,2.36-.62Z"/>
      <path class="cls-53" d="M77.98,122.28l.03,1.85c0,.25,0,.38-.01.4l2.45-.04c.27.03.41.15.41.35,0,.4-.18.59-.55.59l-2.77.03c-.17,0-.3-.06-.38-.18s-.12-.24-.13-.38c0-.13-.01-.28-.01-.44v-2.35c-.12-.07-.18-.17-.18-.3s.05-.25.16-.35c-.03-.74-.04-1.41-.04-2.01,0-.35.21-.53.64-.54h.4l2.48.04h.01c.3.04.45.18.45.42,0,.19-.06.32-.17.38-.25.13-.83.2-1.77.2-.35,0-.7-.01-1.05-.04,0,.85,0,1.33.01,1.43.37,0,1.09.01,2.17.01.29.04.44.17.44.4,0,.11-.05.22-.14.33-.09.1-.2.16-.3.18-.11.01-.34.02-.69.02s-.83,0-1.42-.01Z"/>
      <path class="cls-53" d="M86.7,120.15l-1.15-.14c-1.53,0-2.29.76-2.29,2.29,0,.77.23,1.39.69,1.84.23.24.46.35.71.35s.67-.11,1.29-.33c.61-.22.94-.33.99-.33.25,0,.38.12.38.35,0,.2-.11.37-.33.51-1.18.5-2.03.75-2.56.75-.32,0-.64-.1-.95-.31-.31-.21-.56-.48-.74-.81-.37-.65-.55-1.35-.55-2.09,0-1,.3-1.79.91-2.38s1.38-.88,2.32-.88c.55,0,1.09.09,1.63.27h0c.17.12.25.24.25.37s-.07.25-.21.36-.27.16-.4.16Z"/>
      <path class="cls-53" d="M89.65,124.95c0,.14-.07.26-.2.37-.13.1-.28.16-.44.16-.21,0-.31-.09-.31-.28-.04-.44-.06-2.2-.06-5.28,0-.3.18-.54.54-.71s.85-.25,1.46-.25,1.14.15,1.6.45c.46.3.69.67.69,1.09,0,.21-.09.44-.27.69s-.37.46-.57.6c-.2.15-.49.32-.87.53-.38.21-.61.32-.69.34.59.38,1.12.79,1.59,1.23.46.44.69.79.69,1.05s-.11.42-.34.5c-.07.02-.15.03-.25.03s-.24-.1-.4-.3c-.16-.2-.46-.5-.91-.88-.44-.38-.88-.72-1.32-1.03.02.75.04,1.32.06,1.68h0ZM89.59,121.99c.31,0,.78-.15,1.4-.46.62-.31.95-.59.98-.86,0-.25-.14-.45-.42-.57-.28-.13-.58-.19-.89-.19-.36,0-.71.04-1.05.13,0,.45-.01,1.1-.01,1.95Z"/>
      <path class="cls-53" d="M95.39,122.28l.03,1.85c0,.25,0,.38-.01.4l2.45-.04c.27.03.41.15.41.35,0,.4-.18.59-.55.59l-2.77.03c-.17,0-.3-.06-.38-.18s-.12-.24-.13-.38c0-.13-.01-.28-.01-.44v-2.35c-.12-.07-.18-.17-.18-.3s.05-.25.16-.35c-.03-.74-.04-1.41-.04-2.01,0-.35.21-.53.64-.54h.4l2.48.04h.01c.3.04.45.18.45.42,0,.19-.06.32-.17.38-.25.13-.83.2-1.77.2-.35,0-.7-.01-1.05-.04,0,.85,0,1.33.01,1.43.37,0,1.09.01,2.17.01.29.04.44.17.44.4,0,.11-.05.22-.14.33-.09.1-.2.16-.3.18-.11.01-.34.02-.69.02s-.83,0-1.42-.01Z"/>
      <path class="cls-53" d="M102.46,119.79l-.03,3.35c0,.7,0,1.31.03,1.84,0,.14-.05.26-.18.35-.13.09-.26.13-.39.13-.25,0-.37-.13-.37-.4-.03-1.03-.04-2.01-.04-2.94s.03-1.7.08-2.3c-.57.05-1.14.07-1.73.07-.29,0-.44-.12-.44-.37,0-.11.05-.23.16-.34s.23-.17.36-.18l4.42-.14c.25.06.38.18.38.37,0,.39-.44.58-1.33.58l-.93-.03Z"/>
      <path class="cls-53" d="M108.5,119c.7,0,1.26.27,1.69.81.43.54.64,1.27.64,2.21s-.24,1.74-.71,2.42-1.07,1.02-1.8,1.02c-.79,0-1.44-.34-1.94-1.02-.5-.68-.75-1.51-.75-2.49s.26-1.72.78-2.21c.52-.49,1.21-.74,2.08-.74ZM109.82,122.17c0-.75-.11-1.31-.33-1.66-.22-.35-.6-.53-1.15-.53s-.97.17-1.27.5-.45.81-.45,1.43.16,1.19.48,1.72c.32.53.76.79,1.33.79.32,0,.59-.14.82-.41.38-.47.57-1.09.57-1.84Z"/>
      <path class="cls-53" d="M117.37,118.6c.27,0,.41.13.41.4.03,1.68.04,3.64.04,5.88,0,.15-.05.29-.16.41-.11.12-.28.18-.52.18s-.35-.16-.35-.47c0-1,0-1.74-.02-2.23-.01-.49-.02-1.01-.02-1.58-.35.42-.69.72-1.01.89s-.76.25-1.3.25-.96-.15-1.26-.44c0,1.69,0,2.68-.03,2.97-.02.4-.24.59-.67.59-.25,0-.38-.14-.38-.41l.04-2.62v-2.79c0-.13.05-.26.16-.38.1-.12.22-.18.36-.18s.26.03.37.09.17.15.18.28c.02.48.16.91.42,1.29.26.38.55.57.88.57.95,0,1.61-.51,1.98-1.54.02-.05.06-.17.12-.37.06-.2.11-.33.15-.41.04-.08.11-.16.22-.25.11-.09.24-.13.39-.13Z"/>
      <path class="cls-53" d="M120.03,122.28l.03,1.85c0,.25,0,.38-.01.4l2.45-.04c.27.03.41.15.41.35,0,.4-.18.59-.55.59l-2.77.03c-.17,0-.3-.06-.38-.18s-.12-.24-.13-.38c0-.13-.01-.28-.01-.44v-2.35c-.12-.07-.18-.17-.18-.3s.05-.25.16-.35c-.03-.74-.04-1.41-.04-2.01,0-.35.21-.53.64-.54h.4l2.48.04h.01c.3.04.45.18.45.42,0,.19-.06.32-.17.38-.25.13-.83.2-1.77.2-.35,0-.7-.01-1.05-.04,0,.85,0,1.33.01,1.43.37,0,1.09.01,2.17.01.29.04.44.17.44.4,0,.11-.05.22-.14.33-.09.1-.2.16-.3.18-.11.01-.34.02-.69.02s-.83,0-1.42-.01Z"/>
    </g>
    <g>
      <path class="cls-53" d="M137.85,100.73c.45,0,.9.11,1.35.34s.67.48.67.76c0,.43-.18.65-.54.65-.13,0-.36-.08-.69-.25-.33-.17-.61-.25-.83-.25-.81,0-1.49.36-2.03,1.09-.54.73-.81,1.65-.81,2.77,0,.84.18,1.58.55,2.21.37.63.8.95,1.31.95s.9-.17,1.19-.5.43-.72.43-1.14c0-.24-.02-.43-.05-.59-.03-.16-.12-.3-.25-.42-.13-.13-.31-.19-.52-.19s-.42-.05-.62-.14c-.19-.09-.29-.22-.29-.38s.05-.31.14-.45c.09-.14.22-.23.38-.25.64,0,1.07.07,1.3.2s.39.24.5.33.21.23.28.42c.08.2.13.36.18.5.04.13.07.34.09.64.02.49.03,1.06.03,1.72s-.05,1.06-.14,1.21c-.08.12-.23.19-.42.19s-.33-.04-.41-.12c-.08-.08-.12-.27-.14-.57-.23.2-.51.37-.86.5-.34.14-.65.21-.91.21-.83,0-1.53-.44-2.09-1.32s-.85-1.95-.85-3.19c0-.66.11-1.31.33-1.95.22-.64.51-1.17.88-1.61.77-.9,1.73-1.34,2.86-1.34Z"/>
      <path class="cls-53" d="M142.2,110.14h-1.35c-.24-.01-.37-.08-.4-.23-.06-.4-.08-1.01-.08-1.86l.1-4.11c0-.24.18-.35.54-.35.18,0,.33.04.44.13s.17.2.17.35c-.02.4-.07.94-.16,1.64-.1.92-.16,1.58-.16,2s.01.92.04,1.51l2.09-.13c.31,0,.47.16.47.48,0,.26-.1.42-.3.45-.42.07-.9.1-1.42.1Z"/>
      <path class="cls-53" d="M147.56,103.66c.7,0,1.26.27,1.69.81s.64,1.27.64,2.21-.24,1.74-.71,2.42-1.07,1.02-1.8,1.02c-.79,0-1.44-.34-1.94-1.02-.5-.68-.75-1.51-.75-2.49s.26-1.72.78-2.21c.52-.49,1.21-.74,2.08-.74ZM148.88,106.83c0-.75-.11-1.31-.33-1.66-.22-.35-.6-.53-1.15-.53s-.97.17-1.27.5c-.3.33-.45.81-.45,1.43s.16,1.19.48,1.72c.32.53.76.79,1.33.79.32,0,.59-.14.82-.41.38-.47.57-1.09.57-1.84Z"/>
      <path class="cls-53" d="M151.46,104.1c.21-.35.63-.52,1.27-.52s1.17.15,1.58.46.62.71.62,1.21-.15.9-.44,1.2c.33.08.6.28.82.62s.33.69.33,1.05c0,.6-.21,1.11-.64,1.53-.3.32-1.57.48-3.79.48,0-.05,0-.25-.01-.61-.03-1.08-.04-2.28-.04-3.62,0-.85.1-1.45.31-1.8ZM153.58,107.13c-.43,0-.92.04-1.46.11,0,.2-.01.46-.01.8s.02.74.07,1.22h.41c.2,0,.49-.03.88-.08.86-.14,1.29-.5,1.29-1.06,0-.66-.39-.99-1.18-.99ZM152.14,105.18v1.2c.52,0,.97-.09,1.35-.26.38-.17.57-.46.57-.87,0-.23-.11-.41-.34-.56s-.5-.22-.81-.22-.52.06-.62.17-.16.29-.16.54Z"/>
      <path class="cls-53" d="M157.8,109.75c-.04.24-.21.35-.5.35s-.45-.12-.45-.37c0-.56.27-1.69.82-3.4.25-.78.52-1.43.82-1.95.3-.52.59-.78.88-.78.15,0,.28.09.4.27.11.18.32.59.62,1.22.3.64.55,1.31.74,2.02.2.71.42,1.58.65,2.61,0,.12-.04.22-.13.29-.08.07-.19.11-.31.11-.3,0-.49-.13-.57-.4l-.5-1.94c-.83,0-1.5-.07-2-.2-.28,1.04-.44,1.76-.48,2.15ZM159.33,104.91c-.31.53-.57,1.12-.76,1.77.42.11.91.17,1.47.17-.18-.65-.42-1.3-.71-1.94Z"/>
      <path class="cls-53" d="M164.71,110.14h-1.35c-.24-.01-.37-.08-.4-.23-.06-.4-.08-1.01-.08-1.86l.1-4.11c0-.24.18-.35.54-.35.18,0,.33.04.44.13s.17.2.17.35c-.02.4-.07.94-.16,1.64-.1.92-.16,1.58-.16,2s.01.92.04,1.51l2.09-.13c.31,0,.47.16.47.48,0,.26-.1.42-.3.45-.42.07-.9.1-1.42.1Z"/>
      <path class="cls-53" d="M170.78,108.69c-.07-.97-.1-2.29-.1-3.94s.02-2.73.07-3.22c.05-.3.25-.5.62-.6.37-.1.85-.15,1.46-.15.89,0,1.64.19,2.24.57.61.38.91.95.91,1.69,0,.61-.08,1.12-.25,1.54-.17.41-.38.71-.64.91-.42.32-1.03.48-1.84.48-.35,0-.81-.05-1.37-.14.05,1.89.07,3.08.06,3.57,0,.49-.17.74-.5.74-.21,0-.34-.04-.4-.11s-.09-.13-.11-.16c-.02-.03-.04-.08-.06-.15-.02-.07-.03-.12-.04-.16,0-.04-.02-.11-.02-.19,0-.08-.01-.15-.02-.2,0-.14-.01-.3-.01-.47ZM174.81,103.07c0-.38-.21-.68-.62-.91s-.86-.33-1.33-.33-.8.04-.99.13c-.04.56-.06,1.07-.06,1.54s.02.89.06,1.27c.25.03.43.05.52.07.25.03.46.04.63.04s.29,0,.35,0c.06,0,.18-.02.35-.04s.3-.06.38-.12c.08-.06.17-.13.28-.23.11-.09.19-.2.24-.33.12-.34.18-.7.18-1.08Z"/>
      <path class="cls-53" d="M177.41,100.94l5.73-.08c.27.08.41.22.41.41,0,.47-.19.71-.58.71-.71,0-1.46.02-2.25.06-.05.81-.07,1.42-.07,1.83v.79l.06,4.97c0,.29-.08.46-.23.51-.11.04-.25.06-.42.06-.27,0-.42-.16-.45-.47-.06-.73-.08-2.08-.08-4.07s.03-3.18.08-3.59c-.2,0-.49.01-.88.01s-.87,0-1.44-.01c-.15,0-.27-.05-.35-.14-.08-.09-.13-.21-.13-.35s.06-.27.18-.4c.12-.13.26-.21.43-.23Z"/>
      <path class="cls-53" d="M190.67,100.7c.23,0,.37.17.44.5.05,1.54.07,3.22.07,5.03s0,2.87-.03,3.15-.08.48-.18.59c-.1.11-.29.17-.57.17-.25,0-.37-.15-.37-.45v-3.2c0-.52,0-1.05-.03-1.6-.02-.55-.03-.89-.03-1.03-.32.55-.75,1-1.27,1.35-.53.35-1.12.53-1.77.53s-1.2-.27-1.64-.81c-.02.58-.03,1.26-.03,2.05s0,1.62.01,2.49c0,.24-.08.41-.23.52-.16.11-.33.16-.53.16-.25,0-.38-.16-.38-.47,0-.85.01-2.19.01-4.04v-4.02c0-.16.05-.32.16-.47.11-.15.24-.23.38-.23s.28.04.4.12.19.2.2.36c.04,1.05.21,1.83.51,2.34s.66.76,1.08.76.77-.07,1.07-.21c.3-.14.54-.29.74-.47.19-.18.38-.43.56-.76.25-.47.5-1.05.74-1.74.14-.42.37-.62.69-.62Z"/>
      <path class="cls-53" d="M143.17,125.09c-.04.24-.21.35-.5.35s-.45-.12-.45-.37c0-.56.27-1.69.82-3.4.25-.78.52-1.43.82-1.95.3-.52.59-.78.88-.78.15,0,.28.09.4.27.11.18.32.59.62,1.22.3.64.55,1.31.74,2.02.2.71.42,1.58.65,2.61,0,.12-.04.22-.13.29-.08.07-.19.11-.31.11-.3,0-.49-.13-.57-.4l-.5-1.94c-.83,0-1.5-.07-2-.2-.28,1.04-.44,1.76-.48,2.15ZM144.7,120.24c-.31.53-.57,1.12-.76,1.77.42.11.91.17,1.47.17-.18-.65-.42-1.3-.71-1.94Z"/>
      <path class="cls-53" d="M149.47,121.05l-.16,3.44c0,.3-.02.5-.03.61-.04.25-.2.38-.5.38-.11,0-.21-.04-.3-.12-.09-.08-.14-.18-.15-.3.08-2.45.11-3.78.11-3.97v-.64c0-.24.02-.45.07-.64.07-.25.24-.38.51-.38.13,0,.3.09.5.27.2.18.49.51.86.99.9,1.1,1.58,2.15,2.04,3.13-.02-1.34-.05-2.36-.1-3.07-.05-.7-.07-1.09-.07-1.15v-.11c.07-.36.26-.54.58-.54.12,0,.24.05.34.16.1.11.16.24.16.4l.07,5.27c0,.49-.2.74-.59.74-.24,0-.42-.08-.55-.25s-.23-.29-.28-.39c-.06-.09-.14-.25-.25-.45-.73-1.37-1.48-2.49-2.25-3.37Z"/>
      <path class="cls-53" d="M155.63,125.09c-.04.24-.21.35-.5.35s-.45-.12-.45-.37c0-.56.27-1.69.82-3.4.25-.78.52-1.43.82-1.95.3-.52.59-.78.88-.78.15,0,.28.09.4.27.11.18.32.59.62,1.22.3.64.55,1.31.74,2.02.2.71.42,1.58.65,2.61,0,.12-.04.22-.13.29-.08.07-.19.11-.31.11-.3,0-.49-.13-.57-.4l-.5-1.94c-.83,0-1.5-.07-2-.2-.28,1.04-.44,1.76-.48,2.15ZM157.16,120.24c-.31.53-.57,1.12-.76,1.77.42.11.91.17,1.47.17-.18-.65-.42-1.3-.71-1.94Z"/>
      <path class="cls-53" d="M162.54,125.48h-1.35c-.24-.01-.37-.08-.4-.23-.06-.4-.08-1.01-.08-1.86l.1-4.11c0-.24.18-.35.54-.35.18,0,.33.04.44.13s.17.2.17.35c-.02.4-.07.94-.16,1.64-.1.92-.16,1.58-.16,2s.01.92.04,1.51l2.09-.13c.31,0,.47.16.47.48,0,.26-.1.42-.3.45-.42.07-.9.1-1.42.1Z"/>
      <path class="cls-53" d="M168.93,118.89c.25.03.37.14.37.34,0,.25-.13.57-.38.98-.08.13-.21.32-.37.56-.16.24-.27.41-.33.51-.06.1-.16.24-.3.43-.14.19-.25.36-.35.52v1.23c0,.85-.03,1.4-.08,1.64-.06.25-.23.37-.52.37-.08,0-.15-.02-.18-.06-.1-.1-.16-.42-.16-.93v-1.53c.01-.25,0-.5-.03-.75-.39-.5-.92-1.36-1.59-2.58-.03-.05-.04-.1-.04-.17s.03-.14.08-.21c.13-.2.29-.3.48-.3.14,0,.49.48,1.03,1.43.25.42.43.73.55.91.16-.24.34-.51.54-.83s.34-.55.44-.7c.28-.44.5-.71.65-.79.07-.05.13-.07.18-.07Z"/>
      <path class="cls-53" d="M170.5,120.53c0-.44.23-.82.68-1.14.45-.32,1.01-.47,1.66-.47s1.15.08,1.49.25.51.39.51.65c0,.12-.04.22-.12.3s-.18.12-.29.12-.34-.08-.67-.23c-.34-.15-.64-.23-.91-.23s-.55.07-.85.22c-.3.15-.45.33-.45.54s.18.41.54.58.78.32,1.27.44c.49.12.82.24.98.36s.28.21.35.28.14.21.22.41c.08.2.11.46.11.79,0,.69-.22,1.2-.67,1.54s-.98.5-1.6.5-1.15-.1-1.59-.3c-.44-.2-.67-.44-.67-.74,0-.15.06-.29.19-.4.13-.12.26-.15.4-.09.89.35,1.44.52,1.67.52.41,0,.72-.1.93-.3.22-.2.33-.46.33-.77s-.12-.55-.37-.71c-.25-.17-.54-.29-.88-.36-.34-.08-.69-.16-1.03-.25-.34-.09-.64-.26-.88-.5-.25-.24-.37-.58-.37-1.02Z"/>
      <path class="cls-53" d="M176.46,125.47c-.26,0-.4-.11-.4-.34l.06-5.76c0-.13.05-.24.14-.32.09-.08.21-.12.35-.12s.25.03.35.1c.1.07.15.18.16.33,0,.16.01.5.01,1.04,0,2.52-.02,4.05-.06,4.6,0,.12-.08.23-.22.33-.14.09-.27.14-.4.14Z"/>
      <path class="cls-53" d="M178.28,120.53c0-.44.23-.82.68-1.14.45-.32,1.01-.47,1.66-.47s1.15.08,1.49.25.51.39.51.65c0,.12-.04.22-.12.3s-.18.12-.29.12-.34-.08-.67-.23c-.34-.15-.64-.23-.91-.23s-.55.07-.85.22c-.3.15-.45.33-.45.54s.18.41.54.58.78.32,1.27.44c.49.12.82.24.98.36s.28.21.35.28.14.21.22.41c.08.2.11.46.11.79,0,.69-.22,1.2-.67,1.54s-.98.5-1.6.5-1.15-.1-1.59-.3c-.44-.2-.67-.44-.67-.74,0-.15.06-.29.19-.4.13-.12.26-.15.4-.09.89.35,1.44.52,1.67.52.41,0,.72-.1.93-.3.22-.2.33-.46.33-.77s-.12-.55-.37-.71c-.25-.17-.54-.29-.88-.36-.34-.08-.69-.16-1.03-.25-.34-.09-.64-.26-.88-.5-.25-.24-.37-.58-.37-1.02Z"/>
    </g>
    <g>
      <g>
        <path class="cls-10" d="M211.18,17.25c-1.46-.23-1.96-1-1.83-2.83.08-1.13.9-1.84,2.16-1.84,3.99,0,7.98,0,11.97,0,1.46,0,2.21.57,2.37,1.81.22,1.64-.29,2.47-1.79,2.89-.08.02-.13.1-.2.16-.21.25-.1.55-.1.82,0,9.74,0,19.47,0,29.21,0,1.99.13,4-.3,5.97-.87,2.58-3.24,4.07-5.79,4.14-2.54.07-4.86-1.56-5.85-3.97-.6-1.78-.46-3.62-.46-5.45,0-10.01,0-20.03-.01-30.04,0-.28.19-.63-.15-.86Z"/>
        <path class="cls-11" d="M211.18,17.25c.43.25.24.67.24,1.01.01,10.64.01,21.28,0,31.92,0,.98.09,1.94.42,2.86.07.2.15.38-.03.55-.48-.97-.57-2.01-.57-3.08,0-10.58,0-21.16,0-31.73,0-.51-.04-1.03-.06-1.54Z"/>
        <path class="cls-18" d="M223.45,53.44c-.14-.14-.16-.32-.1-.48.43-1.11.32-2.26.32-3.4,0-10.43,0-20.85,0-31.28,0-.28.02-.56.04-.85,0-.01.04-.03.07-.03.03,0,.05.02.08.03,0,4.02.02,8.04.02,12.06,0,6.98,0,13.96,0,20.94,0,1.03-.11,2.03-.43,3Z"/>
        <path class="cls-8" d="M222.77,52.58c-.7,2.5-2.8,4.14-5.23,4.09-2.54-.06-4.64-1.79-5.26-4.34-.04-.16-.1-.32-.15-.48-.17-.17-.11-.38-.11-.57,0-11.19-.01-22.39,0-33.58.07-.2.23-.2.39-.16.02.02.06.04.06.06.1,1.34,1.05,1.16,1.99,1.23,2.18.16,4.34-.19,6.51-.11.62.02,1.27-.04,1.75.5.1.37.06.74.06,1.11,0,10.15,0,20.31.01,30.46,0,.6-.19,1.19-.04,1.79Z"/>
        <path class="cls-8" d="M217.63,16.38c-2.01,0-4.02,0-6.03,0-1.04,0-1.38-.36-1.38-1.4,0-1.08.37-1.49,1.4-1.5,3.96,0,7.92,0,11.89,0,1.13,0,1.45.36,1.43,1.52-.02,1.14-.27,1.38-1.45,1.38-1.95,0-3.9,0-5.86,0Z"/>
        <path class="cls-44" d="M212.46,17.59c-.11,0-.22,0-.32,0-.08-.12-.05-.2.08-.24,3.4-.03,6.81,0,10.21-.01.17,0,.35-.03.5.09.01.43.04.86.04,1.29,0,10.56,0,21.13,0,31.69,0,.74-.06,1.46-.2,2.19-.26-.3-.14-.66-.14-.99,0-10.82,0-21.64,0-32.45-.04-.04-.06-.1-.1-.14-.3-.31.11-.93-.44-1.1-.38-.11-.79-.03-1.19-.03-2.4,0-4.8,0-7.2,0-.42,0-.87.05-1.22-.27Z"/>
        <path class="cls-11" d="M212.15,17.41c0,.06-.01.11-.02.17-.01,2.47-.03,4.93-.03,7.4,0,8.58,0,17.16,0,25.74,0,.37.02.75.03,1.12-.05.06-.09.29-.16.15-.09-.18-.03-.45-.03-.68,0-11.04,0-22.08,0-33.11,0-.32-.17-.7.21-.94.04.05.04.11,0,.16Z"/>
        <path class="cls-8" d="M212.15,17.41c-.02-.05-.02-.11,0-.16,3.32.01,6.65.02,9.97.04.26,0,.57-.15.8.12-3.59,0-7.18,0-10.77,0Z"/>
        <path class="cls-31" d="M221.57,52.23c-.59,1.43-1.46,2.62-3,3.09-2.27.68-5.06-1.53-5.06-3.97,0-6.68.03-13.37,0-20.05,0-.66.18-.81.81-.8,2.41.04,4.82.02,7.23.03.21.18.12.43.12.65,0,6.8,0,13.6,0,20.4,0,.22.08.46-.11.66Z"/>
        <path class="cls-47" d="M212.46,17.59c3.06,0,6.13.03,9.19-.02.77-.01,1.18.09.98.97-.04.19,0,.4-.01.6-1.87-.31-3.75-.13-5.62,0-1.32.09-2.63-.23-3.95,0-.44.08-.63-.15-.6-.59.02-.31,0-.63.01-.94Z"/>
        <path class="cls-44" d="M221.57,52.23c0-7.23,0-14.47-.01-21.7.34.22.21.57.21.86,0,6.66,0,13.31,0,19.97,0,.3.13.64-.19.87Z"/>
      </g>
      <g>
        <path class="cls-5" d="M207.69,68.84l-1.29-.03c-.07-.28-.12-1.54-.13-3.78v-.71c0-.57.05-1,.16-1.29.11-.3.33-.54.67-.71.17-.09.42-.13.73-.13s.55.02.71.06c.45.09.75.27.92.52.16.25.25.59.25,1.02,0,.59-.16,1.03-.47,1.31.16.02.32.1.48.24.16.14.29.28.39.43.17.27.26.63.26,1.09,0,.72-.22,1.23-.65,1.54-.44.3-1.11.46-2.02.46ZM209.33,66.1c-.07-.07-.18-.14-.32-.19-.14-.06-.34-.09-.6-.09s-.71.04-1.34.13c0,1.04.02,1.74.05,2.11.78,0,1.33-.05,1.64-.16s.52-.23.63-.38c.11-.15.17-.31.17-.48s0-.29,0-.36c0-.07-.02-.17-.06-.29-.04-.12-.09-.22-.16-.29ZM207.07,63.97l.02,1.14s.13-.01.34-.04c.21-.03.39-.06.54-.09.67-.16,1.01-.54,1.01-1.15,0-.3-.09-.52-.27-.66-.18-.14-.41-.21-.69-.21-.36,0-.6.06-.73.19-.05.05-.1.1-.13.13-.03.04-.06.09-.07.17s-.02.14-.02.17,0,.1,0,.19c0,.09,0,.15,0,.16Z"/>
        <path class="cls-5" d="M212.36,68.87h-.95c-.17,0-.26-.06-.28-.16-.04-.28-.06-.72-.06-1.31l.07-2.9c0-.17.13-.25.38-.25.13,0,.23.03.31.09.08.06.12.14.12.25-.01.28-.05.67-.11,1.16-.07.65-.11,1.12-.11,1.41s0,.65.03,1.07l1.48-.09c.22,0,.33.11.33.34,0,.19-.07.29-.21.32-.3.05-.63.07-1,.07Z"/>
        <path class="cls-5" d="M216.15,64.29c.49,0,.89.19,1.19.57s.46.9.46,1.56-.17,1.23-.5,1.71c-.33.48-.76.72-1.27.72-.56,0-1.02-.24-1.37-.72-.35-.48-.53-1.07-.53-1.76s.18-1.21.55-1.56.86-.52,1.47-.52ZM217.08,66.53c0-.53-.08-.92-.23-1.17s-.42-.38-.81-.38-.69.12-.9.35c-.21.24-.32.57-.32,1.01s.11.84.34,1.21.54.56.94.56c.23,0,.42-.1.58-.29.27-.33.4-.77.4-1.3Z"/>
        <path class="cls-5" d="M220.65,64.29c.49,0,.89.19,1.19.57s.46.9.46,1.56-.17,1.23-.5,1.71c-.33.48-.76.72-1.27.72-.56,0-1.02-.24-1.37-.72-.35-.48-.53-1.07-.53-1.76s.18-1.21.55-1.56.86-.52,1.47-.52ZM221.58,66.53c0-.53-.08-.92-.23-1.17s-.42-.38-.81-.38-.69.12-.9.35c-.21.24-.32.57-.32,1.01s.11.84.34,1.21.54.56.94.56c.23,0,.42-.1.58-.29.27-.33.4-.77.4-1.3Z"/>
        <path class="cls-5" d="M223.43,68.6c-.09-.07-.13-.13-.13-.21s.02-.13.07-.2c-.07-.51-.11-1.11-.14-1.78-.03-.67-.04-1.05-.04-1.14s0-.19,0-.29.02-.22.04-.34c.05-.25.2-.38.46-.38.69,0,1.35.31,1.98.93s.96,1.29.96,2.02c0,.55-.17.96-.51,1.24-.34.28-.8.42-1.39.42-.11,0-.27-.01-.48-.04,0,.11-.04.2-.13.28-.09.08-.19.12-.3.12-.17,0-.28-.09-.31-.26l-.09-.36ZM223.94,65c0,.07-.01.2-.01.38s.02.58.06,1.19c.04.62.08,1.14.15,1.58.05.01.26.02.62.02.78,0,1.17-.22,1.17-.66,0-.56-.18-1.06-.54-1.5-.36-.44-.84-.78-1.44-1.01Z"/>
        <path class="cls-5" d="M228.86,68.45c0,.35-.09.65-.28.9-.18.25-.35.37-.51.37s-.23-.05-.23-.15c0-.05.07-.16.21-.33.14-.17.22-.31.25-.43-.15,0-.28-.06-.39-.17s-.17-.25-.17-.4.05-.29.14-.4c.09-.11.22-.17.37-.17s.27.03.36.09c.17.11.25.34.25.69ZM228.33,64.7c.12,0,.23.05.34.16.11.1.18.25.2.45,0,.14-.05.27-.16.39-.11.12-.22.18-.33.18-.22,0-.39-.06-.5-.17-.07-.06-.1-.14-.1-.24,0-.25.06-.43.19-.56.13-.13.25-.2.37-.2Z"/>
        <path class="cls-5" d="M209.42,72.24c.43,0,.8.07,1.1.22.3.15.46.33.46.56,0,.1-.03.19-.08.26s-.12.11-.22.11-.3-.08-.62-.23c-.32-.15-.61-.22-.88-.22s-.53.08-.81.25c-.28.17-.42.37-.42.61,0,.33.17.57.51.72.25.11.62.21,1.09.3.47.09.86.27,1.16.55.3.28.45.7.45,1.25,0,.85-.26,1.48-.77,1.89-.29.23-.69.34-1.21.34s-1.04-.14-1.56-.43c-.34-.18-.51-.36-.51-.54,0-.07.03-.14.08-.22.06-.08.14-.15.24-.2.1-.05.19-.06.27-.03.08.04.22.1.4.2.19.09.32.16.41.19.28.11.54.16.79.16s.48-.12.71-.37c.23-.24.35-.54.35-.89,0-.47-.23-.79-.7-.98-.23-.09-.48-.16-.77-.21-.59-.11-1.04-.29-1.34-.54s-.45-.63-.45-1.13.22-.9.65-1.19c.43-.29.99-.44,1.67-.44Z"/>
        <path class="cls-5" d="M212.56,76.61l.02,1.31c0,.17,0,.27,0,.28l1.73-.03c.19.02.29.1.29.25,0,.28-.13.42-.39.42l-1.96.02c-.12,0-.21-.04-.27-.12s-.09-.17-.1-.26c0-.09,0-.2,0-.31v-1.66c-.09-.05-.13-.12-.13-.21s.04-.18.11-.25c-.02-.52-.03-.99-.03-1.42,0-.25.15-.37.45-.38h.28l1.75.03h0c.21.03.32.13.32.3,0,.13-.04.22-.12.27-.17.09-.59.14-1.25.14-.25,0-.49,0-.74-.03,0,.6,0,.94.01,1.01.26,0,.77.01,1.53.01.21.03.31.12.31.28,0,.08-.03.16-.1.23s-.14.12-.21.12-.24.01-.49.01-.58,0-1,0Z"/>
        <path class="cls-5" d="M216.3,78.49c0,.1-.05.19-.14.26-.09.07-.2.11-.31.11-.15,0-.22-.07-.22-.2-.03-.31-.04-1.56-.04-3.73,0-.21.13-.38.39-.5.26-.12.6-.18,1.03-.18s.81.11,1.13.32c.32.21.49.47.49.77,0,.15-.06.31-.19.49-.13.18-.26.32-.4.42-.14.1-.35.23-.62.38-.27.15-.43.23-.49.24.42.27.79.56,1.12.87s.49.56.49.74-.08.3-.24.35c-.05.01-.11.02-.18.02s-.17-.07-.28-.21c-.11-.14-.33-.35-.64-.62-.31-.27-.62-.51-.93-.73.01.53.03.93.04,1.19h0ZM216.26,76.4c.22,0,.55-.11.99-.33s.67-.42.69-.6c0-.18-.1-.32-.3-.41-.2-.09-.41-.13-.63-.13-.25,0-.5.03-.74.09,0,.32-.01.78-.01,1.38Z"/>
        <path class="cls-5" d="M222.4,74.65s0-.07,0-.13.04-.12.12-.19c.08-.07.17-.1.25-.1s.17.03.23.08.11.11.12.18c.07.67.1,1.2.1,1.59s0,.69-.03.9c-.05.65-.21,1.12-.48,1.42-.28.3-.7.46-1.28.46-.42,0-.77-.12-1.05-.37-.28-.24-.48-.56-.59-.96-.17-.59-.26-1.25-.26-1.98,0-.31.02-.63.05-.95,0-.09.06-.17.15-.23.1-.06.19-.09.27-.09s.15.03.21.08c.05.05.08.12.07.21-.03.35-.05.66-.05.94s0,.52.02.75c.04.53.16.99.37,1.36.21.38.48.57.81.57.73,0,1.09-.62,1.09-1.86,0-.74-.04-1.3-.12-1.68Z"/>
        <path class="cls-5" d="M227.78,74.01c.19,0,.29.09.29.28.02,1.19.03,2.57.03,4.15,0,.11-.04.2-.12.29s-.2.13-.36.13-.25-.11-.25-.33c0-.71,0-1.23-.02-1.58-.01-.34-.02-.71-.02-1.11-.25.3-.48.51-.71.63s-.54.18-.92.18-.68-.1-.89-.31c0,1.19,0,1.89-.02,2.1-.01.28-.17.42-.47.42-.18,0-.27-.1-.27-.29l.03-1.85v-1.97c0-.09.04-.18.11-.27s.16-.13.26-.13.18.02.26.06c.08.04.12.11.12.2.01.34.11.64.29.91.18.27.39.4.62.4.67,0,1.14-.36,1.4-1.09.01-.03.04-.12.09-.26.04-.14.08-.24.1-.29s.08-.11.15-.17.17-.09.27-.09Z"/>
      </g>
      <g>
        <g>
          <path class="cls-34" d="M235.48,38.01c0-4.15.02-8.3-.01-12.45,0-.97.34-1.56,1.25-1.96,5.34-2.36,10.7-4.67,15.96-7.19,2.02-.96,3.89-.5,5.81-.16,6.31,1.13,12.6,2.33,18.9,3.5,1.62.3,1.91.65,1.9,2.27-.01,6.37-.04,12.75-.03,19.12,0,.83-.21,1.48-.83,2.07-4.7,4.46-9.39,8.94-14.06,13.43-.68.65-1.38.79-2.31.62-6.19-1.11-12.4-2.16-18.6-3.24-1.99-.35-3.99-.69-5.97-1.08-1.49-.3-1.9-.85-1.9-2.36,0-4.19,0-8.37,0-12.56h-.1Z"/>
          <path class="cls-12" d="M262.78,56.15c-4.37-.74-8.69-1.46-13.01-2.21-4.03-.7-8.05-1.45-12.09-2.12-.73-.12-.88-.41-.88-1.08-.02-8.15-.07-16.3-.13-24.44,0-.79.13-.96,1-.81,7.81,1.38,15.63,2.69,23.44,4.02,1.96.33,1.96.34,1.94,2.27-.07,7.89-.15,15.78-.22,23.66,0,.22-.03.43-.05.71Z"/>
          <path class="cls-27" d="M264.22,55.11c0-7.97,0-15.92,0-23.88,0-1.17.41-1.86,1.53-2.46,4.13-2.19,8.18-4.54,12.41-6.92,0,.41,0,.72,0,1.02-.01,6.11-.02,12.22-.02,18.34,0,.51-.08.91-.47,1.28-4.45,4.18-8.89,8.38-13.33,12.58-.05.04-.13.05-.1.04Z"/>
          <path class="cls-12" d="M277.4,20.98c-4.53,2.53-8.89,4.91-13.2,7.38-.92.53-1.75.17-2.57.03-7.2-1.19-14.39-2.44-21.58-3.66-.61-.1-1.23-.17-2.1-.29.57-.29.92-.49,1.29-.65,4.22-1.9,8.49-3.71,12.65-5.75,2.04-1,3.95-1.16,6.14-.72,5.95,1.21,11.95,2.24,17.92,3.34.42.08.84.18,1.45.32Z"/>
          <path class="cls-24" d="M248.71,30.39c7.15.01,12.67,6.53,11.44,13.54-.96,5.5-7.34,9.25-12.78,7.3-3.95-1.41-7.01-4.01-8.16-8.24-1.28-4.69.69-11.03,7.52-12.46.64-.13,1.33-.1,1.99-.14Z"/>
          <path class="cls-23" d="M239.93,40.34c0-7.69,7.15-10.57,13.04-8.03,4.37,1.88,7.02,6.85,6.16,11.18-1.11,5.62-7.16,8.85-12.35,6.42-3.3-1.55-5.94-3.87-6.74-7.7-.04-.18-.1-.36-.11-.54-.02-.44,0-.89,0-1.33Z"/>
          <path class="cls-26" d="M246.58,41.12c-1.16-.02-2.43-1.36-2.42-2.57.01-1.43,1.44-2.79,2.92-2.78,1.55.02,2.88,1.25,2.86,2.64-.03,1.42-1.65,2.73-3.35,2.71Z"/>
          <path class="cls-50" d="M253.01,45.34c-.69.02-.89-.38-.86-.99.05-.98.85-1.7,1.83-1.69.73,0,.99.46,1.01,1.06.03.72-1.17,1.66-1.98,1.63Z"/>
        </g>
        <path class="cls-32" d="M283.88,43.39c.13.17.08.37.06.56-.15,1.47-.2,2.94-.08,4.42.03.35.1.71-.05,1.06-.15-2.01-.15-4.03.08-6.04Z"/>
        <path class="cls-46" d="M284.08,51.39s.07-.11.07-.1c.21,1.14.57,2.23,1.08,3.27,0,0-.03.04-.05.05-.6-.99-.91-2.09-1.11-3.23Z"/>
        <path class="cls-1" d="M291.09,15.54c-.01.15-.02.3-.04.45-.02,0-.05,0-.07,0v-2.83c.13.18.11.39.11.6,0,.59,0,1.19,0,1.78Z"/>
        <path class="cls-36" d="M289.69,13.4c.13.14.06.32.07.48,0,.63,0,1.25,0,1.88,0,.12.05.26-.08.35,0-.9.01-1.8.02-2.71Z"/>
        <path class="cls-2" d="M285.72,18.85c-.12.6,0,.72.65.75.4.01.82-.1,1.21.07-.5,0-1,.02-1.5,0-.51-.02-.66-.4-.37-.81Z"/>
        <g>
          <path class="cls-45" d="M299.45,53c-.91.34-1.82.67-2.73,1.01-1.01.38-1.97.84-2.94,1.3-.05-.02-.1-.03-.15,0-.71.37-1.43.69-2.15,1.04-1.78.71-3.53.92-5.17-.36-.47-.37-.84-.83-1.12-1.36-.14-.46-.42-.87-.57-1.33-.2-.62-.37-1.25-.49-1.89,0,0,0-.02-.02-.02-.01,0-.02,0-.04,0-.17-.64-.25-1.3-.28-1.97.07-.28,0-.56,0-.84-.08-1.45-.05-2.91.04-4.36.02-.28.14-.55.05-.84.52-4.37,1.83-8.47,4.56-11.97,2.73-3.51,6.13-6.14,10.55-7.24.46.03.88-.15,1.32-.22,1.33-.23,2.67-.32,4.03-.3.48,0,.95,0,1.43,0,.43.16.89.06,1.34.12.81.12,1.63.22,2.43.4.08.02.15.02.22-.02.4.07.8.14,1.18.29,1.08.35,2.19.62,3.26.98.51.17,1.03.32,1.54.49h-.01c1.39.45,2.76.95,4.16,1.38.08.03.16.1.25.03.02-.01.04-.01.07-.01.06,0,.12-.01.18,0,.37.11.77.15,1.09.4.34.12.68.24,1.02.36.57.27,1.2.4,1.8.6,1.08.36,2.15.74,3.16,1.27.09.05.18.11.28.1.84.46,1.56,1.05,2.01,1.91.53,1,.4,1.99-.18,2.92-.59.96-1.41,1.68-2.4,2.21-.85.39-1.67.83-2.51,1.24-.07.03-.14.06-.16.15-1.74,1.12-3.24,2.54-4.93,3.72-.19.13-.39.24-.59.36-.67.23-1.26.61-1.93.84-1.12.38-2.28.57-3.45.68-.05,0,.02-.01-.03,0-.03.01-.02.04.02.05-.58.1-1.16.2-1.74.31-1.11.2-1.92.79-2.46,1.8-1.58,2.97-4.12,4.75-7.22,5.85-.35,0-.66.17-.98.29-.57.2-1.17.32-1.72.59Z"/>
          <path class="cls-39" d="M321.36,56.86c-.24.4-.5.53-.92.43-.39-.09-.61-.36-.61-.82,0-.93,0-1.85,0-2.88-.4.52-.75.97-1.1,1.41-.09.11-.18.23-.28.32-.22.2-.48.26-.74.08-.25-.17-.27-.43-.16-.69.28-.61.57-1.2.87-1.83-.88.47-1.75.93-2.62,1.39-.48.26-.92.18-1.15-.2-.25-.41-.12-.85.35-1.15.73-.46,1.47-.91,2.2-1.37.06-.04.16-.04.16-.19-.51,0-1.02,0-1.53,0-.13,0-.26-.01-.38-.04-.27-.07-.48-.22-.49-.52-.01-.3.19-.47.46-.54.51-.14,1.02-.25,1.53-.38.12-.03.25-.06.45-.11-.42-.21-.78-.39-1.14-.58-.42-.22-.86-.42-1.27-.66-.43-.24-.57-.74-.36-1.13.22-.41.64-.53,1.13-.3.85.41,1.69.82,2.6,1.27-.29-.54-.55-1.01-.81-1.49-.08-.15-.16-.3-.2-.46-.06-.25-.04-.5.21-.65.24-.14.48-.11.68.07.21.19.41.39.6.6.33.34.65.69.98,1.04.1-.22.05-.45.04-.68,0-.8.03-1.61-.02-2.41.22-.42.56-.58,1.02-.47.34.08.57.39.58.86.01.65,0,1.29,0,1.94,0,.21,0,.41,0,.53.4-.36.83-.76,1.26-1.15.1-.1.2-.21.31-.29.25-.17.52-.17.75.02.22.19.21.44.09.67-.3.59-.61,1.18-.95,1.82.77-.33,1.47-.7,2.16-1.07.15-.08.29-.16.45-.23.42-.19.83-.07,1.04.29.22.39.14.89-.25,1.13-.46.28-.95.52-1.42.77-.33.17-.66.34-1.07.56.56.14,1.03.25,1.5.37.11.03.22.06.33.1.32.1.62.23.61.64,0,.27-.34.54-.75.55-.54.02-1.08,0-1.75,0,.46.29.83.52,1.21.75.46.28.93.55,1.39.84.32.21.39.55.29.89-.09.34-.35.53-.7.59-.22.04-.4-.07-.58-.17-.8-.44-1.59-.89-2.46-1.37.27.56.52,1.06.76,1.57.06.13.11.26.13.4.03.23-.04.43-.27.55-.25.12-.47.1-.67-.1-.42-.43-.73-.93-1.1-1.39-.09-.11-.17-.22-.27-.36-.09.3.02.59-.09.85-.1-.17-.02-.35-.04-.42,0-.15-.08-.08-.03-.1,0,.97.07,1.93.04,2.9Z"/>
          <path class="cls-39" d="M291.06,24.54c-.15.44-.4.61-.83.56-.37-.05-.61-.31-.62-.76-.02-.79,0-1.57,0-2.46-.26.33-.48.61-.7.88-.13.16-.27.31-.41.46-.18.19-.4.25-.63.1-.24-.17-.32-.4-.19-.67.24-.48.47-.97.74-1.52-.66.37-1.27.7-1.87,1.04-.17.09-.33.2-.5.29-.42.22-.81.12-1.03-.26-.21-.36-.12-.76.27-1.01.67-.44,1.35-.85,2.02-1.28.1-.07.25-.1.27-.25-.45-.08-.89-.02-1.34-.04-.58-.02-.74-.25-.52-.78.22-.24.53-.23.81-.3.33-.09.67-.16,1.09-.26-.41-.23-.77-.43-1.12-.64-.37-.21-.74-.42-1.1-.64-.43-.26-.55-.61-.35-.96.23-.4.6-.5,1.05-.27.78.41,1.57.82,2.4,1.25-.26-.51-.49-.97-.72-1.44-.14-.29-.19-.58.12-.79.32-.22.57-.04.78.19.29.31.55.65.82.98.05.06.08.13.17.13.09-.9.06-1.8.02-2.71.23-.63.85-.74,1.29-.23.11.64.03,1.28.05,1.92,0,.22,0,.44,0,.65.01-.06-.02-.14.05-.19.1.15.02.33.07.48.32-.31.64-.61.96-.92.1-.1.21-.2.32-.28.2-.14.4-.17.6,0,.21.17.24.39.14.63-.22.49-.48.97-.83,1.53.84-.46,1.57-.86,2.31-1.26.48-.26.89-.16,1.13.26.22.39.11.79-.33,1.05-.7.42-1.43.82-2.16,1.24.43.11.85.21,1.27.31.55.13.81.35.77.66-.04.33-.36.5-.93.5-.41,0-.82,0-1.29,0,.62.37,1.22.73,1.82,1.09.2.12.41.22.59.36.37.26.46.69.25,1.05-.21.37-.63.49-1.04.27-.75-.41-1.48-.84-2.29-1.3.19.38.35.71.51,1.03.07.15.15.3.21.45.1.26.05.49-.19.64-.24.16-.48.11-.66-.1-.33-.38-.64-.78-.96-1.17-.09-.11-.16-.24-.29-.3-.09.51-.03,1.02-.04,1.52,0,.42-.04.84.03,1.26Z"/>
          <path class="cls-39" d="M321.46,27.74c-.41-.06-.78-.23-1.17-.35-.09-.63-.01-1.26-.04-1.89,0-.16.04-.33-.04-.49-.38.27-.61.68-.95,1-.21.2-.41.38-.7.18-.3-.21-.25-.48-.11-.75.19-.35.38-.69.6-1.09-.72.4-1.38.78-2.05,1.15-.46.26-.84.21-1.08-.16-.23-.37-.1-.81.34-1.08.64-.39,1.29-.75,2.03-1.19-.29,0-.49,0-.68,0-.21,0-.42.01-.62-.01-.27-.04-.57-.1-.6-.44-.04-.37.25-.48.53-.55.42-.11.84-.2,1.32-.32-.65-.37-1.26-.71-1.87-1.05-.23-.13-.44-.29-.5-.56-.07-.3.02-.57.26-.76.25-.2.52-.18.79-.02.68.38,1.36.77,2.13,1.2-.24-.44-.44-.78-.62-1.12-.07-.14-.14-.28-.2-.42-.1-.23-.05-.44.16-.58.21-.15.42-.11.6.05.33.29.61.63.9.96.09.1.15.24.3.29.1-.76.02-1.53.04-2.29,0-.19,0-.38.06-.57.19-.31.49-.3.77-.24.27.06.42.26.44.54-.05.82-.05,1.64,0,2.47.11.11.12-.02.15-.07.25-.29.49-.6.76-.88.22-.23.45-.53.82-.29.4.26.16.59.02.89-.18.37-.37.72-.52,1.14.63-.36,1.26-.72,1.9-1.07.29-.16.58-.22.86.03.39.34.37.89-.08,1.18-.51.33-1.04.63-1.56.93-.12.07-.23.14-.4.23.44.11.82.21,1.21.3.29.07.59.18.56.53-.03.35-.34.47-.65.49-.4.02-.8,0-1.28,0,.58.43,1.13.73,1.68,1.06.17.1.34.18.5.29.33.24.4.61.18.95-.19.31-.51.41-.87.23-.35-.17-.68-.36-1.02-.55-.33-.19-.66-.38-1.02-.59.19.36.36.7.54,1.03.16.29.19.59-.12.79-.31.2-.53,0-.72-.23-.23-.28-.46-.56-.7-.83-.08-.09-.12-.24-.29-.23-.08.88-.06,1.76,0,2.63,0,.03,0,.06.01.09Z"/>
          <path class="cls-41" d="M305.8,23.7c-.76,0-1.52-.01-2.28,0-1.4.02-2.78.18-4.14.49-.14.03-.27.1-.4-.02,2.24-.57,4.52-.66,6.81-.54.02.01.02.03.02.04,0,.01-.01.02-.02.02Z"/>
          <path class="cls-49" d="M313.57,44.17c-.05,0-.1-.02-.15-.03,0-.01,0-.03,0-.04.27-.03.54-.06.81-.11.28-.04.55-.1.83-.14,1.26-.17,2.43-.59,3.55-1.17.11-.06.21-.21.37-.09-1.66,1-3.49,1.42-5.4,1.58Z"/>
          <path class="cls-16" d="M327.72,30.07c-.05.06-.11.05-.17.01-1.53-.83-3.18-1.31-4.83-1.81-.09-.03-.18-.07-.28-.11,0,0,0-.02,0-.03,0-.01.02-.02.03-.03,1.8.52,3.6,1.04,5.24,1.97Z"/>
          <path class="cls-9" d="M315.73,25.94c-.43-.04-.82-.21-1.22-.34-1.19-.38-2.38-.74-3.58-1.05-.18-.04-.08-.06,0-.09,1.34.28,2.63.73,3.93,1.14.3.09.63.11.88.34Z"/>
          <path class="cls-25" d="M320.13,27.35c-.07.09-.15.05-.24.03-1.37-.4-2.7-.91-4.06-1.36-.04-.01-.08-.06-.11-.09.46.03.86.25,1.28.38,1.05.34,2.09.69,3.13,1.04Z"/>
          <path class="cls-40" d="M305.8,23.7s0-.04,0-.07c.7.09,1.4.08,2.09.2.62.11,1.24.2,1.86.34-.37.17-.72-.05-1.07-.1-.9-.13-1.79-.29-2.7-.3-.06,0-.11-.04-.17-.07Z"/>
          <path class="cls-2" d="M321.36,56.86c-.09-.08-.06-.19-.06-.29,0-.96,0-1.92.05-2.88.01.26.02.52.03.78-.05.79.14,1.59-.03,2.38Z"/>
          <path class="cls-7" d="M324.49,38.51c-.09-.07-.02-.11.03-.14.83-.42,1.66-.83,2.49-1.24.04-.02.1-.01.15-.01-.79.54-1.71.85-2.55,1.32-.04.02-.09.05-.13.08Z"/>
          <path class="cls-16" d="M299.45,53s-.03,0-.04-.01c-.02-.01-.03-.03-.05-.04.09-.04.18-.08.28-.11.74-.24,1.49-.48,2.24-.72.1-.03.19-.11.28,0-.89.32-1.79.62-2.7.87Z"/>
          <path class="cls-29" d="M291.48,56.34c-.09-.09,0-.1.05-.12.67-.24,1.3-.58,1.94-.89.09-.05.19-.15.31-.02-.76.36-1.5.78-2.3,1.04Z"/>
          <path class="cls-19" d="M319.84,44.4c.12.2.05.43.05.64.01.68,0,1.37,0,2.05,0,.14.05.29-.08.4,0-.89-.01-1.78-.02-2.67,0-.14.03-.28.04-.42Z"/>
          <path class="cls-52" d="M320.31,16.89c0,.87,0,1.75-.02,2.62,0,.09.01.18-.08.24,0-.72-.02-1.44-.02-2.15,0-.24-.04-.49.12-.71Z"/>
          <path class="cls-42" d="M291.06,24.54c-.13-.14-.06-.32-.06-.48,0-.64,0-1.28,0-1.91,0-.13-.05-.28.08-.4,0,.93,0,1.86-.01,2.78Z"/>
          <path class="cls-13" d="M321.45,27.65c-.09-.06-.07-.16-.07-.24,0-.72,0-1.43,0-2.15,0-.09-.01-.18.08-.24,0,.88,0,1.76,0,2.63Z"/>
          <path class="cls-38" d="M321.52,19.66c-.14-.59-.04-1.2-.06-1.79,0-.22-.08-.46.06-.67,0,.82,0,1.64,0,2.47Z"/>
          <path class="cls-33" d="M320.21,25.02c.12.1.07.23.08.36,0,.67,0,1.35,0,2.02-.03-.02-.06-.04-.09-.05,0-.77,0-1.55.01-2.32Z"/>
          <path class="cls-15" d="M288.18,54.69c-.85-.51-1.28-1.35-1.61-2.23-.47-1.25-.67-2.56-.76-3.89-.07-.98-.09-1.97-.06-2.95.07-3.11.74-6.08,1.92-8.96,1.64-4.02,4.43-7.03,8.11-9.23,1.68-1.01,3.54-1.58,5.48-1.86,3.69-.53,7.28.02,10.82,1.01,2.85.8,5.62,1.86,8.45,2.74,1.54.48,3.1.88,4.59,1.51.78.33,1.54.71,2.15,1.33.94.96.96,1.97.05,2.97-.65.71-1.41,1.29-2.28,1.68-1.44.64-2.76,1.46-3.97,2.46-.07.05-.14.1-.21.15-1.49,1.11-3.19,1.6-5.01,1.8-1.19.13-2.38.15-3.56.29-1.33.16-2.52.6-3.5,1.56-.86.85-1.57,1.83-2.44,2.67-1.44,1.4-3.11,2.43-4.92,3.29-1.48.7-3.03,1.25-4.55,1.85-1.52.61-2.87,1.51-4.2,2.45-.92.65-1.85,1.27-2.99,1.48-.52.1-1.02.11-1.52-.11Z"/>
          <path class="cls-35" d="M287.72,54.52c1.77.36,3.18-.46,4.5-1.44,1.85-1.38,3.85-2.45,6.02-3.23,2.25-.82,4.44-1.77,6.4-3.17,1.16-.83,2.15-1.81,3.07-2.89.8-.95,1.59-1.93,2.78-2.44.73-.32,1.48-.51,2.27-.59,1.99-.19,4-.17,5.94-.75.87-.26,1.67-.67,2.45-1.14.12-.07.23-.16.38-.17-1.81,1.66-3.75,3.09-6.26,3.52-1.18.2-2.37.28-3.54.52-1.44.3-2.47,1.07-3.16,2.39-1.13,2.18-2.96,3.63-5.15,4.65-1.31.61-2.69,1-4.06,1.43-2.22.7-4.34,1.61-6.41,2.65-1.06.54-2.15.98-3.35,1.09-.67.06-1.31-.04-1.89-.43Z"/>
        </g>
        <g>
          <path class="cls-5" d="M238.78,62.83l1.12-.02c.5,0,.75.13.75.39,0,.09-.01.16-.04.2-.03.04-.05.07-.06.08-.01.02-.04.04-.08.05-.08.03-.15.04-.2.05-.05,0-.09,0-.11,0-.07.01-.2.02-.37.03s-.43,0-.76,0-.74-.01-1.22-.04v1.85h2.06c.07,0,.14.03.21.1.06.07.1.14.1.22,0,.31-.13.46-.39.46h-1.97l.04,2.64c0,.34-.12.51-.35.51s-.37-.15-.41-.46c-.02-.1-.03-.96-.04-2.57,0-1.61-.01-2.53-.02-2.78-.25.03-.37-.11-.37-.42,0-.08.03-.17.1-.27.07-.1.13-.15.18-.16.05,0,.11,0,.19,0s.27.01.57.04c.42.04.78.06,1.1.06Z"/>
          <path class="cls-5" d="M242.56,62.83l1.12-.02c.5,0,.75.13.75.39,0,.09-.01.16-.04.2-.03.04-.05.07-.06.08-.01.02-.04.04-.08.05-.08.03-.15.04-.2.05-.05,0-.09,0-.11,0-.07.01-.2.02-.37.03s-.43,0-.76,0-.74-.01-1.22-.04v1.85h2.06c.07,0,.14.03.21.1.06.07.1.14.1.22,0,.31-.13.46-.39.46h-1.97l.04,2.64c0,.34-.12.51-.35.51s-.37-.15-.41-.46c-.02-.1-.03-.96-.04-2.57,0-1.61-.01-2.53-.02-2.78-.25.03-.37-.11-.37-.42,0-.08.03-.17.1-.27.07-.1.13-.15.18-.16.05,0,.11,0,.19,0s.27.01.57.04c.42.04.78.06,1.1.06Z"/>
          <path class="cls-5" d="M244.8,68.33c-.05-.69-.07-1.63-.07-2.81s.02-1.94.05-2.29c.03-.21.18-.36.44-.43.26-.07.61-.11,1.04-.11.63,0,1.16.14,1.6.41.43.27.65.67.65,1.21,0,.44-.06.8-.18,1.09-.12.29-.27.51-.45.65-.3.23-.73.34-1.31.34-.25,0-.57-.03-.98-.1.03,1.34.05,2.19.04,2.54,0,.35-.12.52-.35.52-.15,0-.24-.03-.28-.08-.04-.05-.07-.09-.08-.12-.01-.02-.03-.06-.04-.11-.01-.05-.02-.08-.03-.12s-.01-.08-.02-.14,0-.11-.02-.14c0-.1,0-.21,0-.33ZM247.67,64.34c0-.27-.15-.49-.44-.65-.3-.16-.61-.24-.95-.24s-.57.03-.71.09c-.03.4-.04.76-.04,1.09s.01.63.04.9c.18.02.31.04.37.05.17.02.32.03.45.03s.21,0,.25,0c.04,0,.13-.01.25-.03.12-.02.21-.04.27-.08.05-.04.12-.09.2-.16.08-.07.14-.14.17-.23.09-.24.13-.5.13-.77Z"/>
          <path class="cls-5" d="M249.63,65.9c-.09-.06-.14-.15-.14-.26s.04-.22.11-.31c-.03-.67-.04-1.38-.04-2.13.04-.16.1-.28.19-.35s.21-.12.37-.14c.89.04,1.85.06,2.88.06.26.05.38.17.38.33,0,.28-.28.45-.83.49-.15,0-.31,0-.48,0h-.66c-.13,0-.48-.03-1.06-.08,0,.84.01,1.42.04,1.73.36,0,1.04,0,2.06,0,.24.05.36.16.36.33s-.1.3-.29.4c-.02.01-.06.03-.11.04l-1.74-.03c-.11,0-.2,0-.26.02l.04,1.73c0,.39-.01.67-.03.84l2.34-.03c.21.03.32.12.32.27,0,.1-.05.2-.14.3-.09.1-.2.16-.32.19l-2.58.04c-.15,0-.26-.03-.32-.09-.06-.06-.09-.15-.09-.29.03-.19.04-.49.04-.91v-.71l-.04-1.48Z"/>
          <path class="cls-5" d="M258.26,65.32l-.02,2.39c0,.5,0,.93.02,1.31,0,.1-.04.18-.13.25-.09.06-.18.1-.28.1-.17,0-.26-.09-.26-.28-.02-.73-.03-1.43-.03-2.09s.02-1.21.06-1.64c-.4.03-.81.05-1.23.05-.21,0-.31-.09-.31-.26,0-.08.04-.16.12-.24.08-.08.16-.12.26-.13l3.15-.1c.18.04.27.13.27.26,0,.28-.32.41-.95.41l-.67-.02Z"/>
          <path class="cls-5" d="M260.79,69.36c-.19,0-.28-.08-.28-.24l.04-4.1c0-.09.03-.17.1-.23.07-.06.15-.09.25-.09s.18.02.25.07c.07.05.11.13.12.24,0,.11,0,.36,0,.74,0,1.79-.01,2.89-.04,3.27,0,.09-.06.17-.16.23-.1.07-.19.1-.29.1Z"/>
          <path class="cls-5" d="M262.09,65.85c0-.32.16-.59.48-.81.32-.23.72-.34,1.18-.34s.82.06,1.06.18c.24.12.36.28.36.46,0,.09-.03.16-.09.22-.06.06-.13.09-.21.09s-.24-.05-.48-.16-.45-.16-.65-.16-.39.05-.6.16c-.21.1-.32.23-.32.39s.13.29.38.41c.25.12.56.23.91.31.35.09.58.17.7.26s.2.15.25.2c.05.05.1.15.16.29.05.15.08.33.08.56,0,.49-.16.86-.48,1.09-.32.24-.7.36-1.14.36s-.82-.07-1.13-.21c-.32-.14-.47-.32-.47-.52,0-.11.05-.2.14-.29s.19-.11.29-.07c.63.25,1.03.37,1.19.37.29,0,.51-.07.67-.22.15-.14.23-.33.23-.55s-.09-.39-.26-.51c-.17-.12-.38-.2-.63-.26-.25-.05-.49-.11-.74-.18-.25-.07-.46-.18-.63-.35s-.26-.41-.26-.73Z"/>
          <path class="cls-5" d="M266.13,65.85c0-.32.16-.59.48-.81.32-.23.72-.34,1.18-.34s.82.06,1.06.18c.24.12.36.28.36.46,0,.09-.03.16-.09.22-.06.06-.13.09-.21.09s-.24-.05-.48-.16-.45-.16-.65-.16-.39.05-.6.16c-.21.1-.32.23-.32.39s.13.29.38.41c.25.12.56.23.91.31.35.09.58.17.7.26s.2.15.25.2c.05.05.1.15.16.29.05.15.08.33.08.56,0,.49-.16.86-.48,1.09-.32.24-.7.36-1.14.36s-.82-.07-1.13-.21c-.32-.14-.47-.32-.47-.52,0-.11.05-.2.14-.29s.19-.11.29-.07c.63.25,1.03.37,1.19.37.29,0,.51-.07.67-.22.15-.14.23-.33.23-.55s-.09-.39-.26-.51c-.17-.12-.38-.2-.63-.26-.25-.05-.49-.11-.74-.18-.25-.07-.46-.18-.63-.35s-.26-.41-.26-.73Z"/>
          <path class="cls-5" d="M273.03,65.12s0-.07,0-.13.04-.12.13-.19c.08-.07.17-.1.26-.1s.17.03.24.08c.07.05.11.11.12.18.07.68.1,1.21.1,1.6s-.01.69-.03.91c-.05.65-.21,1.13-.49,1.44-.28.31-.71.46-1.29.46-.42,0-.78-.12-1.06-.37-.28-.25-.48-.57-.59-.96-.17-.6-.26-1.26-.26-2,0-.32.02-.64.05-.96,0-.09.06-.17.16-.23.1-.06.19-.09.27-.09s.15.03.21.08c.05.05.08.12.07.21-.03.35-.05.66-.05.94s0,.53.02.75c.04.54.16,1,.37,1.38.21.38.48.57.82.57.73,0,1.1-.62,1.1-1.87,0-.75-.04-1.31-.12-1.69Z"/>
          <path class="cls-5" d="M275.51,67.1l.02,1.32c0,.17,0,.27,0,.28l1.74-.03c.2.02.29.1.29.25,0,.28-.13.42-.39.42l-1.98.02c-.12,0-.21-.04-.27-.13-.06-.08-.09-.17-.1-.27,0-.09-.01-.2-.01-.31v-1.67c-.09-.05-.13-.12-.13-.21s.04-.18.11-.25c-.02-.52-.03-1-.03-1.43,0-.25.15-.38.45-.38h.28l1.76.03h.01c.21.03.32.13.32.3,0,.13-.04.23-.12.27-.17.09-.59.14-1.26.14-.25,0-.5,0-.75-.03,0,.6,0,.94,0,1.02.26,0,.78,0,1.54,0,.21.03.31.12.31.28,0,.08-.03.16-.1.23-.07.07-.14.12-.22.13-.08.01-.24.02-.49.02s-.59,0-1.01,0Z"/>
          <path class="cls-5" d="M249.72,76.5c-.24.04-.58.06-1.03.06s-.75-.07-.91-.22c-.16-.15-.24-.47-.24-.96s.04-1.04.11-1.63c.07-.59.16-1.03.25-1.31.09-.28.27-.42.54-.42.18,0,.29.08.31.23v.19c0,.09-.02.21-.06.37-.16,1.18-.24,2.03-.24,2.53,0,.12,0,.22.01.3.12.03.28.04.49.04s.47-.02.78-.06c.01-.14.02-.33.02-.57s0-.44.01-.6c0-.16.03-.28.07-.34.04-.07.16-.1.35-.1s.31.03.36.1.08.16.08.28-.01.36-.03.74c-.02.37-.03,1.42-.03,3.15,0,.3-.15.45-.44.45h-.04c-.25,0-.37-.21-.37-.61v-.55l.02-1.07Z"/>
          <path class="cls-5" d="M251.27,75.54c0-.9.16-1.69.48-2.38.16-.35.38-.62.66-.83.28-.2.59-.3.95-.3.52,0,.95.34,1.29,1.02.33.68.5,1.49.5,2.43s-.15,1.71-.46,2.33c-.31.62-.75.92-1.31.92-1.4,0-2.1-1.06-2.1-3.2ZM253.27,77.81c.24,0,.45-.13.61-.38s.28-.53.34-.85.09-.72.09-1.22-.07-1.03-.2-1.6c-.07-.31-.17-.56-.31-.74s-.3-.28-.5-.28c-.26,0-.49.16-.68.47-.34.57-.5,1.33-.5,2.28,0,.62.12,1.16.35,1.62.23.46.5.69.8.69Z"/>
          <path class="cls-5" d="M262.19,74.32l.04,2.12c0,.82-.16,1.4-.47,1.75s-.83.52-1.54.52c-.42,0-.8-.08-1.13-.23,0,.48,0,1.39,0,2.73-.02.13-.09.27-.21.4-.12.13-.22.2-.31.2-.19,0-.28-.12-.28-.35v-7.09s0-.02.01-.05c.07-.22.24-.33.5-.33.17,0,.28.11.33.33,0,.96-.01,1.94-.04,2.93.34.44.74.67,1.2.67.62,0,.98-.24,1.08-.73.04-.21.06-.45.06-.73s-.02-.64-.06-1.09c-.04-.45-.06-.79-.06-1.01.05-.24.2-.36.44-.36s.39.1.45.3Z"/>
          <path class="cls-5" d="M266.93,73.83c.19,0,.29.09.29.28.02,1.2.03,2.59.03,4.18,0,.11-.04.21-.12.29-.08.09-.2.13-.37.13s-.25-.11-.25-.33c0-.71,0-1.24-.02-1.59-.01-.35-.02-.72-.02-1.12-.25.3-.49.51-.72.63-.23.12-.54.18-.92.18s-.68-.1-.9-.31c0,1.2,0,1.91-.02,2.12-.01.28-.17.42-.47.42-.18,0-.27-.1-.27-.29l.03-1.87v-1.99c0-.09.04-.18.11-.27.07-.09.16-.13.26-.13s.18.02.26.07c.08.04.12.11.13.2.01.34.11.65.3.92.18.27.39.4.63.4.68,0,1.15-.37,1.41-1.1.01-.03.04-.12.09-.26.04-.14.08-.24.11-.29s.08-.11.16-.18.17-.1.28-.1Z"/>
        </g>
        <g>
          <path class="cls-5" d="M284.99,62.83l1.12-.02c.5,0,.75.13.75.39,0,.09-.01.16-.04.2-.03.04-.05.07-.06.08-.01.02-.04.04-.08.05-.08.03-.15.04-.2.05-.05,0-.09,0-.11,0-.07.01-.2.02-.37.03s-.43,0-.76,0-.74-.01-1.22-.04v1.85h2.06c.07,0,.14.03.21.1.06.07.1.14.1.22,0,.31-.13.46-.39.46h-1.97l.04,2.64c0,.34-.12.51-.35.51s-.37-.15-.41-.46c-.02-.1-.03-.96-.04-2.57,0-1.61-.01-2.53-.02-2.78-.25.03-.37-.11-.37-.42,0-.08.03-.17.1-.27.07-.1.13-.15.18-.16.05,0,.11,0,.19,0s.27.01.57.04c.42.04.78.06,1.1.06Z"/>
          <path class="cls-5" d="M288.24,69.37h-.96c-.17,0-.26-.06-.28-.16-.04-.28-.06-.72-.06-1.32l.07-2.92c0-.17.13-.25.38-.25.13,0,.23.03.31.09.08.06.12.15.12.25-.01.28-.05.67-.11,1.17-.07.65-.11,1.13-.11,1.43s.01.66.03,1.07l1.49-.09c.22,0,.33.11.33.34,0,.19-.07.3-.21.32-.3.05-.64.07-1.01.07Z"/>
          <path class="cls-5" d="M290.78,69.09c-.03.17-.15.25-.36.25s-.32-.09-.32-.26c0-.4.2-1.2.58-2.42.17-.56.37-1.02.58-1.39.22-.37.42-.55.62-.55.11,0,.2.06.28.19.08.13.23.42.44.87.21.45.39.93.53,1.44.14.51.3,1.13.46,1.86,0,.09-.03.16-.09.21-.06.05-.13.08-.22.08-.21,0-.35-.09-.4-.28l-.35-1.38c-.59,0-1.07-.05-1.42-.14-.2.74-.32,1.25-.34,1.53ZM291.87,65.64c-.22.38-.4.8-.54,1.26.3.08.65.12,1.05.12-.13-.46-.3-.92-.5-1.38Z"/>
          <path class="cls-5" d="M294.51,65.85c0-.32.16-.59.48-.81.32-.23.72-.34,1.18-.34s.82.06,1.06.18.36.28.36.46c0,.09-.03.16-.08.22s-.13.09-.21.09-.24-.05-.48-.16c-.24-.11-.45-.16-.65-.16s-.39.05-.6.16-.32.23-.32.39.13.29.38.41c.25.12.56.23.91.31.35.09.58.17.7.26.12.08.2.15.25.2s.1.15.16.29c.05.15.08.33.08.56,0,.49-.16.86-.48,1.09-.32.24-.7.36-1.14.36s-.82-.07-1.13-.21c-.32-.14-.47-.32-.47-.52,0-.11.04-.2.14-.29s.19-.11.29-.07c.63.25,1.03.37,1.19.37.29,0,.51-.07.67-.22.15-.14.23-.33.23-.55s-.09-.39-.26-.51c-.17-.12-.38-.2-.63-.26-.25-.05-.49-.11-.74-.18s-.46-.18-.63-.35-.26-.41-.26-.73Z"/>
          <path class="cls-5" d="M301.52,67.31v1.49c0,.38-.13.56-.37.56-.11,0-.2-.02-.26-.07-.06-.05-.08-.12-.08-.22.03-.36.04-.92.04-1.7-.11.01-.29.02-.53.02s-.61-.03-1.11-.08v.21c0,.14.03.65.08,1.53,0,.11-.03.19-.12.24-.08.05-.17.08-.26.08s-.16-.03-.21-.08c-.05-.05-.08-.11-.09-.18-.07-.7-.11-1.23-.11-1.59s0-.6,0-.73l.04-1.68c0-.08.05-.15.14-.21.08-.06.17-.09.27-.09.17,0,.26.07.26.22l-.02,1.58c.34.05.63.08.88.08h.77c-.02-.37-.03-.93-.03-1.67,0-.09.04-.17.14-.23s.19-.09.29-.09.18.05.22.14c.04.09.06.18.05.27v2.19Z"/>
          <path class="cls-5" d="M303.5,67.38l-.84.02c-.09,0-.17-.03-.24-.1-.06-.07-.1-.16-.1-.29s.04-.23.12-.31c.08-.08.2-.12.34-.12h2.51c.25.01.37.14.37.38,0,.11-.04.21-.12.3s-.19.13-.34.13h-1.72Z"/>
          <path class="cls-5" d="M308.54,67.24h-1.25c0,.62,0,1.18.03,1.67,0,.32-.1.47-.31.47s-.33-.13-.36-.38c-.01-.06-.02-.34-.02-.83v-1.59c0-.58,0-.95-.01-1.13-.17-.02-.26-.15-.26-.38,0-.05.03-.12.09-.2.08-.1.16-.15.25-.15s.24,0,.45.03c.22.02.72.03,1.5.03.39,0,.58.11.58.32,0,.17-.05.27-.16.29-.03.01-.06.03-.07.04-.01.01-.04.02-.09.02s-.07,0-.08,0c-.03.01-.11.02-.24.03-.12,0-.3,0-.51,0s-.48,0-.78-.03v1.09h1.31c.06,0,.12.03.18.1.06.07.09.15.09.24s-.03.17-.08.24c-.06.07-.14.11-.25.11Z"/>
          <path class="cls-5" d="M310.73,68.99c0,.1-.05.19-.14.26-.09.07-.2.11-.31.11-.15,0-.22-.07-.22-.2-.03-.32-.04-1.57-.04-3.76,0-.21.13-.38.39-.5.26-.12.6-.18,1.04-.18s.81.11,1.14.32.49.47.49.78c0,.15-.06.31-.19.49-.13.18-.26.33-.41.43-.15.1-.35.23-.62.38-.27.15-.43.23-.49.24.42.27.8.56,1.13.88s.49.56.49.75-.08.3-.24.35c-.05.01-.11.02-.18.02s-.17-.07-.28-.22-.33-.35-.64-.62c-.32-.27-.63-.52-.94-.73.01.54.03.94.04,1.2h0ZM310.69,66.88c.22,0,.55-.11,1-.33.44-.22.67-.42.7-.61,0-.18-.1-.32-.3-.41-.2-.09-.41-.14-.63-.14-.26,0-.5.03-.75.09,0,.32,0,.79,0,1.39Z"/>
          <path class="cls-5" d="M315.99,64.76c.5,0,.9.19,1.21.57s.46.91.46,1.57-.17,1.24-.5,1.72c-.34.48-.76.73-1.28.73-.56,0-1.02-.24-1.38-.73-.36-.48-.53-1.07-.53-1.77s.18-1.22.55-1.57c.37-.35.86-.52,1.48-.52ZM316.93,67.01c0-.54-.08-.93-.23-1.18-.16-.25-.43-.38-.82-.38s-.69.12-.91.36c-.22.24-.32.58-.32,1.02s.11.85.34,1.22c.23.38.54.56.95.56.23,0,.42-.1.58-.29.27-.34.4-.77.4-1.31Z"/>
          <path class="cls-5" d="M320.55,68.7l.8-.03c.29,0,.46.02.52.07s.09.1.09.17c0,.19-.07.31-.2.35-.16.05-.43.07-.83.07l-2.08.03c-.11,0-.19-.02-.24-.07s-.07-.12-.07-.23c.05-.26.12-.49.23-.69.11-.21.21-.36.31-.47.1-.11.22-.23.36-.38.14-.14.25-.27.32-.38-.58-.07-.88-.24-.88-.49,0-.09.04-.18.12-.26.08-.08.14-.12.19-.12s.09,0,.12.02c.31.11.66.18,1.06.21l.13-.16c.3-.35.53-.63.68-.85-.5-.11-1.29-.16-2.38-.16-.2,0-.3-.08-.3-.25,0-.12.06-.23.18-.33.08-.04.25-.06.51-.06s.68.02,1.27.07c.59.04,1.04.11,1.35.19.19.05.28.17.28.37,0,.07-.02.12-.06.16-.28.34-.57.7-.86,1.08.19,0,.32.04.38.09.07.05.1.12.1.2s-.01.14-.04.19c-.02.04-.06.08-.1.11-.04.03-.09.05-.14.06-.07.02-.2.03-.38.03h-.4s-.13.12-.26.25c-.13.13-.22.22-.26.26-.04.04-.11.11-.21.21-.1.1-.17.18-.22.24-.15.19-.26.35-.33.49h1.22Z"/>
          <path class="cls-5" d="M323.89,67.1l.02,1.32c0,.17,0,.27-.01.28l1.74-.03c.19.02.29.1.29.25,0,.28-.13.42-.39.42l-1.98.02c-.12,0-.21-.04-.27-.13-.06-.08-.09-.17-.1-.27,0-.09,0-.2,0-.31v-1.67c-.09-.05-.13-.12-.13-.21s.04-.18.11-.25c-.02-.52-.03-1-.03-1.43,0-.25.15-.38.45-.38h.28l1.76.03h0c.21.03.32.13.32.3,0,.13-.04.23-.12.27-.17.09-.59.14-1.26.14-.25,0-.5,0-.75-.03,0,.6,0,.94,0,1.02.26,0,.78,0,1.54,0,.21.03.31.12.31.28,0,.08-.03.16-.1.23-.07.07-.14.12-.22.13-.08.01-.24.02-.49.02s-.59,0-1.01,0Z"/>
          <path class="cls-5" d="M327.66,66.22l-.11,2.45c0,.21-.01.36-.02.43-.03.18-.14.27-.35.27-.08,0-.15-.03-.22-.08-.06-.06-.1-.13-.11-.22.05-1.75.08-2.69.08-2.83v-.46c0-.17.02-.32.05-.45.05-.18.17-.27.36-.27.09,0,.21.06.35.19.14.13.35.36.62.71.64.79,1.12,1.53,1.45,2.23-.01-.95-.04-1.68-.07-2.18-.03-.5-.05-.77-.05-.82v-.08c.05-.26.19-.38.41-.38.09,0,.17.04.24.12.07.08.11.17.11.29l.05,3.75c0,.35-.14.52-.42.52-.17,0-.3-.06-.39-.18-.09-.12-.16-.21-.2-.28-.04-.07-.1-.17-.18-.32-.52-.97-1.05-1.77-1.6-2.4Z"/>
          <path class="cls-5" d="M285.23,74.68l-.02,2.39c0,.5,0,.93.02,1.31,0,.1-.04.18-.13.25-.09.06-.18.1-.28.1-.17,0-.26-.09-.26-.28-.02-.73-.03-1.43-.03-2.09s.02-1.21.06-1.64c-.4.03-.81.05-1.23.05-.21,0-.31-.09-.31-.26,0-.08.04-.16.12-.24.08-.08.16-.12.26-.13l3.14-.1c.18.04.27.13.27.26,0,.28-.32.41-.95.41l-.67-.02Z"/>
          <path class="cls-5" d="M287.76,78.72c-.19,0-.28-.08-.28-.24l.04-4.1c0-.09.03-.17.1-.23.07-.06.15-.09.25-.09s.18.02.25.07c.07.05.11.13.12.24,0,.11,0,.36,0,.74,0,1.79-.01,2.89-.04,3.28,0,.09-.06.17-.16.23-.1.07-.19.1-.29.1Z"/>
          <path class="cls-5" d="M289.06,75.21c0-.32.16-.59.48-.81.32-.23.72-.34,1.18-.34s.82.06,1.06.18.36.28.36.46c0,.09-.03.16-.08.22s-.13.09-.21.09-.24-.05-.48-.16c-.24-.11-.45-.16-.65-.16s-.39.05-.6.16-.32.23-.32.39.13.29.38.41c.25.12.56.23.91.31.35.09.58.17.7.26.12.08.2.15.25.2s.1.15.16.29c.05.15.08.33.08.56,0,.49-.16.86-.48,1.09-.32.24-.7.36-1.14.36s-.82-.07-1.13-.21c-.32-.14-.47-.32-.47-.52,0-.11.04-.2.14-.29s.19-.11.29-.07c.63.25,1.03.37,1.19.37.29,0,.51-.07.67-.22.15-.14.23-.33.23-.55s-.09-.39-.26-.51c-.17-.12-.38-.2-.63-.26-.25-.05-.49-.11-.74-.18s-.46-.18-.63-.35-.26-.41-.26-.73Z"/>
          <path class="cls-5" d="M293.09,75.21c0-.32.16-.59.48-.81.32-.23.72-.34,1.18-.34s.82.06,1.06.18.36.28.36.46c0,.09-.03.16-.08.22s-.13.09-.21.09-.24-.05-.48-.16c-.24-.11-.45-.16-.65-.16s-.39.05-.6.16-.32.23-.32.39.13.29.38.41c.25.12.56.23.91.31.35.09.58.17.7.26.12.08.2.15.25.2s.1.15.16.29c.05.15.08.33.08.56,0,.49-.16.86-.48,1.09-.32.24-.7.36-1.14.36s-.82-.07-1.13-.21c-.32-.14-.47-.32-.47-.52,0-.11.04-.2.14-.29s.19-.11.29-.07c.63.25,1.03.37,1.19.37.29,0,.51-.07.67-.22.15-.14.23-.33.23-.55s-.09-.39-.26-.51c-.17-.12-.38-.2-.63-.26-.25-.05-.49-.11-.74-.18s-.46-.18-.63-.35-.26-.41-.26-.73Z"/>
          <path class="cls-5" d="M299.99,74.48s-.01-.07-.01-.13.04-.12.13-.19.17-.1.26-.1.17.03.24.08.11.11.12.18c.07.68.1,1.21.1,1.6s0,.69-.03.91c-.05.65-.21,1.13-.49,1.44-.28.31-.71.46-1.29.46-.42,0-.78-.12-1.06-.37-.28-.25-.48-.57-.59-.96-.17-.6-.26-1.26-.26-2,0-.32.02-.64.05-.96,0-.09.06-.17.16-.23s.19-.09.27-.09.15.03.21.08c.05.05.08.12.07.21-.03.35-.05.66-.05.94s0,.53.02.75c.04.54.16,1,.37,1.38.21.38.48.57.82.57.73,0,1.1-.62,1.1-1.87,0-.75-.04-1.31-.12-1.69Z"/>
          <path class="cls-5" d="M302.47,76.46l.02,1.32c0,.17,0,.27-.01.28l1.74-.03c.19.02.29.1.29.25,0,.28-.13.42-.39.42l-1.98.02c-.12,0-.21-.04-.27-.13-.06-.08-.09-.17-.1-.27,0-.09,0-.2,0-.31v-1.67c-.09-.05-.13-.12-.13-.21s.04-.18.11-.25c-.02-.52-.03-1-.03-1.43,0-.25.15-.38.45-.38h.28l1.76.03h0c.21.03.32.13.32.3,0,.13-.04.23-.12.27-.17.09-.59.14-1.26.14-.25,0-.5,0-.75-.03,0,.6,0,.94,0,1.02.26,0,.78,0,1.54,0,.21.03.31.12.31.28,0,.08-.03.16-.1.23-.07.07-.14.12-.22.13-.08.01-.24.02-.49.02s-.59,0-1.01,0Z"/>
          <path class="cls-5" d="M308.11,74.03c.07,0,.15.01.22.04.07.03.16.07.27.14.1.06.2.13.29.19.09.06.22.15.38.27.16.11.38.26.64.44.27.18.62.45,1.06.81.15.13.22.25.22.36s-.05.22-.16.34l-.18.18c-.06.06-.23.19-.49.37l-.3.21c-.13.09-.37.25-.71.48s-.64.46-.93.7c-.03.02-.1.03-.19.03s-.18-.04-.27-.12c-.08-.08-.13-.17-.13-.27s.02-.18.06-.24c.32-.24.74-.53,1.25-.88.51-.35.9-.62,1.14-.82-.19-.15-.5-.36-.92-.64-.42-.28-.89-.6-1.42-.97-.09-.11-.13-.21-.13-.3s.03-.17.08-.23c.06-.06.12-.09.2-.09Z"/>
          <path class="cls-5" d="M314.62,78.25c0,.33-.18.49-.53.49-.07,0-.14-.03-.2-.1-.06-.06-.08-.16-.08-.3l-.03-2.56c0-.85,0-1.64.03-2.39-.23.2-.45.43-.67.7-.21.26-.36.44-.44.52s-.18.17-.3.26c-.12.08-.24.13-.35.13s-.19-.04-.26-.11c-.06-.07-.1-.17-.1-.27s.08-.25.24-.44.74-.81,1.75-1.88c.15-.14.35-.21.58-.21.11,0,.21.03.28.1.07.07.11.14.11.23l-.07,2.71.03,3.12Z"/>
          <path class="cls-5" d="M315.41,75.54c0-.9.16-1.69.48-2.38.16-.35.38-.62.66-.83.28-.2.59-.3.95-.3.52,0,.95.34,1.29,1.02.33.68.5,1.49.5,2.43s-.16,1.71-.46,2.33c-.31.62-.75.92-1.31.92-1.4,0-2.1-1.06-2.1-3.2ZM317.4,77.81c.24,0,.44-.13.61-.38s.28-.53.34-.85.09-.72.09-1.22-.07-1.03-.2-1.6c-.07-.31-.17-.56-.31-.74s-.3-.28-.5-.28c-.26,0-.49.16-.68.47-.34.57-.5,1.33-.5,2.28,0,.62.12,1.16.35,1.62.23.46.5.69.8.69Z"/>
          <path class="cls-5" d="M326.09,73.83c.19,0,.29.09.29.28.02,1.2.03,2.59.03,4.18,0,.11-.04.21-.12.29-.08.09-.2.13-.37.13s-.25-.11-.25-.33c0-.71,0-1.24-.02-1.59,0-.35-.01-.72-.01-1.12-.25.3-.49.51-.72.63-.23.12-.54.18-.92.18s-.68-.1-.9-.31c0,1.2,0,1.91-.02,2.12-.01.28-.17.42-.47.42-.18,0-.27-.1-.27-.29l.03-1.87v-1.99c0-.09.04-.18.11-.27.07-.09.16-.13.26-.13s.18.02.26.07.12.11.13.2c.01.34.11.65.3.92.18.27.39.4.63.4.68,0,1.15-.37,1.41-1.1.01-.03.04-.12.09-.26.04-.14.08-.24.11-.29.03-.05.08-.11.16-.18s.17-.1.28-.1Z"/>
          <path class="cls-5" d="M329.41,74.08c.28,0,.54.06.79.18.24.12.36.27.36.44,0,.09-.04.17-.11.24-.07.07-.16.1-.26.1s-.21-.04-.34-.12-.3-.12-.5-.12c-.43,0-.78.18-1.05.53-.27.36-.4.75-.4,1.17s.09.79.28,1.08c.19.3.41.44.66.44s.45-.07.61-.2.24-.3.24-.5c0-.35-.06-.52-.19-.52-.28,0-.48-.02-.58-.05s-.16-.12-.16-.25c0-.24.11-.37.32-.39.09,0,.21,0,.36,0s.3.03.45.08c.21.08.35.21.39.38.1.42.15.81.15,1.17v.23c0,.12,0,.21,0,.28,0,.07-.01.15-.03.24-.02.09-.05.15-.09.19-.04.03-.12.05-.22.05s-.18-.02-.24-.07c-.05-.04-.09-.12-.11-.24-.32.21-.63.31-.95.31s-.6-.11-.86-.34c-.26-.22-.45-.51-.58-.84s-.19-.67-.19-1.01c0-.75.21-1.35.65-1.8.43-.46.97-.68,1.62-.68Z"/>
        </g>
      </g>
    </g>
    <g>
      <g>
        <circle class="cls-56" cx="60.75" cy="47.56" r="34.15"/>
        <path class="cls-51" d="M70.86,24.65c-.55,2.78-2.05,4.94-4.37,6.51-.7.47-1.59.5-2.42.34-1.65-.32-3.07.2-4.1,1.43-1.64,1.96-3.67,3.21-6.09,3.86-1.28.34-2.07,1.13-2.69,2.28-1.45,2.71-3.79,4.27-6.73,5.02-.54.14-1.07.1-1.6.06-.66-.05-1.14-.26-1.12-1.05.02-.71.48-.97,1.05-.98,3.36-.1,5.54-1.97,7.11-4.72.93-1.63,2.06-2.69,4.1-2.83,2.19-.16,3.37-2.06,4.71-3.5,1.07-1.15,2.37-1.84,3.75-1.71,3.69.35,4.99-1.78,6.3-4.78.16-.36.23-.75.41-1.09.26-.48.61-1.01,1.23-.82.54.17.55.75.54,1.25,0,.24-.04.49-.06.73Z"/>
        <path class="cls-51" d="M68.86,19.92c-1.58,1.66-.96,4.33-2.42,6.21-.78,1.01-1.61,1.78-3.01,1.81-1.07.02-2.13.32-3.19.39-1.45.1-2.24,1.16-3.05,2.1-1.55,1.8-3.34,2.98-5.8,2.96-.97,0-1.6.62-2.08,1.43-1,1.69-1.94,3.42-3.6,4.6-.65.47-1.35.81-2.13.92-.99.14-1.23-.53-1.38-1.33-.15-.83.29-1,.98-1.07,1.85-.2,2.84-1.23,3.47-3.03.74-2.1,2.13-3.73,4.75-3.66,1.66.04,3.06-.65,4-2.07,1.5-2.27,3.75-3,6.28-3.21,2.57-.21,3.21-.76,3.72-3.26.28-1.37.85-2.6,1.73-3.68.28-.34.66-.65,1.15-.36.39.24.67.58.57,1.25Z"/>
        <path class="cls-51" d="M65.42,19.18c-.03.13-.02.26-.08.32-1.92,2.12-2.5,5.52-6.04,6.1-2.08.34-4.02,1-5.29,2.98-.64.99-1.89,1.15-3.05,1.19-3.52.12-3.8.45-5.2,3.6-.95,2.13-2.37,3.92-5.04,4.17-1.28.12-1.22-.47-.92-1.28.21-.57.65-1.11,1.2-1.24,1.63-.37,2.23-1.69,2.83-2.96,1.32-2.75,3.28-4.47,6.48-4.42,1.03.02,1.92-.33,2.63-1.09,1.53-1.64,3.44-2.58,5.59-3.05,1.76-.39,3.05-1.21,3.56-3.05.29-1.06,1.21-1.53,2.14-1.85.48-.16,1.12-.21,1.18.59Z"/>
        <path class="cls-51" d="M82.23,51.72c.71.11,1.41,0,1.53.8.13.84-.58.83-1.11,1.06-1.62.7-1.95,2.26-2.17,3.74-.58,3.81-.88,4.18-4.81,4.83-1.2.2-2.27.65-2.56,1.88-.89,3.83-3.3,5.62-7.15,5.49-2.05-.07-2.97,1.03-3.53,2.82-.16.52,0,1.77-1.2,1.35-1.15-.4-1.1-1.24-.65-2.26.52-1.19,1.33-2.16,2.11-3.16.36-.46.88-.59,1.44-.63,1.21-.1,2.43-.18,3.64-.3,1.87-.19,2.52-1.65,3.17-3.1.36-.8.56-1.7,1.04-2.41.72-1.08,1.9-1.39,3.17-1.55,2.87-.36,2.88-.44,3.26-3.3.19-1.43.7-2.76,1.53-3.93.57-.8,1.26-1.55,2.29-1.32Z"/>
        <path class="cls-51" d="M83.2,59.59c.05,2.66-1.89,4.04-3.79,4.43-2.13.44-3.34,1.57-3.61,3.45-.43,2.98-2.75,3.79-4.89,4.91-1.31.68-2.74.59-4.14.72-.67.06-1.04-.31-1.19-.86-.18-.68.19-1.18.83-1.35.61-.16,1.25-.19,1.88-.23,2.52-.14,4.5-1.2,5.36-3.64.87-2.49,2.49-4.04,4.94-4.82,1.33-.42,2.02-1.46,2.57-2.64.16-.36.29-.74.52-1.05.29-.4.36-1.19,1.07-1.01.78.2.5.94.49,1.5,0,.2-.03.39-.05.59Z"/>
        <path class="cls-3" d="M34.76,49.97c.59.12.59.6.68,1.1.73,4.21,2.2,8.12,4.92,11.47,1.87,2.31,4.03,4.27,6.63,5.75.38.22.74.48,1.08.75.26.21.28.52.11.8-.15.24-.42.28-.65.2-.41-.14-.83-.29-1.2-.51-6.88-4.14-10.99-10.16-12.26-18.1-.16-1,.08-1.5.69-1.47Z"/>
        <path class="cls-3" d="M87.21,47.53c-.02.5-.02,1.09-.71,1.06-.74-.04-.71-.71-.73-1.23-.18-3.51-1.03-6.85-2.57-10.01-1.17-2.39-2.79-4.49-4.43-6.57-.24-.31-.53-.61-.11-1.01.46-.44.79-.18,1.12.17,4.59,4.97,7.15,10.8,7.44,17.6Z"/>
        <path class="cls-3" d="M38.2,48.77c.63.13.75.58.83,1.01,1.21,6,4.45,10.67,9.26,14.34.43.33.97.79.58,1.33-.42.59-.97.1-1.39-.2-5.22-3.72-8.45-8.74-9.8-14.99-.13-.59-.34-1.28.51-1.49Z"/>
        <path class="cls-3" d="M82.38,44.48c0,.33-.19.6-.57.69-.32.07-.61-.08-.73-.36-.16-.4-.26-.84-.36-1.26-.87-3.67-2.38-7.04-4.72-10.02-.09-.12-.19-.22-.28-.34-.31-.41-.58-.88-.11-1.31.55-.5.9.06,1.2.4,1.83,2.09,3.1,4.51,4.14,7.07.67,1.64,1.09,3.34,1.44,5.13Z"/>
        <g>
          <circle class="cls-58" cx="61.7" cy="51.64" r="11.66"/>
          <g>
            <path class="cls-37" d="M64.95,52.87c-2.07-.19-3.64-2.01-3.47-4,.17-1.98,2.32-3.81,4.31-3.61,2.31.23,3.32,1.85,3.28,4.11-.03,2.12-2.01,3.7-4.12,3.51Z"/>
            <path class="cls-37" d="M58.68,53.84c-.13,1.31-.96,1.97-2.28,1.83-1.49-.16-2.18-1.27-1.95-3.14.1-.82,1.41-1.94,2.16-1.85.93.1,2.18,2.02,2.07,3.17Z"/>
            <path class="cls-37" d="M61.55,55.53c.69.22,2.1.02,2.1,1.25,0,1.41-1.32,1.37-2.43,1.41-1.06.04-2.27.36-2.5-1.16-.16-1.07.98-1.68,2.83-1.51Z"/>
          </g>
        </g>
      </g>
      <path class="cls-54" d="M48.5,20.88l-.42.21c-.8.41-1.77.08-2.18-.71l-3.71-7.33s-.04-.08-.05-.11l-6.42-2.21c-.85-.29-1.3-1.21-1-2.06l.13-.37c.29-.85,1.21-1.3,2.06-1.01l5.33,1.84,1.62-5.66c.25-.86,1.15-1.36,2.01-1.11l.54.15c.86.25,1.36,1.15,1.11,2.01l-1.98,6.91,3.69,7.29c.4.8.08,1.78-.71,2.18Z"/>
      <path class="cls-54" d="M75.2,23.11l-.41-.24c-.78-.45-1.04-1.44-.59-2.22l4.11-7.12s.04-.07.07-.11l-1.66-6.59c-.22-.87.31-1.75,1.18-1.97l.38-.09c.87-.22,1.75.31,1.97,1.18l1.37,5.47,5.63-1.74c.86-.27,1.76.22,2.03,1.08l.17.54c.26.86-.22,1.76-1.07,2.03l-6.87,2.12-4.09,7.07c-.45.78-1.44,1.04-2.22.59Z"/>
      <path class="cls-54" d="M87.99,37.5l-.15-.45c-.28-.85.18-1.77,1.03-2.05l7.81-2.57s.08-.03.12-.03l3.15-6.02c.41-.79,1.4-1.1,2.19-.68l.34.18c.79.42,1.1,1.4.69,2.19l-2.61,4.99,5.35,2.45c.82.37,1.17,1.34.8,2.15l-.23.51c-.37.81-1.34,1.17-2.15.8l-6.53-2.99-7.76,2.55c-.85.28-1.77-.18-2.05-1.03Z"/>
      <path class="cls-54" d="M87.74,57.28l.12-.46c.22-.87,1.1-1.39,1.97-1.17l7.97,2.03s.08.02.12.04l5.89-3.38c.77-.45,1.77-.18,2.21.6l.19.34c.45.78.18,1.77-.6,2.22l-4.89,2.8,3.19,4.95c.49.75.27,1.76-.49,2.25l-.47.31c-.75.49-1.76.27-2.24-.49l-3.9-6.04-7.92-2.02c-.87-.22-1.39-1.11-1.17-1.97Z"/>
      <path class="cls-54" d="M74.64,71.36l.41-.24c.78-.45,1.77-.19,2.22.59l4.13,7.11s.04.08.06.11l6.54,1.84c.86.24,1.36,1.14,1.12,2l-.11.37c-.24.86-1.14,1.36-2,1.12l-5.42-1.53-1.3,5.74c-.2.88-1.07,1.42-1.94,1.22l-.55-.12c-.87-.2-1.42-1.07-1.22-1.94l1.58-7.01-4.1-7.07c-.45-.77-.19-1.77.59-2.22Z"/>
      <path class="cls-54" d="M55.35,73.64l.46.09c.88.17,1.45,1.02,1.28,1.9l-1.56,8.07s-.02.08-.03.12l3.72,5.69c.49.75.28,1.75-.47,2.25l-.33.21c-.75.49-1.75.28-2.25-.47l-3.09-4.72-4.75,3.48c-.72.53-1.74.37-2.27-.35l-.33-.45c-.53-.72-.37-1.74.35-2.27l5.8-4.24,1.55-8.02c.17-.88,1.02-1.46,1.9-1.29Z"/>
      <path class="cls-54" d="M36.06,62.04l.23.41c.45.78.18,1.77-.6,2.21l-7.13,4.09s-.08.04-.11.06l-1.87,6.53c-.25.86-1.15,1.36-2.01,1.11l-.37-.11c-.86-.25-1.36-1.15-1.11-2.01l1.55-5.42-5.74-1.32c-.88-.2-1.42-1.07-1.22-1.95l.13-.55c.2-.87,1.07-1.42,1.95-1.21l7,1.62,7.09-4.07c.78-.45,1.77-.18,2.22.6Z"/>
      <path class="cls-54" d="M35.66,39.56l-.14.45c-.26.86-1.16,1.34-2.02,1.08l-7.87-2.38s-.08-.03-.12-.04l-6.04,3.12c-.79.41-1.77.1-2.19-.7l-.18-.35c-.41-.8-.1-1.77.7-2.19l5.01-2.59-2.97-5.08c-.45-.78-.19-1.77.58-2.22l.48-.28c.77-.45,1.77-.19,2.22.58l3.63,6.2,7.82,2.37c.86.26,1.34,1.17,1.08,2.02Z"/>
    </g>
    <g>
      <g>
        <path class="cls-30" d="M197.35,45.93c-.22-.69-.61-1.33-1.26-1.75-1.6-1.03-3.2-2.08-5.1-2.46-1.19-.24-2.46-.5-3.59.27-2.59,1.76-3.4,6.95-1.51,9.47.94,1.26,1.92,2.49,2.79,3.8,2.13,3.2,1.68,6.65-1.25,9.42-.43-1.88-1.49-3.35-2.72-4.72-1.13-1.25-2.29-2.49-3.29-3.84-1.79-2.39-2.88-4.94-2.34-8.13.45-2.64.63-5.36.49-8.07-.28-5.67-3.97-11.5-11.51-11.54-3.79-.02-7.08,1.33-10.21,3.34-3.04,1.96-5.71,4.45-9.04,6.31.15-2.51.1-4.81-.91-7.04-2.33-5.14-8.48-5.37-12.64-3.31-3.73,1.84-5.39,7.36-3.4,10.73.57.96,1.26,2.08,2.6,1.62,1.33-.46,1.21-1.56.93-2.8-.77-3.45,1.23-5.97,4.8-6.1,1.56-.06,2.77.55,3.36,2.22.6,1.7.37,3.44.56,5.16.21,1.88-.59,2.76-2.24,3.36-2.9,1.05-5.59,2.55-8.12,4.31-4.27,2.96-6.56,6.92-6.24,12.27.28,4.59,3.58,7.47,7.49,6.34,1.85-.53,3.48-1.54,4.84-2.93,4.33-4.42,7.18-9.66,8.68-15.66.14-.57.14-1.23.88-1.5,4.18-1.51,7.61-4.17,10.95-7.03,2.52-2.16,5.48-1.95,8.74-.84-2.37.98-3.33,2.78-4,4.78-.28.84-.62,1.71-.68,2.58-.13,1.75-.89,2.28-2.65,2.14-1.75-.14-3.69-.33-5.2.88-3.47,2.78-4.73,6.54-3.87,10.79.36,1.79-.31,1.53-1.4,1.42-3.62-.38-5.61.64-7.28,3.85-.74,1.43-1.41,2.93-1.9,4.46-.71,2.26-.78,4.52.76,6.57.37.49.64,1.06.86,1.63.23.6.71,1.27.06,1.87-.63.58-1.37.37-2.02,0-1.32-.72-2.63-1.47-3.92-2.24-1.48-.88-3.18-.85-3.99.2-1.12,1.45-.14,2.55.81,3.5,2.54,2.54,5.72,3.55,9.22,3.16,4.66-.52,6.94-4.4,5.36-8.81-.24-.68-.5-1.36-.78-2.02-.41-.98-1.18-2.24-.69-2.96.47-.68,1.82.04,2.78.24,5.17,1.04,9.33-1.9,10.21-7.13.37-2.22-.6-4.16-1.05-6.24.72-.2,1.4.02,2.12.16,4.32.88,6.83-.4,8.59-4.48.61-1.42.94-2.97,1.45-4.44.18-.52.09-1.3,1.26-.92,1.01.33,1,.61.79,1.47-1.22,4.97.09,9.19,3.88,12.64,1,.91,1.94,1.88,2.85,2.88.98,1.08,1.84,2.24,2.37,3.64.28.73.36.99-.6,1.2-1.88.42-3.67.21-5.47-.29-2.56-.7-5.13-1.14-7.79-.45-3.78.99-6.19,3.7-6.72,7.72-.44,3.33,1.16,6.31,4.46,8.17,2.68,1.52,5.56,1.4,8.51,1.07,7.23-.8,11.52-4.91,12.31-12.07.11-1.01.52-1.52,1.38-2.02,2.97-1.72,4.84-4.27,5.31-7.74.55-4.06-.58-7.65-3.06-10.85-.59-.75-1.22-1.46-1.84-2.19-.75-.87-.63-1.77,0-2.62.63-.85,1.32-.2,1.96.03,1.22.45,1.99,1.63,3.25,2.06.84.29,1.53.17,2.18-.4.69-.61.7-1.4.46-2.17ZM136.4,58.85c-.88.82-2.01,1.5-3.2.83-1.18-.67-1.13-1.97-.99-3.17.19-1.64,1.12-2.9,2.19-4.06,2.54-2.74,5.7-4.49,9.57-5.86-1.89,4.76-4.01,8.96-7.57,12.27ZM174.5,79.38c-1.08.19-2.18.44-3.33.19-2.53-.53-4.14-2.16-4-4.21.16-2.42,1.96-4.17,4.49-4.39.85-.07,1.67.08,2.48.31,2.84.82,5.73,1.33,8.91.99-1.56,4.22-4.49,6.38-8.55,7.1Z"/>
        <path class="cls-4" d="M148.07,45.26c-2.06,7.11-4.98,13.49-11.18,17.78-2.73,1.88-5.06,1.67-6.87-.25-.8-.85-1.22-1.87-1.46-2.99-1.08-4.95.8-8.82,4.47-11.97,2.15-1.84,4.59-3.22,7.2-4.32,5.36-2.27,10.31-5.23,14.88-8.85,2.97-2.35,6.13-4.49,9.93-5.17,8.04-1.44,13.06,2.78,13.85,10.93.2,2.03.03,4.11-.4,6.05-1.19,5.32.95,9.38,4.58,12.85,2.5,2.39,4.01,5.18,4.09,8.59.07,2.96.23,6.02-1.32,8.73-2.22,3.9-5.8,5.84-10.11,6.51-2.63.41-5.27.51-7.78-.68-3.51-1.67-5.07-4.4-4.65-8.14.36-3.25,2.82-5.9,6.22-6.75,1.9-.48,3.75-.44,5.64.15,2.21.69,4.46,1.12,6.81.64.52-.1,1.56-.63,1.5.57-.04.97.62,2.46-1.15,2.69-2.44.32-4.81-.2-7.15-.83-1.64-.44-3.27-.73-4.97-.18-2.49.81-3.9,2.73-3.76,5.33.12,2.18,1.77,4.06,4.23,4.35,8.28.98,15.13-5.35,13.29-13.56-.44-1.97-1.68-3.41-2.96-4.82-1.21-1.33-2.52-2.57-3.77-3.88-2.18-2.28-3.24-4.96-2.82-8.15.21-1.62.3-3.27.71-4.83.69-2.64-.14-4.77-1.9-6.61-3.67-3.84-10.04-4.42-13.9-.85-4.62,4.27-10.16,6.54-15.95,8.42-4,1.3-7.47,3.33-10.18,6.6-1.19,1.44-1.91,3.06-1.87,4.94.05,2.88,2.32,4.1,4.77,2.54,1.19-.76,2.14-1.82,3.01-2.93,2.09-2.68,3.91-5.56,4.94-8.78.66-2.07,1.95-2.77,4.04-3.13Z"/>
        <path class="cls-4" d="M163.62,55.15c-.37-.07-1.2-.19-2.03-.36-2.52-.51-5.03-.44-7.5.23-.84.23-1.01-.05-.84-.8.8-3.54,2.53-7.45,7.96-7.31,2.85.07,5.59.37,8.24,1.41.73.29,1.07.54.69,1.44-.55,1.3-1.09,2.58-2.05,3.65-1.2,1.33-2.24,1.79-4.47,1.75Z"/>
        <path class="cls-21" d="M142.65,68.09c1.1-2.53,1.8-4.91,3.64-6.7.68-.65,1.45-1.11,2.35-1.19,3.43-.3,6.81-.11,10.08,1.18,1.21.48,1.32,1.07.9,2.16-1.3,3.39-4.74,5.27-8.57,4.59-2.7-.48-5.4-.93-8.41-.04Z"/>
        <path class="cls-21" d="M188.97,64.46c2.72-5.01,2.59-7.49-1.25-11.89-2.07-2.38-2.85-4.67-1.53-7.63.96-2.16,1.44-2.56,3.81-2.36.44.04.89.04,1.33.06-.4.8-.6,1.53.29,2.21.29.22.18.61-.35.51-1.02-.09-2.02-.21-2.57,1-.59,1.27-.45,2.34.48,3.41,1.51,1.74,2.87,3.59,3.75,5.75,1.85,4.53.76,9.38-2.86,12.56-.08-1.3-.65-2.44-1.1-3.62Z"/>
        <path class="cls-20" d="M131.8,35.89c-.76-4.01,2.73-8.08,7.3-8.5,5.21-.49,8.61,2.5,9,7.92.24,3.4.15,3.55-3.27,5.1,0-.76,0-1.45,0-2.14,0-.9.03-1.8,0-2.7-.13-3.54-1.44-5.12-4.21-5.16-3.68-.05-6.06,1.96-6.27,5.32.08.21.17.44.04.63-.15.22-.47.21-.51-.02-.36-1.78-1.27-.8-2.06-.44Z"/>
        <path class="cls-43" d="M147.08,70.35c.43,1.04.87,2.07,1.27,3.12,1.81,4.65-.87,8.46-5.9,8.27-2.66-.1-5.06-1.04-7.06-2.83-.76-.68-1.6-1.6-.81-2.59.78-.98,1.82-.68,2.85.01,1.3.87,2.7,1.62,4.12,2.29.92.43,2.01.68,2.85-.16.85-.85.47-1.87.13-2.84-.45-1.28-1.5-2.24-1.84-3.57,1.21-1.22,2.55-2.11,4.39-1.68Z"/>
        <path class="cls-17" d="M168.71,44.67c.3.5.8.55,1.2.51,1.66-.13,1.49.76,1.14,1.86-.23.7-.45.98-1.29.67-1.36-.51-2.75-.99-4.22-1.09-.64-.04-.92-.42-.76-1.03.58-2.16.8-4.44,2.22-6.3,1.61-2.11,3.48-2.34,5.46-.58,1.59,1.41,2.1,3.27,1.94,5.33-.08.96-.43,1.42-1.52,1.01-1.32-.5-2.73-.53-4.18-.38Z"/>
        <path class="cls-22" d="M157.26,55.03c1.25-.21,1.86.32,2.07,1.56.2,1.15.59,2.27.83,3.42.18.85-.13,1.13-1,.77-1.35-.56-2.76-.87-4.22-1.02-1.17-.12-2.45-3.16-1.77-4.1.2-.27.49-.2.76-.23,1.11-.13,2.22-.27,3.33-.4Z"/>
        <path class="cls-48" d="M191.27,45.36c.24-.18.17-.31-.05-.48-1.5-1.18-1.49-1.39.11-2.24,1.55.4,2.84,1.29,4.19,2.09.62.37.98.91,1.08,1.62.07.54-.06,1-.47,1.37-.47.42-.96.25-1.39-.04-1.17-.76-2.32-1.55-3.47-2.33Z"/>
        <path class="cls-6" d="M147.08,70.35c-1.63.14-2.9,1.2-4.39,1.68-.47-1.08-.72-2.38.16-3.11.91-.76,2.34-.86,3.53-.58.96.22.37,1.36.7,2.01Z"/>
        <path class="cls-28" d="M188.97,64.46c1.23.94,1.52,2.18,1.1,3.62-.5.7-1.21,1.12-2.19,1.6.17-1.89-1.1-3.86,1.09-5.22Z"/>
        <path class="cls-14" d="M131.8,35.89c.14-.16.39-.32.39-.49,0-.95.69-.57,1.16-.65.81-.14.51.48.61.84.05.19-.13,1.14.37.13.37.66.26,1.41.36,2.11.08.55.18,1.19-.52,1.4-.63.19-1.01-.31-1.36-.75-.6-.76-.91-1.64-1.01-2.6Z"/>
      </g>
      <line class="cls-55" x1="136.52" y1="80.4" x2="136.52" y2="84.93"/>
      <circle class="cls-57" cx="136.52" cy="89.67" r="4.46"/>
      <text class="cls-61" transform="translate(134.84 92.1)"><tspan x="0" y="0">P</tspan></text>
      <line class="cls-55" x1="147.85" y1="80.2" x2="147.85" y2="84.72"/>
      <circle class="cls-57" cx="147.85" cy="89.37" r="4.46"/>
      <text class="cls-61" transform="translate(146.16 91.9)"><tspan x="0" y="0">P</tspan></text>
      <line class="cls-55" x1="190" y1="41.76" x2="190" y2="37.23"/>
      <circle class="cls-60" cx="190" cy="32.5" r="4.46"/>
      <circle class="cls-60" cx="190" cy="23.28" r="4.46"/>
      <circle class="cls-60" cx="190" cy="14.12" r="4.46"/>
      <circle class="cls-60" cx="190" cy="4.84" r="4.46"/>
      <text class="cls-61" transform="translate(186.66 7.59)"><tspan x="0" y="0">Ub</tspan></text>
      <line class="cls-55" x1="152.53" y1="35.91" x2="152.53" y2="31.39"/>
      <circle class="cls-59" cx="152.53" cy="27.84" r="4.46"/>
      <text class="cls-61" transform="translate(149.25 29.75)"><tspan x="0" y="0">Ac</tspan></text>
      <circle class="cls-59" cx="152.33" cy="18.39" r="4.46"/>
      <text class="cls-61" transform="translate(149.05 20.3)"><tspan x="0" y="0">Ac</tspan></text>
      <circle class="cls-59" cx="152.51" cy="9.06" r="4.46"/>
      <text class="cls-61" transform="translate(149.23 10.97)"><tspan x="0" y="0">Ac</tspan></text>
      <line class="cls-55" x1="141.63" y1="26.88" x2="141.63" y2="22.35"/>
      <circle class="cls-59" cx="141.63" cy="18.8" r="4.46"/>
      <text class="cls-61" transform="translate(138.35 20.71)"><tspan x="0" y="0">Ac</tspan></text>
      <text class="cls-61" transform="translate(186.83 16.73)"><tspan x="0" y="0">Ub</tspan></text>
      <text class="cls-61" transform="translate(186.85 26)"><tspan x="0" y="0">Ub</tspan></text>
      <text class="cls-61" transform="translate(186.81 35.04)"><tspan x="0" y="0">Ub</tspan></text>
    </g>
  </g>
</svg>